<svg version="1.1" xmlns="http://www.w3.org/2000/svg" xmlns:xlink="http://www.w3.org/1999/xlink" width="840.25094" height="254.98241" viewBox="0,0,840.25094,254.98241"><g transform="translate(531.13291,-58.45466)"><g data-paper-data="{&quot;isPaintingLayer&quot;:true}" fill-rule="nonzero" stroke-linejoin="miter" stroke-miterlimit="10" stroke-dasharray="" stroke-dashoffset="0" style="mix-blend-mode: normal"><path d="" data-paper-data="{&quot;index&quot;:null}" fill="#ffe800" stroke="none" stroke-width="0.5" stroke-linecap="butt"/><path d="" data-paper-data="{&quot;index&quot;:null}" fill="#ffe800" stroke="none" stroke-width="0.5" stroke-linecap="butt"/><path d="" data-paper-data="{&quot;index&quot;:null}" fill="#ffe800" stroke="none" stroke-width="0.5" stroke-linecap="butt"/><path d="" data-paper-data="{&quot;index&quot;:null}" fill="#ffe800" stroke="none" stroke-width="0.5" stroke-linecap="butt"/><path d="" data-paper-data="{&quot;index&quot;:null}" fill="#ffe800" stroke="none" stroke-width="0.5" stroke-linecap="butt"/><g><path d="M175.75628,313.1518l-6.75328,-43.5824l133.07641,-20.5855l6.75328,43.5824z" data-paper-data="{&quot;index&quot;:null}" fill="#ffe800" stroke="#ffe800" stroke-width="0.5" stroke-linecap="butt"/><path d="M167.76853,154.14141l11.68364,-95.40822l125.71436,15.39491l-11.68364,95.40822z" data-paper-data="{&quot;index&quot;:null}" fill="#ffe800" stroke="#ffe800" stroke-width="0.5" stroke-linecap="butt"/><path d="M223.22595,131.78382l-30.50197,-3.5298l1.36524,-25.72856l33.21969,-5.04304z" data-paper-data="{&quot;index&quot;:null}" fill="#000000" stroke="#000000" stroke-width="0.5" stroke-linecap="round"/><path d="M228.14073,267.53185l-24.68275,3.9701l-3.9701,-24.68275l24.68275,-3.9701z" data-paper-data="{&quot;index&quot;:null}" fill="#ffe800" stroke="#ffe800" stroke-width="0.5" stroke-linecap="butt"/><path d="M277.35396,266.93898l-32.43573,5.21713l-5.21713,-32.43573l32.43573,-5.21713z" data-paper-data="{&quot;index&quot;:null}" fill="#ffe800" stroke="#ffe800" stroke-width="0.5" stroke-linecap="butt"/><path d="M-531.13291,248.84971v-75.67472h704.81928v75.67472z" data-paper-data="{&quot;index&quot;:null}" fill="#ffe800" stroke="none" stroke-width="0" stroke-linecap="butt"/><path d="M177.4955,154.28334c9.66812,0 17.50569,24.70278 17.50569,55.17526c0,30.47244 -7.83757,55.17526 -17.50569,55.17526c-9.66812,0 -17.50569,-24.70278 -17.50569,-55.17526c0,-30.47244 7.83757,-55.17526 17.50569,-55.17526z" data-paper-data="{&quot;index&quot;:null}" fill="#ffe800" stroke="none" stroke-width="0" stroke-linecap="butt"/></g></g></g></svg>