<svg version="1.1" xmlns="http://www.w3.org/2000/svg" xmlns:xlink="http://www.w3.org/1999/xlink" width="616.5" height="213.3765" viewBox="0,0,616.5,213.3765"><g transform="translate(68,-78.79111)"><g data-paper-data="{&quot;isPaintingLayer&quot;:true}" fill-rule="nonzero" stroke-width="0.5" stroke-linejoin="miter" stroke-miterlimit="10" stroke-dasharray="" stroke-dashoffset="0" style="mix-blend-mode: normal"><path d="M172.33031,291.83296l0.03908,-44.1025l134.65915,0.08449l-0.03908,44.1025z" fill="#ffe800" stroke="#ffe800" stroke-linecap="butt"/><path d="" fill="#ffe800" stroke="none" stroke-linecap="butt"/><path d="" fill="#ffe800" stroke="none" stroke-linecap="butt"/><path d="" fill="#ffe800" stroke="none" stroke-linecap="butt"/><path d="" fill="#ffe800" stroke="none" stroke-linecap="butt"/><path d="" fill="#ffe800" stroke="none" stroke-linecap="butt"/><path d="M176.36984,175.16222l0.07287,-96.12092l126.65344,0.09602l-0.07287,96.12092z" fill="#ffe800" stroke="#ffe800" stroke-linecap="butt"/><path d="M196.62569,106.96395l29.9614,11.1807l-1.14569,28.98119l-28.27029,-1.1464z" fill="#000000" stroke="#000000" stroke-linecap="round"/><path d="M283.00736,146.09147l-28.27143,1.05658l-1.11598,-28.27601l29.97283,-10.84215z" data-paper-data="{&quot;index&quot;:null}" fill="#000000" stroke="#000000" stroke-linecap="round"/><path d="M258.16833,233.87111l24.99945,0.16584l-0.16584,24.99945l-24.99945,-0.16584z" fill="#ffe800" stroke="#ffe800" stroke-linecap="butt"/><path d="M196.16969,233.45982l24.99945,0.16584l-0.16584,24.99945l-24.99945,-0.16584z" fill="#ffe800" stroke="#ffe800" stroke-linecap="butt"/><path d="M548.25,194.25003v21h-616v-21z" data-paper-data="{&quot;index&quot;:null}" fill="#ffe800" stroke="#ffe800" stroke-linecap="butt"/><path d="M250.25,205.25001c0,12.70255 -4.47715,23 -10,23c-5.52285,0 -10,-10.29745 -10,-23c0,-12.70255 4.47715,-23 10,-23c5.52285,0 10,10.29745 10,23z" fill="#ffe800" stroke="#ffe800" stroke-linecap="butt"/></g></g></svg>