<svg version="1.1" xmlns="http://www.w3.org/2000/svg" xmlns:xlink="http://www.w3.org/1999/xlink" width="836.25094" height="222.66098" viewBox="0,0,836.25094,222.66098"><g transform="translate(526.63216,-76.77609)"><g data-paper-data="{&quot;isPaintingLayer&quot;:true}" fill-rule="nonzero" stroke-linejoin="miter" stroke-miterlimit="10" stroke-dasharray="" stroke-dashoffset="0" style="mix-blend-mode: normal"><path d="M176.25703,299.1518l-6.75328,-43.5824l133.07641,-20.5855l6.75328,43.5824z" data-paper-data="{&quot;index&quot;:null}" fill="#ffe800" stroke="#ffe800" stroke-width="0.5" stroke-linecap="butt"/><path d="" fill="#ffe800" stroke="none" stroke-width="0.5" stroke-linecap="butt"/><path d="" fill="#ffe800" stroke="none" stroke-width="0.5" stroke-linecap="butt"/><path d="" fill="#ffe800" stroke="none" stroke-width="0.5" stroke-linecap="butt"/><path d="" fill="#ffe800" stroke="none" stroke-width="0.5" stroke-linecap="butt"/><path d="" fill="#ffe800" stroke="none" stroke-width="0.5" stroke-linecap="butt"/><path d="M170.678,173.24322l-0.07287,-96.12092l126.65344,-0.09602l0.07287,96.12092z" data-paper-data="{&quot;index&quot;:null}" fill="#ffe800" stroke="#ffe800" stroke-width="0.5" stroke-linecap="butt"/><path d="M222.98466,144.27082l-30.62918,0.84001l-1.24129,-21.23573l32.4614,-8.19257z" data-paper-data="{&quot;index&quot;:null}" fill="#000000" stroke="#000000" stroke-width="0.5" stroke-linecap="round"/><path d="M228.64148,253.53185l-24.68275,3.9701l-3.9701,-24.68275l24.68275,-3.9701z" data-paper-data="{&quot;index&quot;:null}" fill="#ffe800" stroke="#ffe800" stroke-width="0.5" stroke-linecap="butt"/><path d="M277.85471,252.93898l-32.43573,5.21713l-5.21713,-32.43573l32.43573,-5.21713z" data-paper-data="{&quot;index&quot;:null}" fill="#ffe800" stroke="#ffe800" stroke-width="0.5" stroke-linecap="butt"/><path d="M-526.63216,243.85473v-56.47325h704.81928v56.47325z" data-paper-data="{&quot;index&quot;:null}" fill="#ffe800" stroke="none" stroke-width="0" stroke-linecap="butt"/><path d="M181.99625,173.28334c9.66812,0 17.50569,18.43477 17.50569,41.17526c0,22.74046 -7.83757,41.17526 -17.50569,41.17526c-9.66812,0 -17.50569,-18.43477 -17.50569,-41.17526c0,-22.74046 7.83757,-41.17526 17.50569,-41.17526z" data-paper-data="{&quot;index&quot;:null}" fill="#ffe800" stroke="none" stroke-width="0" stroke-linecap="butt"/></g></g></svg>