<svg version="1.1" xmlns="http://www.w3.org/2000/svg" xmlns:xlink="http://www.w3.org/1999/xlink" width="216.5654" height="210.32264" viewBox="0,0,216.5654,210.32264"><g transform="translate(-133.45406,-61.23554)"><g data-paper-data="{&quot;isPaintingLayer&quot;:true}" fill-rule="nonzero" stroke-width="0.5" stroke-linejoin="miter" stroke-miterlimit="10" stroke-dasharray="" stroke-dashoffset="0" style="mix-blend-mode: normal"><path d="M172.33031,271.22353l0.03908,-44.1025l134.65915,0.08449l-0.03908,44.1025z" fill="#ffe800" stroke="#ffe800" stroke-linecap="butt"/><path d="" fill="#ffe800" stroke="none" stroke-linecap="butt"/><path d="" fill="#ffe800" stroke="none" stroke-linecap="butt"/><path d="" fill="#ffe800" stroke="none" stroke-linecap="butt"/><path d="" fill="#ffe800" stroke="none" stroke-linecap="butt"/><path d="" fill="#ffe800" stroke="none" stroke-linecap="butt"/><path d="M176.36984,206.16221l0.07287,-96.12092l126.65344,0.09602l-0.07287,96.12092z" fill="#ffe800" stroke="#ffe800" stroke-linecap="butt"/><path d="M196.62569,162.00884l29.9614,4.48682l-1.14569,11.63017l-28.27029,-0.46005z" fill="#000000" stroke="#000000" stroke-linecap="round"/><path d="M283.00736,177.73685l-28.27143,0.41119l-1.11598,-11.0042l29.97283,-4.21945z" data-paper-data="{&quot;index&quot;:null}" fill="#000000" stroke="#000000" stroke-linecap="round"/><path d="M258.16833,213.26168l24.99945,0.16584l-0.16584,24.99945l-24.99945,-0.16584z" fill="#ffe800" stroke="#ffe800" stroke-linecap="butt"/><path d="M196.16969,212.85039l24.99945,0.16584l-0.16584,24.99945l-24.99945,-0.16584z" fill="#ffe800" stroke="#ffe800" stroke-linecap="butt"/><path d="M182.5464,114.36166l28.0113,-51.66268l29.76201,52.67567z" fill="#ffe800" stroke="#ffe800" stroke-linecap="round"/><path d="M235.97404,113.41441l28.01131,-51.66268l29.76201,52.67568z" fill="#ffe800" stroke="#ffe800" stroke-linecap="round"/><path d="M186.57437,168.65705l-52.60459,-26.19968l51.60997,-31.57396z" fill="#ffe800" stroke="#ffe800" stroke-linecap="round"/><path d="M187.32634,205.09253l-52.60459,-26.19967l51.60997,-31.57396z" fill="#ffe800" stroke="#ffe800" stroke-linecap="round"/><path d="M296.89915,146.37165l52.60459,26.19967l-51.60997,31.57396z" data-paper-data="{&quot;index&quot;:null}" fill="#ffe800" stroke="#ffe800" stroke-linecap="round"/><path d="M296.1472,109.93616l52.60459,26.19968l-51.60998,31.57396z" data-paper-data="{&quot;index&quot;:null}" fill="#ffe800" stroke="#ffe800" stroke-linecap="round"/></g></g></svg>