<svg version="1.1" xmlns="http://www.w3.org/2000/svg" xmlns:xlink="http://www.w3.org/1999/xlink" width="363.85975" height="250.61933" viewBox="0,0,363.85975,250.61933"><g transform="translate(-62.37666,-14.14198)"><g data-paper-data="{&quot;isPaintingLayer&quot;:true}" fill-rule="nonzero" stroke-width="0.5" stroke-linejoin="miter" stroke-miterlimit="10" stroke-dasharray="" stroke-dashoffset="0" style="mix-blend-mode: normal"><path d="M172.33031,264.42667l0.03908,-44.1025l134.65915,0.08449l-0.03908,44.1025z" fill="#ffe800" stroke="#ffe800" stroke-linecap="butt"/><path d="" fill="#ffe800" stroke="none" stroke-linecap="butt"/><path d="" fill="#ffe800" stroke="none" stroke-linecap="butt"/><path d="" fill="#ffe800" stroke="none" stroke-linecap="butt"/><path d="" fill="#ffe800" stroke="none" stroke-linecap="butt"/><path d="" fill="#ffe800" stroke="none" stroke-linecap="butt"/><path d="M176.36984,206.16221l0.07287,-96.12092l126.65344,0.09602l-0.07287,96.12092z" fill="#ffe800" stroke="#ffe800" stroke-linecap="butt"/><path d="M196.62569,150.96394l29.9614,7.56162l-1.14569,19.60027l-28.27029,-0.77532z" fill="#000000" stroke="#000000" stroke-linecap="round"/><path d="M283.00736,177.43853l-28.27143,0.70951l-1.11598,-18.98785l29.97283,-7.2807z" data-paper-data="{&quot;index&quot;:null}" fill="#000000" stroke="#000000" stroke-linecap="round"/><path d="M258.16833,206.46482l24.99945,0.16584l-0.16584,24.99945l-24.99945,-0.16584z" fill="#ffe800" stroke="#ffe800" stroke-linecap="butt"/><path d="M196.16969,206.05353l24.99945,0.16584l-0.16584,24.99945l-24.99945,-0.16584z" fill="#ffe800" stroke="#ffe800" stroke-linecap="butt"/><path d="M182.5464,113.47891l28.0113,-96.68289l29.76201,98.57863z" fill="#ffe800" stroke="#ffe800" stroke-linecap="round"/><path d="M235.97404,111.7062l28.01131,-96.68289l29.76201,98.57865z" fill="#ffe800" stroke="#ffe800" stroke-linecap="round"/><path d="M185.58055,168.65705l-122.1282,-26.19968l119.81906,-31.57396z" fill="#ffe800" stroke="#ffe800" stroke-linecap="round"/><path d="M187.32634,205.09253l-122.1282,-26.19967l119.81906,-31.57396z" fill="#ffe800" stroke="#ffe800" stroke-linecap="round"/><path d="M297.9648,146.37165l127.15402,26.19967l-124.74987,31.57396z" data-paper-data="{&quot;index&quot;:null}" fill="#ffe800" stroke="#ffe800" stroke-linecap="round"/><path d="M296.1472,109.93616l127.15402,26.19968l-124.74989,31.57396z" data-paper-data="{&quot;index&quot;:null}" fill="#ffe800" stroke="#ffe800" stroke-linecap="round"/></g></g></svg>