<svg version="1.1" xmlns="http://www.w3.org/2000/svg" xmlns:xlink="http://www.w3.org/1999/xlink" width="851.45294" height="195.47354" viewBox="0,0,851.45294,195.47354"><g transform="translate(541.56513,-95.61785)"><g data-paper-data="{&quot;isPaintingLayer&quot;:true}" fill-rule="nonzero" stroke-linejoin="miter" stroke-miterlimit="10" stroke-dasharray="" stroke-dashoffset="0" style="mix-blend-mode: normal"><path d="M176.52605,290.80612l-6.75328,-43.5824l133.07641,-20.5855l6.75328,43.5824z" data-paper-data="{&quot;index&quot;:null}" fill="#ffe800" stroke="#ffe800" stroke-width="0.5" stroke-linecap="butt"/><path d="" fill="#ffe800" stroke="none" stroke-width="0.5" stroke-linecap="butt"/><path d="" fill="#ffe800" stroke="none" stroke-width="0.5" stroke-linecap="butt"/><path d="" fill="#ffe800" stroke="none" stroke-width="0.5" stroke-linecap="butt"/><path d="" fill="#ffe800" stroke="none" stroke-width="0.5" stroke-linecap="butt"/><path d="" fill="#ffe800" stroke="none" stroke-width="0.5" stroke-linecap="butt"/><path d="M170.94702,192.08498l-0.07287,-96.12092l126.65344,-0.09602l0.07287,96.12092z" data-paper-data="{&quot;index&quot;:null}" fill="#ffe800" stroke="#ffe800" stroke-width="0.5" stroke-linecap="butt"/><path d="M223.25368,162.84582l-30.62918,1.10678l-1.24129,-27.97966l32.4614,-10.79432z" data-paper-data="{&quot;index&quot;:null}" fill="#000000" stroke="#000000" stroke-width="0.5" stroke-linecap="round"/><path d="M228.9105,245.18617l-24.68275,3.9701l-3.9701,-24.68275l24.68275,-3.9701z" data-paper-data="{&quot;index&quot;:null}" fill="#ffe800" stroke="#ffe800" stroke-width="0.5" stroke-linecap="butt"/><path d="M264.53001,241.40164l-32.43573,4.16075l-5.21713,-25.86805l32.43573,-4.16075z" data-paper-data="{&quot;index&quot;:null}" fill="#ffe800" stroke="#ffe800" stroke-width="0.5" stroke-linecap="butt"/><path d="M-541.56513,241.33252v-58.57861h748.5267v58.57861z" data-paper-data="{&quot;index&quot;:null}" fill="#ffe800" stroke="none" stroke-width="0" stroke-linecap="butt"/><path d="M211.00691,169.1857c10.26766,0 18.59126,19.12203 18.59126,42.7103c0,23.58824 -8.3236,42.7103 -18.59126,42.7103c-10.26766,0 -18.59126,-19.12203 -18.59126,-42.7103c0,-23.58824 8.3236,-42.7103 18.59126,-42.7103z" data-paper-data="{&quot;index&quot;:null}" fill="#ffe800" stroke="none" stroke-width="0" stroke-linecap="butt"/></g></g></svg>