<svg version="1.1" xmlns="http://www.w3.org/2000/svg" xmlns:xlink="http://www.w3.org/1999/xlink" width="1129.23626" height="338.30358" viewBox="0,0,1129.23626,338.30358"><g transform="translate(-154.87253,-67.62251)"><g data-paper-data="{&quot;isPaintingLayer&quot;:true}" fill-rule="nonzero" stroke-linejoin="miter" stroke-miterlimit="10" stroke-dasharray="" stroke-dashoffset="0" style="mix-blend-mode: normal"><path d="M155.15312,309.17562l5.7757,-43.72272l125.56268,16.58663l-5.7757,43.72272z" fill="#ffe800" stroke="#ffe800" stroke-width="0.5" stroke-linecap="butt"/><path d="" fill="#ffe800" stroke="none" stroke-width="0.5" stroke-linecap="butt"/><path d="" fill="#ffe800" stroke="none" stroke-width="0.5" stroke-linecap="butt"/><path d="" fill="#ffe800" stroke="none" stroke-width="0.5" stroke-linecap="butt"/><path d="" fill="#ffe800" stroke="none" stroke-width="0.5" stroke-linecap="butt"/><path d="" fill="#ffe800" stroke="none" stroke-width="0.5" stroke-linecap="butt"/><path d="M174.23842,163.1962l12.58807,-95.29311l125.56268,16.58663l-12.58807,95.29311z" fill="#ffe800" stroke="#ffe800" stroke-width="0.5" stroke-linecap="butt"/><path d="M258.01825,118.5701l28.72173,11.39849l-3.68807,19.28422l-27.92866,-4.44977z" fill="#000000" stroke="#000000" stroke-width="0.5" stroke-linecap="round"/><path d="M225.78924,267.60924l11.24512,-85.12689l1047.07443,138.31684l-11.24512,85.12689z" fill="#ffe800" stroke="none" stroke-width="0" stroke-linecap="butt"/><path d="M244.08289,222.24418c-3.86613,29.26707 -16.30015,51.76418 -27.77214,50.24875c-11.47199,-1.51543 -17.63777,-26.46956 -13.77164,-55.73661c3.86613,-29.26707 16.30015,-51.76418 27.77214,-50.24875c11.47199,1.51543 17.63777,26.46956 13.77164,55.73661z" fill="#ffe800" stroke="none" stroke-width="0" stroke-linecap="butt"/></g></g></svg>