<svg version="1.1" xmlns="http://www.w3.org/2000/svg" xmlns:xlink="http://www.w3.org/1999/xlink" width="1137.16245" height="291.05672" viewBox="0,0,1137.16245,291.05672"><g transform="translate(-160.75052,-21.10982)"><g data-paper-data="{&quot;isPaintingLayer&quot;:true}" fill-rule="nonzero" stroke-linejoin="miter" stroke-miterlimit="10" stroke-dasharray="" stroke-dashoffset="0" style="mix-blend-mode: normal"><path d="M195.04943,311.88422l-6.12976,-43.67449l125.42417,-17.6034l6.12976,43.67449z" data-paper-data="{&quot;index&quot;:null}" fill="#ffe800" stroke="#ffe800" stroke-width="0.5" stroke-linecap="butt"/><path d="" fill="#ffe800" stroke="none" stroke-width="0.5" stroke-linecap="butt"/><path d="" fill="#ffe800" stroke="none" stroke-width="0.5" stroke-linecap="butt"/><path d="" fill="#ffe800" stroke="none" stroke-width="0.5" stroke-linecap="butt"/><path d="" fill="#ffe800" stroke="none" stroke-width="0.5" stroke-linecap="butt"/><path d="" fill="#ffe800" stroke="none" stroke-width="0.5" stroke-linecap="butt"/><path d="M174.39256,166.11889l-13.35972,-95.18799l125.42417,-17.6034l13.35972,95.18799z" data-paper-data="{&quot;index&quot;:null}" fill="#ffe800" stroke="#ffe800" stroke-width="0.5" stroke-linecap="butt"/><path d="M243.18307,100.70929l30.72408,3.30064l1.60448,19.56805l-28.10126,3.18276z" data-paper-data="{&quot;index&quot;:null}" fill="#000000" stroke="#000000" stroke-width="0.5" stroke-linecap="round"/><path d="M251.99356,252.93856l-11.93446,-85.03299l1045.91941,-146.79575l11.93446,85.03299z" data-paper-data="{&quot;index&quot;:null}" fill="#ffe800" stroke="none" stroke-width="0" stroke-linecap="butt"/><path d="M257.48634,204.33325c4.10313,29.23479 -1.86028,54.23804 -13.31961,55.84637c-11.45934,1.60833 -24.07521,-20.78732 -28.17834,-50.02208c-4.10313,-29.23479 1.86028,-54.23804 13.31961,-55.84637c11.45934,-1.60833 24.07521,20.78732 28.17834,50.02208z" data-paper-data="{&quot;index&quot;:null}" fill="#ffe800" stroke="none" stroke-width="0" stroke-linecap="butt"/></g></g></svg>