<svg version="1.1" xmlns="http://www.w3.org/2000/svg" xmlns:xlink="http://www.w3.org/1999/xlink" width="220.76565" height="203.22949" viewBox="0,0,220.76565,203.22949"><g transform="translate(-129.63596,-78.37671)"><g data-paper-data="{&quot;isPaintingLayer&quot;:true}" fill-rule="nonzero" stroke-linecap="butt" stroke-linejoin="miter" stroke-miterlimit="10" stroke-dasharray="" stroke-dashoffset="0" style="mix-blend-mode: normal"><path d="M171.73458,281.3562v-105.63555h77.4967v105.63555z" fill="#8e00eb" stroke="#8e00eb" stroke-width="0.5"/><path d="M204.70364,249.86242v-70.64798h18.83946v70.64798z" fill="#000000" stroke="none" stroke-width="0"/><path d="M276.99072,207.56584l-3.58831,-21.60869l71.04434,-11.7975l3.58831,21.60869z" fill="#8e00eb" stroke="#8e00eb" stroke-width="0.5"/><path d="M329.34166,198.87253l-8.21085,-49.44561l20.77237,-3.44943l8.21085,49.44561z" fill="#8e00eb" stroke="#8e00eb" stroke-width="0.5"/><path d="M274.97031,207.90135l-8.21085,-49.4456l19.11217,-3.17374l8.21085,49.44561z" fill="#8e00eb" stroke="#8e00eb" stroke-width="0.5"/><path d="M251.6313,133.89442l-1.55261,-21.84951l71.83607,-5.1046l1.55261,21.84951z" data-paper-data="{&quot;index&quot;:null}" fill="#8e00eb" stroke="#8e00eb" stroke-width="0.5"/><path d="M304.56566,130.13297l-3.55271,-49.99665l21.00386,-1.49252l3.55271,49.99665z" data-paper-data="{&quot;index&quot;:null}" fill="#8e00eb" stroke="#8e00eb" stroke-width="0.5"/><path d="M249.5884,134.03959l-3.55272,-49.99664l19.32516,-1.37323l3.55271,49.99665z" data-paper-data="{&quot;index&quot;:null}" fill="#8e00eb" stroke="#8e00eb" stroke-width="0.5"/><path d="M149.23964,231.18638v-6.31098h37.02443v6.31098z" fill="#8e00eb" stroke="#8e00eb" stroke-width="0.5"/><path d="M129.88597,228.03088c0,-5.8091 4.7092,-10.5183 10.5183,-10.5183c5.8091,0 10.5183,4.7092 10.5183,10.5183c0,5.8091 -4.7092,10.5183 -10.5183,10.5183c-5.8091,0 -10.5183,-4.7092 -10.5183,-10.5183z" fill="#8e00eb" stroke="#8e00eb" stroke-width="0.5"/></g></g></svg>