<svg version="1.1" xmlns="http://www.w3.org/2000/svg" xmlns:xlink="http://www.w3.org/1999/xlink" width="1157.1926" height="169.61204" viewBox="0,0,1157.1926,169.61204"><g transform="translate(-128.28779,-93.43643)"><g data-paper-data="{&quot;isPaintingLayer&quot;:true}" fill-rule="nonzero" stroke-linecap="butt" stroke-linejoin="miter" stroke-miterlimit="10" stroke-dasharray="" stroke-dashoffset="0" style="mix-blend-mode: normal"><path d="M308.12272,151.55164l6.19568,-35.32493l970.86991,111.22165l-6.19568,35.32493z" fill="#c48aeb" stroke="#8e00eb" stroke-width="0.5"/><path d="M1259.10629,100.22671l6.08201,33.39652l-953.05779,105.15006l-6.08201,-33.39652z" data-paper-data="{&quot;index&quot;:null}" fill="#c48aeb" stroke="#8e00eb" stroke-width="0.5"/><path d="M170.38642,230.71564v-105.63555h77.4967v105.63555z" fill="#8e00eb" stroke="#8e00eb" stroke-width="0.5"/><path d="M203.35548,213.22186v-70.64798h18.83946v70.64798z" fill="#000000" stroke="none" stroke-width="0"/><path d="M147.89147,180.54582v-6.31098h37.02443v6.31098z" fill="#8e00eb" stroke="#8e00eb" stroke-width="0.5"/><path d="M128.53779,177.39032c0,-5.8091 4.7092,-10.5183 10.5183,-10.5183c5.8091,0 10.5183,4.7092 10.5183,10.5183c0,5.8091 -4.7092,10.5183 -10.5183,10.5183c-5.8091,0 -10.5183,-4.7092 -10.5183,-10.5183z" fill="#8e00eb" stroke="#8e00eb" stroke-width="0.5"/><g fill="#8e00eb" stroke="#8e00eb" stroke-width="0.5"><path d="M295.85056,189.47917l21.65112,-3.32273l10.92433,71.18383l-21.65113,3.32273z"/><path d="M303.90045,241.9329l49.5427,-7.60314l3.19412,20.81315l-49.54269,7.60314z"/><path d="M295.5399,187.4548l49.54269,-7.60314l2.93884,19.1497l-49.54269,7.60314z"/></g><g fill="#8e00eb" stroke="#8e00eb" stroke-width="0.5"><path d="M305.21191,95.8065l21.72389,2.8079l-9.23172,71.42306l-21.72389,-2.8079z" data-paper-data="{&quot;index&quot;:null}"/><path d="M305.48204,93.71642l49.7092,6.42511l-2.69923,20.8831l-49.7092,-6.42511z" data-paper-data="{&quot;index&quot;:null}"/><path d="M298.20113,150.04667l49.7092,6.42511l-2.48349,19.21406l-49.70919,-6.42511z" data-paper-data="{&quot;index&quot;:null}"/></g></g></g></svg>