<svg version="1.1" xmlns="http://www.w3.org/2000/svg" xmlns:xlink="http://www.w3.org/1999/xlink" width="223.48998" height="254.63186" viewBox="0,0,223.48998,254.63186"><g transform="translate(-128.2878,-52.68407)"><g data-paper-data="{&quot;isPaintingLayer&quot;:true}" fill-rule="nonzero" stroke-linecap="butt" stroke-linejoin="miter" stroke-miterlimit="10" stroke-dasharray="" stroke-dashoffset="0" style="mix-blend-mode: normal"><path d="M170.38641,230.71564v-105.63555h77.4967v105.63555z" fill="#8e00eb" stroke="#8e00eb" stroke-width="0.5"/><path d="M203.35547,213.22186v-70.64798h18.83946v70.64798z" fill="#000000" stroke="none" stroke-width="0"/><path d="M277.67853,306.3608l-6.84026,-20.80919l68.41576,-22.48916l6.84026,20.80919z" fill="#8e00eb" stroke="#8e00eb" stroke-width="0.5"/><path d="M328.09254,289.78905l-15.65206,-47.61617l20.00381,-6.57552l15.65206,47.61617z" fill="#8e00eb" stroke="#8e00eb" stroke-width="0.5"/><path d="M275.73288,307.00036l-15.65206,-47.61616l18.40504,-6.04998l15.65206,47.61617z" fill="#8e00eb" stroke="#8e00eb" stroke-width="0.5"/><path d="M349.46014,76.12836l-6.84026,20.80919l-68.41576,-22.48916l6.84026,-20.80919z" data-paper-data="{&quot;index&quot;:null}" fill="#8e00eb" stroke="#8e00eb" stroke-width="0.5"/><path d="M351.46221,76.78646l-15.65206,47.61617l-20.00381,-6.57552l15.65206,-47.61617z" data-paper-data="{&quot;index&quot;:null}" fill="#8e00eb" stroke="#8e00eb" stroke-width="0.5"/><path d="M297.50378,59.04961l-15.65206,47.61617l-18.40504,-6.04998l15.65206,-47.61616z" data-paper-data="{&quot;index&quot;:null}" fill="#8e00eb" stroke="#8e00eb" stroke-width="0.5"/><path d="M147.89147,180.54582v-6.31098h37.02443v6.31098z" fill="#8e00eb" stroke="#8e00eb" stroke-width="0.5"/><path d="M128.5378,177.39032c0,-5.8091 4.7092,-10.5183 10.5183,-10.5183c5.8091,0 10.5183,4.7092 10.5183,10.5183c0,5.8091 -4.7092,10.5183 -10.5183,10.5183c-5.8091,0 -10.5183,-4.7092 -10.5183,-10.5183z" fill="#8e00eb" stroke="#8e00eb" stroke-width="0.5"/></g></g></svg>