<svg version="1.1" xmlns="http://www.w3.org/2000/svg" xmlns:xlink="http://www.w3.org/1999/xlink" width="220.76565" height="203.22949" viewBox="0,0,220.76565,203.22949"><g transform="translate(-129.63596,-78.3938)"><g data-paper-data="{&quot;isPaintingLayer&quot;:true}" fill-rule="nonzero" stroke-linecap="butt" stroke-linejoin="miter" stroke-miterlimit="10" stroke-dasharray="" stroke-dashoffset="0" style="mix-blend-mode: normal"><path d="M249.23128,78.6438v105.63555h-77.4967v-105.63555z" data-paper-data="{&quot;index&quot;:null}" fill="#8e00eb" stroke="#8e00eb" stroke-width="0.5"/><path d="M223.5431,110.13758v70.64798h-18.83946v-70.64798z" data-paper-data="{&quot;index&quot;:null}" fill="#000000" stroke="none" stroke-width="0"/><path d="M348.03506,164.23166l-3.58831,21.60869l-71.04434,-11.7975l3.58831,-21.60869z" data-paper-data="{&quot;index&quot;:null}" fill="#8e00eb" stroke="#8e00eb" stroke-width="0.5"/><path d="M350.11404,164.5769l-8.21085,49.44561l-20.77237,-3.44943l8.21085,-49.44561z" data-paper-data="{&quot;index&quot;:null}" fill="#8e00eb" stroke="#8e00eb" stroke-width="0.5"/><path d="M294.08248,155.27238l-8.21085,49.44561l-19.11217,-3.17374l8.21085,-49.4456z" data-paper-data="{&quot;index&quot;:null}" fill="#8e00eb" stroke="#8e00eb" stroke-width="0.5"/><path d="M323.46737,231.21018l-1.55261,21.84951l-71.83607,-5.1046l1.55261,-21.84951z" data-paper-data="{&quot;index&quot;:null}" fill="#8e00eb" stroke="#8e00eb" stroke-width="0.5"/><path d="M325.56952,231.35955l-3.55271,49.99665l-21.00386,-1.49252l3.55271,-49.99665z" data-paper-data="{&quot;index&quot;:null}" fill="#8e00eb" stroke="#8e00eb" stroke-width="0.5"/><path d="M268.91355,227.33363l-3.55271,49.99665l-19.32516,-1.37323l3.55272,-49.99664z" data-paper-data="{&quot;index&quot;:null}" fill="#8e00eb" stroke="#8e00eb" stroke-width="0.5"/><path d="M186.26407,128.81362v6.31098h-37.02443v-6.31098z" data-paper-data="{&quot;index&quot;:null}" fill="#8e00eb" stroke="#8e00eb" stroke-width="0.5"/><path d="M140.40427,121.45082c5.8091,0 10.5183,4.7092 10.5183,10.5183c0,5.8091 -4.7092,10.5183 -10.5183,10.5183c-5.8091,0 -10.5183,-4.7092 -10.5183,-10.5183c0,-5.8091 4.7092,-10.5183 10.5183,-10.5183z" data-paper-data="{&quot;index&quot;:null}" fill="#8e00eb" stroke="#8e00eb" stroke-width="0.5"/></g></g></svg>