<svg version="1.1" xmlns="http://www.w3.org/2000/svg" xmlns:xlink="http://www.w3.org/1999/xlink" width="231.19609" height="260.80546" viewBox="0,0,231.19609,260.80546"><g transform="translate(-124.2878,-54.0062)"><g data-paper-data="{&quot;isPaintingLayer&quot;:true}" fill-rule="nonzero" stroke-linecap="butt" stroke-linejoin="miter" stroke-miterlimit="10" stroke-dasharray="" stroke-dashoffset="0" style="mix-blend-mode: normal"><path d="M172.88617,246.59193v-122.04245h89.53319v122.04245z" fill="#8e00eb" stroke="#8e00eb" stroke-width="0.5"/><path d="M210.97585,226.38108v-81.62075h21.76553v81.62075z" fill="#000000" stroke="none" stroke-width="0"/><path d="M291.7443,312.86747l-17.01669,-18.73134l61.58429,-55.9469l17.01669,18.73134z" fill="#8e00eb" stroke="#8e00eb" stroke-width="0.5"/><path d="M337.12436,271.64147l-38.93806,-42.86159l18.00638,-16.35809l38.93806,42.86158z" fill="#8e00eb" stroke="#8e00eb" stroke-width="0.5"/><path d="M289.99293,314.45851l-38.93805,-42.86157l16.56725,-15.0507l38.93806,42.86158z" fill="#8e00eb" stroke="#8e00eb" stroke-width="0.5"/><path d="M352.90233,107.88128l-15.82948,19.74484l-64.91643,-52.04361l15.82948,-19.74484z" data-paper-data="{&quot;index&quot;:null}" fill="#8e00eb" stroke="#8e00eb" stroke-width="0.5"/><path d="M354.80201,109.40424l-36.22144,45.1807l-18.98065,-15.21682l36.22144,-45.1807z" data-paper-data="{&quot;index&quot;:null}" fill="#8e00eb" stroke="#8e00eb" stroke-width="0.5"/><path d="M303.60344,68.35826l-36.22143,45.1807l-17.46366,-14.00064l36.22143,-45.18069z" data-paper-data="{&quot;index&quot;:null}" fill="#8e00eb" stroke="#8e00eb" stroke-width="0.5"/><path d="M146.8974,188.62992v-7.29118h42.77492v7.29118z" fill="#8e00eb" stroke="#8e00eb" stroke-width="0.5"/><path d="M124.5378,184.98432c0,-6.71135 5.44061,-12.15196 12.15196,-12.15196c6.71135,0 12.15196,5.44061 12.15196,12.15196c0,6.71135 -5.44061,12.15196 -12.15196,12.15196c-6.71135,0 -12.15196,-5.44061 -12.15196,-12.15196z" fill="#8e00eb" stroke="#8e00eb" stroke-width="0.5"/></g></g></svg>