<svg version="1.1" xmlns="http://www.w3.org/2000/svg" xmlns:xlink="http://www.w3.org/1999/xlink" width="192.45003" height="270.53713" viewBox="0,0,192.45003,270.53713"><g transform="translate(-147.03363,-44.3042)"><g data-paper-data="{&quot;isPaintingLayer&quot;:true}" fill-rule="nonzero" stroke-linejoin="miter" stroke-miterlimit="10" stroke-dasharray="" stroke-dashoffset="0" style="mix-blend-mode: normal"><g fill="#3cea00" stroke="#3cea00" stroke-width="0.5" stroke-linecap="butt"><path d="M197.38513,219.68557c17.65967,-13.59137 39.60117,-15.36611 49.00774,-3.964c9.40656,11.40211 2.7161,31.66333 -14.94357,45.2547c-17.65967,13.59137 -39.60117,15.36611 -49.00774,3.964c-9.40656,-11.40211 -2.7161,-31.66333 14.94357,-45.2547z"/><path d="M183.79189,254.69547c16.00407,-12.31718 33.83054,-16.42016 39.81654,-9.16428c5.98599,7.25589 -2.13526,23.12299 -18.13933,35.44018c-16.00407,12.31718 -33.83054,16.42016 -39.81654,9.16428c-5.98599,-7.25589 2.13526,-23.12299 18.13933,-35.44018z"/><path d="M166.06965,284.70043c13.7966,-10.61826 28.21605,-15.30469 32.2067,-10.46742c3.99067,4.83726 -3.95863,17.36643 -17.75525,27.98468c-13.7966,10.61826 -28.21605,15.30469 -32.2067,10.46742c-3.99067,-4.83726 3.95863,-17.36643 17.75525,-27.98468z"/></g><g data-paper-data="{&quot;index&quot;:null}" fill="#3cea00" stroke="#3cea00" stroke-width="0.5" stroke-linecap="butt"><path d="M186.34265,93.30857c9.05494,-11.6833 31.04032,-10.57759 49.10572,2.46963c18.0654,13.04724 25.36981,33.09531 16.31486,44.77861c-9.05494,11.6833 -31.04032,10.57759 -49.10572,-2.46963c-18.0654,-13.04724 -25.36981,-33.09531 -16.31486,-44.77861z"/><path d="M168.7941,68.63619c5.76225,-7.43483 23.70539,-3.87664 40.07716,7.94742c16.37177,11.82407 24.9725,27.43648 19.21025,34.8713c-5.76225,7.43483 -23.70539,3.87665 -40.07716,-7.94741c-16.37177,-11.82407 -24.9725,-27.43649 -19.21025,-34.8713z"/><path d="M150.77726,46.62521c3.8415,-4.95655 18.39696,-0.71145 32.51055,9.48171c14.11359,10.19316 22.44078,22.47442 18.59929,27.43097c-3.8415,4.95655 -18.39696,0.71145 -32.51055,-9.48171c-14.11359,-10.19316 -22.44078,-22.47442 -18.59929,-27.43097z"/></g><path d="M240.03398,229.05693c-28.74189,0.43777 -52.39668,-22.50726 -52.83445,-51.24915c-0.43777,-28.74189 22.50726,-52.39668 51.24915,-52.83445c28.74189,-0.43777 52.39668,22.50726 52.83445,51.24915c0.43777,28.74189 -22.50726,52.39668 -51.24915,52.83445z" fill="#3cea00" stroke="none" stroke-width="0" stroke-linecap="butt"/><path d="M268.82816,152.89916l69.8942,26.49875l-66.02996,20.89902z" fill="#3cea00" stroke="#3cea00" stroke-width="0.5" stroke-linecap="round"/><path d="M238.84435,209.58147c-6.88608,0.10488 -12.55337,-5.39237 -12.65825,-12.27844c-0.10488,-6.88608 5.39237,-12.55337 12.27844,-12.65825c6.88608,-0.10488 12.55337,5.39237 12.65825,12.27844c0.10488,6.88608 -5.39237,12.55337 -12.27844,12.65825z" fill="#000000" stroke="none" stroke-width="0" stroke-linecap="butt"/><path d="M238.63988,171.24928c-6.88608,0.10488 -12.55337,-5.39237 -12.65825,-12.27844c-0.10488,-6.88608 5.39237,-12.55337 12.27844,-12.65825c6.88608,-0.10488 12.55337,5.39237 12.65825,12.27844c0.10488,6.88608 -5.39237,12.55337 -12.27844,12.65825z" fill="#000000" stroke="none" stroke-width="0" stroke-linecap="butt"/><path d="M196.96223,204.8347l-12.31271,2.08028l9.09455,-9.34217z" fill="#3cea00" stroke="#3cea00" stroke-width="0.5" stroke-linecap="round"/><path d="M194.27005,157.02042l-9.37485,-9.06085l12.37035,1.70433z" data-paper-data="{&quot;index&quot;:null}" fill="#3cea00" stroke="#3cea00" stroke-width="0.5" stroke-linecap="round"/><path d="M205.65458,179.76235l12.00442,-39.28123l19.44682,39.16437l-19.95847,35.73532z" fill="#3cea00" stroke="#3cea00" stroke-width="0.5" stroke-linecap="round"/></g></g></svg>