<svg version="1.1" xmlns="http://www.w3.org/2000/svg" xmlns:xlink="http://www.w3.org/1999/xlink" width="609.51932" height="609.35511" viewBox="0,0,609.51932,609.35511"><g transform="translate(64.75966,124.67754)"><g data-paper-data="{&quot;isPaintingLayer&quot;:true}" fill="#3cea00" fill-rule="nonzero" stroke="none" stroke-width="0" stroke-linecap="butt" stroke-linejoin="miter" stroke-miterlimit="10" stroke-dasharray="" stroke-dashoffset="0" style="mix-blend-mode: normal"><g><path d="M230.5,484.67757v-299.3551h18v299.3551z"/><path d="M510.70503,429.23214l-556.24701,-485.54868l11.83695,-13.56048l556.24701,485.54868z" data-paper-data="{&quot;index&quot;:null}"/><path d="M544.75966,186.5109l-299.34029,2.97733l-0.17902,-17.99911l299.3403,-2.97733z"/><path d="M234.75966,188.7609l-299.3403,2.97733l-0.17902,-17.99911l299.3403,-2.97733z"/><path d="M230.25,174.67758v-299.35511h18v299.35511z"/><path d="M-46.54199,416.17166l556.24702,-485.54868l11.83696,13.56048l-556.24702,485.54868z"/><path d="M210,180.00001c0,-16.56853 13.43147,-30 30,-30c16.56853,0 30,13.43147 30,30c0,16.56853 -13.43147,30 -30,30c-16.56853,0 -30,-13.43147 -30,-30z"/></g></g></g></svg>