<svg version="1.1" xmlns="http://www.w3.org/2000/svg" xmlns:xlink="http://www.w3.org/1999/xlink" width="460.12352" height="331.82133" viewBox="0,0,460.12352,331.82133"><g transform="translate(104.20695,112.39327)"><g data-paper-data="{&quot;isPaintingLayer&quot;:true}" fill-rule="nonzero" stroke-linejoin="miter" stroke-miterlimit="10" stroke-dasharray="" stroke-dashoffset="0" style="mix-blend-mode: normal"><path d="M283.12978,153.72372l-118.61862,57.05706" fill="none" stroke="#2bb100" stroke-width="1.5" stroke-linecap="round"/><path d="M249.52991,210.78078l103.6036,-57.05706" fill="none" stroke="#2bb100" stroke-width="1.5" stroke-linecap="round"/><path d="M165.22603,123.28195l-33.54908,15.12071" fill="none" stroke="#2bb100" stroke-width="1.5" stroke-linecap="round"/><path d="M200.66521,140.76527l32.13152,-16.06576" fill="none" stroke="#2bb100" stroke-width="1.5" stroke-linecap="round"/><path d="M294.22462,126.11708l-29.7689,13.70315" fill="none" stroke="#2bb100" stroke-width="1.5" stroke-linecap="round"/><path d="M351.67554,126.5896l-22.68107,13.70315" fill="none" stroke="#2bb100" stroke-width="1.5" stroke-linecap="round"/><text transform="translate(119.04446,135.70706) scale(0.31165,0.31165)" font-size="40" xml:space="preserve" fill="#ffffff" fill-rule="nonzero" stroke="none" stroke-width="1" stroke-linecap="butt" stroke-linejoin="miter" stroke-miterlimit="10" stroke-dasharray="" stroke-dashoffset="0" font-family="Pixel" font-weight="normal" text-anchor="start" style="mix-blend-mode: normal"><tspan x="0" dy="0">Comment if you want another boss!</tspan></text><path d="M257.14853,86.42521l-37.32926,20.79098" fill="none" stroke="#2bb100" stroke-width="1.5" stroke-linecap="round"/><path d="M329.44444,85.48016l-46.30718,22.20855" fill="none" stroke="#2bb100" stroke-width="1.5" stroke-linecap="round"/><text transform="translate(204.92673,104.85339) scale(0.45159,0.45159)" font-size="40" xml:space="preserve" fill="#ffffff" fill-rule="nonzero" stroke="none" stroke-width="1" stroke-linecap="butt" stroke-linejoin="miter" stroke-miterlimit="10" stroke-dasharray="" stroke-dashoffset="0" font-family="Pixel" font-weight="normal" text-anchor="start" style="mix-blend-mode: normal"><tspan x="0" dy="0">Space to DASH</tspan></text><path d="M311.48859,32.42017l35.91169,-31.18647" fill="none" stroke="#2bb100" stroke-width="1.5" stroke-linecap="round"/><text transform="translate(305.64915,26.49003) scale(0.72186,0.72186)" font-size="40" xml:space="preserve" fill="#ffffff" fill-rule="nonzero" stroke="none" stroke-width="1" stroke-linecap="butt" stroke-linejoin="miter" stroke-miterlimit="10" stroke-dasharray="" stroke-dashoffset="0" font-family="Pixel" font-weight="normal" text-anchor="start" style="mix-blend-mode: normal"><tspan x="0" dy="0">#3</tspan></text><text transform="translate(177.80769,202.70763) scale(1.45395,1.45395)" font-size="40" xml:space="preserve" fill="#ffffff" fill-rule="nonzero" stroke="#ffffff" stroke-width="3" stroke-linecap="butt" stroke-linejoin="miter" stroke-miterlimit="10" stroke-dasharray="" stroke-dashoffset="0" font-family="Pixel" font-weight="normal" text-anchor="start" style="mix-blend-mode: normal"><tspan x="0" dy="0">Flight</tspan></text><text transform="translate(-101.491,-46.20613) scale(0.61886,0.61886)" font-size="40" xml:space="preserve" fill="#ffffff" fill-rule="nonzero" stroke="#ffffff" stroke-width="1" stroke-linecap="butt" stroke-linejoin="miter" stroke-miterlimit="10" stroke-dasharray="" stroke-dashoffset="0" font-family="Pixel" font-weight="normal" text-anchor="start" style="mix-blend-mode: normal"><tspan x="0" dy="0">Pro</tspan></text><path d="M-104.20695,-96.6275c0,-8.70719 7.05857,-15.76577 15.76577,-15.76577c8.70719,0 15.76577,7.05857 15.76577,15.76577c0,8.70719 -7.05857,15.76577 -15.76577,15.76577c-8.70719,0 -15.76577,-7.05857 -15.76577,-15.76577z" fill="#30ef00" stroke="none" stroke-width="0" stroke-linecap="butt"/><path d="M-66.17392,-96.132c0,-8.70719 7.05858,-15.76577 15.76576,-15.76577c8.70719,0 15.76576,7.05858 15.76576,15.76577c0,8.70719 -7.05857,15.76577 -15.76576,15.76577c-8.70719,0 -15.76576,-7.05858 -15.76576,-15.76577z" fill="#30ef00" stroke="none" stroke-width="0" stroke-linecap="butt"/><path d="M-26.63938,-95.63652c0,-8.70719 7.05857,-15.76577 15.76576,-15.76577c8.70719,0 15.76577,7.05858 15.76577,15.76577c0,8.70719 -7.05858,15.76577 -15.76577,15.76577c-8.70719,0 -15.76576,-7.05858 -15.76576,-15.76577z" fill="#30ef00" stroke="none" stroke-width="0" stroke-linecap="butt"/><path d="M12.39966,-95.63652c0,-8.70719 7.05857,-15.76577 15.76576,-15.76577c8.70719,0 15.76577,7.05858 15.76577,15.76577c0,8.70719 -7.05858,15.76577 -15.76577,15.76577c-8.70719,0 -15.76576,-7.05858 -15.76576,-15.76577z" fill="#1e7800" stroke="none" stroke-width="0" stroke-linecap="butt"/><path d="M50.43269,-95.14102c0,-8.70719 7.05857,-15.76577 15.76577,-15.76577c8.70719,0 15.76577,7.05858 15.76577,15.76577c0,8.70719 -7.05858,15.76577 -15.76577,15.76577c-8.70719,0 -15.76577,-7.05858 -15.76577,-15.76577z" fill="#1e7800" stroke="none" stroke-width="0" stroke-linecap="butt"/></g></g></svg>