<svg version="1.1" xmlns="http://www.w3.org/2000/svg" xmlns:xlink="http://www.w3.org/1999/xlink" width="895.01243" height="236.64964" viewBox="0,0,895.01243,236.64964"><g transform="translate(-156.04265,-61.67518)"><g data-paper-data="{&quot;isPaintingLayer&quot;:true}" fill-rule="nonzero" stroke-linejoin="miter" stroke-miterlimit="10" stroke-dasharray="" stroke-dashoffset="0" style="mix-blend-mode: normal"><path d="M308.20697,194.26426v-30.03003h742.84811v30.03003z" fill="#208000" stroke="none" stroke-width="0" stroke-linecap="butt"/><g fill="#3cea00" stroke="#3cea00" stroke-width="0.5" stroke-linecap="butt"><path d="M200.10681,215.07896c15.44352,-11.88576 34.63154,-13.43779 42.85766,-3.46655c8.22611,9.97124 2.37525,27.68984 -13.06827,39.5756c-15.44352,11.88576 -34.63154,13.43779 -42.85766,3.46655c-8.22611,-9.97124 -2.37525,-27.68984 13.06827,-39.5756z"/><path d="M188.21941,245.6954c13.99569,-10.77147 29.58508,-14.35956 34.81988,-8.01424c5.2348,6.34533 -1.8673,20.22124 -15.86299,30.99272c-13.99569,10.77147 -29.58508,14.35956 -34.81988,8.01424c-5.2348,-6.34533 1.8673,-20.22124 15.86299,-30.99272z"/><path d="M172.72117,271.93498c12.06524,-9.28575 24.67516,-13.38407 28.16502,-9.15384c3.48987,4.23022 -3.46185,15.18708 -15.52711,24.47283c-12.06524,9.28575 -24.67516,13.38407 -28.16502,9.15384c-3.48987,-4.23022 3.46185,-15.18708 15.52711,-24.47283z"/></g><g data-paper-data="{&quot;index&quot;:null}" fill="#3cea00" stroke="#3cea00" stroke-width="0.5" stroke-linecap="butt"><path d="M190.45007,104.56126c7.91862,-10.21714 27.14501,-9.25019 42.94335,2.15971c15.79834,11.40992 22.1861,28.94211 14.26748,39.15925c-7.91862,10.21714 -27.14501,9.25019 -42.94335,-2.15971c-15.79834,-11.40992 -22.1861,-28.94211 -14.26748,-39.15925z"/><path d="M175.10372,82.98507c5.03913,-6.50182 20.73055,-3.39015 35.0478,6.95008c14.31724,10.34024 21.83865,23.99342 16.79952,30.49523c-5.03913,6.50182 -20.73055,3.39016 -35.0478,-6.95007c-14.31724,-10.34024 -21.83865,-23.99343 -16.79952,-30.49523z"/><path d="M159.34785,63.73629c3.35942,-4.33454 16.08829,-0.62217 28.43074,8.29183c12.34245,8.914 19.62464,19.65406 16.26523,23.9886c-3.35942,4.33454 -16.08829,0.62217 -28.43074,-8.29183c-12.34245,-8.914 -19.62464,-19.65406 -16.26523,-23.9886z"/></g><path d="M237.40357,223.27429c-25.13501,0.38283 -45.82132,-19.68278 -46.20415,-44.81779c-0.38283,-25.13501 19.68278,-45.82132 44.81779,-46.20415c25.13501,-0.38283 45.82132,19.68278 46.20415,44.81779c0.38283,25.13501 -19.68278,45.82132 -44.81779,46.20415z" fill="#3cea00" stroke="none" stroke-width="0" stroke-linecap="butt"/><path d="M262.58431,156.67371l61.12304,23.17337l-57.74373,18.27636z" fill="#3cea00" stroke="#3cea00" stroke-width="0.5" stroke-linecap="round"/><path d="M236.36323,206.24285c-6.02193,0.09172 -10.97802,-4.71567 -11.06974,-10.73759c-0.09172,-6.02193 4.71567,-10.97802 10.73759,-11.06974c6.02193,-0.09172 10.97802,4.71567 11.06974,10.73759c0.09172,6.02193 -4.71567,10.97802 -10.73759,11.06974z" fill="#000000" stroke="none" stroke-width="0" stroke-linecap="butt"/><path d="M236.18442,172.72104c-6.02193,0.09172 -10.97802,-4.71567 -11.06974,-10.73759c-0.09172,-6.02193 4.71567,-10.97802 10.73759,-11.06974c6.02193,-0.09172 10.97802,4.71567 11.06974,10.73759c0.09172,6.02193 -4.71567,10.97802 -10.73759,11.06974z" fill="#000000" stroke="none" stroke-width="0" stroke-linecap="butt"/><path d="M199.73698,202.09176l-10.76756,1.81922l7.95326,-8.1698z" fill="#3cea00" stroke="#3cea00" stroke-width="0.5" stroke-linecap="round"/><path d="M197.38265,160.27779l-8.19838,-7.92379l10.81797,1.49045z" data-paper-data="{&quot;index&quot;:null}" fill="#3cea00" stroke="#3cea00" stroke-width="0.5" stroke-linecap="round"/><path d="M207.33851,180.16579l10.49796,-34.35175l17.0064,34.24956l-17.45384,31.25082z" fill="#3cea00" stroke="#3cea00" stroke-width="0.5" stroke-linecap="round"/></g></g></svg>