<svg version="1.1" xmlns="http://www.w3.org/2000/svg" xmlns:xlink="http://www.w3.org/1999/xlink" width="72.83295" height="105.63279" viewBox="0,0,72.83295,105.63279"><g transform="translate(-203.58352,-127.1836)"><g data-paper-data="{&quot;isPaintingLayer&quot;:true}" fill="#005eff" fill-rule="nonzero" stroke="#005eff" stroke-width="0.5" stroke-linecap="butt" stroke-linejoin="miter" stroke-miterlimit="10" stroke-dasharray="" stroke-dashoffset="0" style="mix-blend-mode: normal"><path d="M221.41437,141.675c9.58835,0.05417 17.26356,17.38882 17.14306,38.71801c-0.1205,21.3292 -7.99109,38.57601 -17.57945,38.52184c-9.58835,-0.05417 -17.26356,-17.38882 -17.14306,-38.71801c0.1205,-21.3292 7.99109,-38.57601 17.57945,-38.52184z"/><path d="M240.8858,129.63035c16.97455,-4.69376 32.63765,-1.61851 34.98453,6.86877c2.34688,8.48727 -9.51119,19.17261 -26.48573,23.86637c-16.97455,4.69376 -32.63765,1.61851 -34.98453,-6.86877c-2.34688,-8.48727 9.51119,-19.17261 26.48573,-23.86637z"/><path d="M212.95665,206.02887c2.44262,-8.46021 18.13948,-11.35829 35.05991,-6.47303c16.92043,4.88526 28.65699,15.70389 26.21437,24.1641c-2.44262,8.46021 -18.13948,11.35829 -35.05991,6.47303c-16.92043,-4.88526 -28.65699,-15.70389 -26.21437,-24.1641z" data-paper-data="{&quot;index&quot;:null}"/></g></g></svg>