<svg version="1.1" xmlns="http://www.w3.org/2000/svg" xmlns:xlink="http://www.w3.org/1999/xlink" width="460.18568" height="326.52829" viewBox="0,0,460.18568,326.52829"><g transform="translate(106.07732,108.37124)"><g data-paper-data="{&quot;isPaintingLayer&quot;:true}" fill-rule="nonzero" stroke-linejoin="miter" stroke-miterlimit="10" stroke-dasharray="" stroke-dashoffset="0" style="mix-blend-mode: normal"><path d="M244.68465,153.72371l-118.61862,57.05706" fill="none" stroke="#3700d4" stroke-width="1.5" stroke-linecap="round"/><path d="M336.86827,153.72371l-103.6036,57.05706" fill="none" stroke="#3700d4" stroke-width="1.5" stroke-linecap="round"/><text transform="translate(86.67581,202.18056) scale(1.38926,1.38926)" font-size="40" xml:space="preserve" fill="#ffffff" fill-rule="nonzero" stroke="#ffffff" stroke-width="3" stroke-linecap="butt" stroke-linejoin="miter" stroke-miterlimit="10" stroke-dasharray="" stroke-dashoffset="0" font-family="Pixel" font-weight="normal" text-anchor="start" style="mix-blend-mode: normal"><tspan x="0" dy="0">Invincible</tspan></text><path d="M131.67695,138.40265l33.54908,-15.12071" fill="none" stroke="#3700d4" stroke-width="1.5" stroke-linecap="round"/><path d="M232.79673,124.6995l-32.13152,16.06576" fill="none" stroke="#3700d4" stroke-width="1.5" stroke-linecap="round"/><path d="M264.45572,139.82023l29.7689,-13.70315" fill="none" stroke="#3700d4" stroke-width="1.5" stroke-linecap="round"/><path d="M328.99447,140.29275l22.68107,-13.70315" fill="none" stroke="#3700d4" stroke-width="1.5" stroke-linecap="round"/><text transform="translate(119.04446,136.44639) scale(0.31165,0.31165)" font-size="40" xml:space="preserve" fill="#ffffff" fill-rule="nonzero" stroke="none" stroke-width="1" stroke-linecap="butt" stroke-linejoin="miter" stroke-miterlimit="10" stroke-dasharray="" stroke-dashoffset="0" font-family="Pixel" font-weight="normal" text-anchor="start" style="mix-blend-mode: normal"><tspan x="0" dy="0">Comment if you want another boss!</tspan></text><path d="M219.81927,107.21619l37.32926,-20.79098" fill="none" stroke="#3700d4" stroke-width="1.5" stroke-linecap="round"/><path d="M283.13726,107.68871l46.30718,-22.20855" fill="none" stroke="#3700d4" stroke-width="1.5" stroke-linecap="round"/><text transform="translate(204.92673,104.85339) scale(0.45159,0.45159)" font-size="40" xml:space="preserve" fill="#ffffff" fill-rule="nonzero" stroke="none" stroke-width="1" stroke-linecap="butt" stroke-linejoin="miter" stroke-miterlimit="10" stroke-dasharray="" stroke-dashoffset="0" font-family="Pixel" font-weight="normal" text-anchor="start" style="mix-blend-mode: normal"><tspan x="0" dy="0">Space to DASH</tspan></text><path d="M347.40028,1.23369l-35.91169,31.18647" fill="none" stroke="#3700d4" stroke-width="1.5" stroke-linecap="round"/><text transform="translate(305.64915,26.49002) scale(0.72186,0.72186)" font-size="40" xml:space="preserve" fill="#ffffff" fill-rule="nonzero" stroke="none" stroke-width="1" stroke-linecap="butt" stroke-linejoin="miter" stroke-miterlimit="10" stroke-dasharray="" stroke-dashoffset="0" font-family="Pixel" font-weight="normal" text-anchor="start" style="mix-blend-mode: normal"><tspan x="0" dy="0">#2</tspan></text><text transform="translate(-103.36137,-42.1841) scale(0.61886,0.61886)" font-size="40" xml:space="preserve" fill="#ffffff" fill-rule="nonzero" stroke="#ffffff" stroke-width="1" stroke-linecap="butt" stroke-linejoin="miter" stroke-miterlimit="10" stroke-dasharray="" stroke-dashoffset="0" font-family="Pixel" font-weight="normal" text-anchor="start" style="mix-blend-mode: normal"><tspan x="0" dy="0">Pro</tspan></text><path d="M-106.07732,-92.60547c0,-8.70719 7.05857,-15.76577 15.76577,-15.76577c8.70719,0 15.76577,7.05857 15.76577,15.76577c0,8.70719 -7.05857,15.76577 -15.76577,15.76577c-8.70719,0 -15.76577,-7.05857 -15.76577,-15.76577z" fill="#0076ff" stroke="none" stroke-width="0" stroke-linecap="butt"/><path d="M-68.04429,-92.10997c0,-8.70719 7.05858,-15.76577 15.76576,-15.76577c8.70719,0 15.76576,7.05858 15.76576,15.76577c0,8.70719 -7.05857,15.76577 -15.76576,15.76577c-8.70719,0 -15.76576,-7.05858 -15.76576,-15.76577z" fill="#0076ff" stroke="none" stroke-width="0" stroke-linecap="butt"/><path d="M-28.50975,-91.61449c0,-8.70719 7.05857,-15.76577 15.76576,-15.76577c8.70719,0 15.76577,7.05858 15.76577,15.76577c0,8.70719 -7.05858,15.76577 -15.76577,15.76577c-8.70719,0 -15.76576,-7.05858 -15.76576,-15.76577z" fill="#0076ff" stroke="none" stroke-width="0" stroke-linecap="butt"/><path d="M10.52929,-91.61449c0,-8.70719 7.05857,-15.76577 15.76576,-15.76577c8.70719,0 15.76577,7.05858 15.76577,15.76577c0,8.70719 -7.05858,15.76577 -15.76577,15.76577c-8.70719,0 -15.76576,-7.05858 -15.76576,-15.76577z" fill="#002f80" stroke="none" stroke-width="0" stroke-linecap="butt"/><path d="M48.56232,-91.11899c0,-8.70719 7.05857,-15.76577 15.76577,-15.76577c8.70719,0 15.76577,7.05858 15.76577,15.76577c0,8.70719 -7.05858,15.76577 -15.76577,15.76577c-8.70719,0 -15.76577,-7.05858 -15.76577,-15.76577z" fill="#002f80" stroke="none" stroke-width="0" stroke-linecap="butt"/></g></g></svg>