<svg version="1.1" xmlns="http://www.w3.org/2000/svg" xmlns:xlink="http://www.w3.org/1999/xlink" width="101.76947" height="118.23656" viewBox="0,0,101.76947,118.23656"><g transform="translate(-192,-109.76345)"><g data-paper-data="{&quot;isPaintingLayer&quot;:true}" fill-rule="nonzero" stroke-linejoin="miter" stroke-miterlimit="10" stroke-dasharray="" stroke-dashoffset="0" style="mix-blend-mode: normal"><g><path d="M192,180c0,-26.50967 21.49033,-48 48,-48c26.50967,0 48,21.49033 48,48c0,26.50967 -21.49033,48 -48,48c-26.50967,0 -48,-21.49033 -48,-48z" fill="#005eff" stroke="none" stroke-width="NaN" stroke-linecap="butt"/><path d="M231.16667,174.39295c0,9.48089 -2.61167,17.16667 -5.83333,17.16667c-3.22166,0 -5.83333,-7.68578 -5.83333,-17.16667c0,-9.48089 2.61167,-17.16667 5.83333,-17.16667c3.22166,0 5.83333,7.68578 5.83333,17.16667z" fill="#000000" stroke="none" stroke-width="0" stroke-linecap="butt"/><path d="M261.83333,174.55962c0,9.48089 -2.61167,17.16666 -5.83334,17.16666c-3.22166,0 -5.83333,-7.68578 -5.83333,-17.16666c0,-9.48089 2.61167,-17.16667 5.83333,-17.16667c3.22166,0 5.83334,7.68578 5.83334,17.16667z" fill="#000000" stroke="none" stroke-width="0" stroke-linecap="butt"/><path d="M228.61111,180.47629c0,6.25923 -1.39289,11.33333 -3.11111,11.33333c-1.71822,0 -3.11111,-5.07411 -3.11111,-11.33333c0,-6.25923 1.39289,-11.33333 3.11111,-11.33333c1.71822,0 3.11111,5.07411 3.11111,11.33333z" fill="#006bff" stroke="#006bff" stroke-width="0.5" stroke-linecap="butt"/><path d="M259.11111,180.30962c0,6.25922 -1.39289,11.33334 -3.11111,11.33334c-1.71822,0 -3.11111,-5.07411 -3.11111,-11.33334c0,-6.25922 1.39289,-11.33333 3.11111,-11.33333c1.71822,0 3.11111,5.07411 3.11111,11.33333z" fill="#006bff" stroke="#006bff" stroke-width="0.5" stroke-linecap="butt"/><g fill="#0055cc" stroke="none" stroke-width="0" stroke-linecap="butt"><path d="M246.47925,134.8585c0,-6.41992 5.20437,-11.62429 11.62429,-11.62429c6.41992,0 11.62429,5.20437 11.62429,11.62429c0,6.41992 -5.20437,11.62429 -11.62429,11.62429c-6.41992,0 -11.62429,-5.20437 -11.62429,-11.62429z"/><path d="M231.39363,110.25168c2.46958,-1.85405 9.85771,1.73458 16.50183,8.01544c6.64412,6.28087 10.02825,12.87553 7.55867,14.72958c-2.46959,1.85406 -9.85771,-1.73458 -16.50183,-8.01544c-6.64412,-6.28087 -10.02825,-12.87553 -7.55867,-14.72958z" data-paper-data="{&quot;index&quot;:null}"/><path d="M223.08256,127.78628c1.03316,-2.91014 9.17364,-4.00344 18.18227,-2.44193c9.00863,1.56151 15.47402,5.18651 14.44086,8.09665c-1.03316,2.91015 -9.17364,4.00344 -18.18227,2.44193c-9.00863,-1.56151 -15.47402,-5.18651 -14.44086,-8.09665z" data-paper-data="{&quot;index&quot;:null}"/><path d="M285.34997,159.35507c-2.46959,1.85405 -9.85771,-1.73458 -16.50183,-8.01545c-6.64412,-6.28087 -10.02825,-12.87553 -7.55867,-14.72958c2.46959,-1.85406 9.85771,1.73458 16.50183,8.01545c6.64412,6.28087 10.02825,12.87553 7.55867,14.72958z" data-paper-data="{&quot;index&quot;:null}"/><path d="M293.66103,141.82047c-1.03317,2.91014 -9.17364,4.00344 -18.18227,2.44193c-9.00863,-1.56151 -15.47402,-5.18651 -14.44085,-8.09665c1.03316,-2.91015 9.17363,-4.00344 18.18226,-2.44193c9.00863,1.56151 15.47402,5.18651 14.44086,8.09665z" data-paper-data="{&quot;index&quot;:null}"/></g><path d="M221.83334,150.22628l28,1l14.33333,8l-22,20.66667l-22.66667,-18z" fill="#005eff" stroke="#005eff" stroke-width="0.5" stroke-linecap="round"/></g></g></g></svg>