<svg version="1.1" xmlns="http://www.w3.org/2000/svg" xmlns:xlink="http://www.w3.org/1999/xlink" width="105.78154" height="118.08813" viewBox="0,0,105.78154,118.08813"><g transform="translate(-192,-109.91187)"><g data-paper-data="{&quot;isPaintingLayer&quot;:true}" fill-rule="nonzero" stroke-linejoin="miter" stroke-miterlimit="10" stroke-dasharray="" stroke-dashoffset="0" style="mix-blend-mode: normal"><path d="M192,180c0,-26.50967 21.49033,-48 48,-48c26.50967,0 48,21.49033 48,48c0,26.50967 -21.49033,48 -48,48c-26.50967,0 -48,-21.49033 -48,-48z" fill="#005eff" stroke="none" stroke-width="NaN" stroke-linecap="butt"/><path d="M231.16667,171.89295c0,10.8616 -2.61167,19.66667 -5.83333,19.66667c-3.22166,0 -5.83333,-8.80507 -5.83333,-19.66667c0,-10.8616 2.61167,-19.66667 5.83333,-19.66667c3.22166,0 5.83333,8.80507 5.83333,19.66667z" fill="#000000" stroke="none" stroke-width="0" stroke-linecap="butt"/><path d="M261.83333,171.39296c0,11.22979 -2.61167,20.33333 -5.83334,20.33333c-3.22166,0 -5.83333,-9.10355 -5.83333,-20.33333c0,-11.22979 2.61167,-20.33334 5.83333,-20.33334c3.22166,0 5.83334,9.10355 5.83334,20.33334z" fill="#000000" stroke="none" stroke-width="0" stroke-linecap="butt"/><path d="M258.13725,173.44058c0,3.93831 -0.87641,7.13096 -1.95752,7.13096c-1.08111,0 -1.95752,-3.19264 -1.95752,-7.13096c0,-3.93831 0.87641,-7.13095 1.95752,-7.13095c1.08111,0 1.95752,3.19264 1.95752,7.13095z" fill="#006bff" stroke="#006bff" stroke-width="0.5" stroke-linecap="butt"/><g fill="#0055cc" stroke="none" stroke-width="0" stroke-linecap="butt"><path d="M251.93641,136.75745c0.95393,-6.34865 6.87385,-10.72193 13.2225,-9.768c6.34865,0.95393 10.72193,6.87385 9.768,13.2225c-0.95393,6.34865 -6.87385,10.72193 -13.2225,9.768c-6.34865,-0.95393 -10.72193,-6.87385 -9.768,-13.2225z"/><path d="M240.67458,110.18222c2.71766,-1.46651 9.49054,3.18008 15.12763,10.37846c5.63709,7.19839 8.00375,14.22269 5.2861,15.68921c-2.71767,1.46652 -9.49054,-3.18008 -15.12763,-10.37846c-5.63709,-7.19839 -8.00375,-14.22269 -5.2861,-15.68921z" data-paper-data="{&quot;index&quot;:null}"/><path d="M229.85031,126.28723c1.45411,-2.72432 9.66667,-2.59589 18.34327,0.28688c8.6766,2.88277 14.53158,7.42822 13.07747,10.15253c-1.45411,2.72433 -9.66667,2.59589 -18.34327,-0.28688c-8.6766,-2.88277 -14.53158,-7.42822 -13.07747,-10.15253z" data-paper-data="{&quot;index&quot;:null}"/><path d="M286.73568,166.75787c-2.71767,1.46651 -9.49054,-3.18008 -15.12763,-10.37847c-5.63709,-7.19839 -8.00375,-14.22269 -5.2861,-15.68921c2.71767,-1.46652 9.49054,3.18008 15.12763,10.37847c5.63709,7.19839 8.00375,14.22269 5.2861,15.68921z" data-paper-data="{&quot;index&quot;:null}"/><path d="M297.55995,150.65286c-1.45412,2.72432 -9.66667,2.59589 -18.34327,-0.28688c-8.6766,-2.88277 -14.53158,-7.42822 -13.07746,-10.15253c1.45411,-2.72433 9.66666,-2.59589 18.34326,0.28688c8.6766,2.88277 14.53158,7.42822 13.07747,10.15253z" data-paper-data="{&quot;index&quot;:null}"/></g><path d="M227.47059,172.77391c0,3.93831 -0.87641,7.13096 -1.95752,7.13096c-1.08111,0 -1.95752,-3.19263 -1.95752,-7.13095c0,-3.93831 0.87641,-7.13095 1.95752,-7.13095c1.0811,0 1.95752,3.19264 1.95752,7.13095z" fill="#006bff" stroke="#006bff" stroke-width="0.5" stroke-linecap="butt"/><path d="M204.83333,171.22628l4,16.33333" fill="none" stroke="#000000" stroke-width="0.5" stroke-linecap="round"/><path d="M210.16667,170.22628l4.33333,16.66667" fill="none" stroke="#000000" stroke-width="0.5" stroke-linecap="round"/><path d="M199.83333,176.55962l14,-4.66667" fill="none" stroke="#000000" stroke-width="0.5" stroke-linecap="round"/><path d="M203.16667,184.22628l13.33333,-5" fill="none" stroke="#000000" stroke-width="0.5" stroke-linecap="round"/><path d="M236.83333,204.55962l-9,14.33333" fill="none" stroke="#000000" stroke-width="0.5" stroke-linecap="round"/><path d="M230.16667,202.89295l-7,11.33333" fill="none" stroke="#000000" stroke-width="0.5" stroke-linecap="round"/><path d="M224.83333,202.22628l14,12" fill="none" stroke="#000000" stroke-width="0.5" stroke-linecap="round"/><path d="M221.83333,208.55962l13.66667,8.33333" fill="none" stroke="#000000" stroke-width="0.5" stroke-linecap="round"/><path d="M230.83333,144.89295l12.66667,-6.33333" fill="none" stroke="#000000" stroke-width="0.5" stroke-linecap="round"/><path d="M233.83333,148.22628l10.66667,-6.33333" fill="none" stroke="#000000" stroke-width="0.5" stroke-linecap="round"/><path d="M255.5,200.89295l11.66667,5" fill="none" stroke="#000000" stroke-width="0.5" stroke-linecap="round"/><path d="M261.83333,198.55962l-6,7.33333" fill="none" stroke="#000000" stroke-width="0.5" stroke-linecap="round"/><path d="M264.5,201.89295l-7.33333,5.66667" fill="none" stroke="#000000" stroke-width="0.5" stroke-linecap="round"/><path d="M229.5,140.22628l15.66667,7.33333" fill="none" stroke="#000000" stroke-width="0.5" stroke-linecap="round"/><path d="M280.16667,176.55962l-9.33333,10.66667" fill="none" stroke="#000000" stroke-width="0.5" stroke-linecap="round"/><path d="M273.83333,174.22628l4,12" fill="none" stroke="#000000" stroke-width="0.5" stroke-linecap="round"/><path d="M270.5,183.89295l12,-5.66667" fill="none" stroke="#000000" stroke-width="0.5" stroke-linecap="round"/><path d="M242.83333,169.55962l-3.33333,8" fill="none" stroke="#000000" stroke-width="0.5" stroke-linecap="round"/><path d="M248.16667,172.55962l-6,5.66667" fill="none" stroke="#000000" stroke-width="0.5" stroke-linecap="round"/><path d="M240.16667,169.55962l7,9" fill="none" stroke="#000000" stroke-width="0.5" stroke-linecap="round"/></g></g></svg>