<svg version="1.1" xmlns="http://www.w3.org/2000/svg" xmlns:xlink="http://www.w3.org/1999/xlink" width="254.18232" height="189.80622" viewBox="0,0,254.18232,189.80622"><g transform="translate(-77.76212,-84.12217)"><g data-paper-data="{&quot;isPaintingLayer&quot;:true}" fill="none" fill-rule="nonzero" stroke="#13c110" stroke-width="3" stroke-linecap="round" stroke-linejoin="miter" stroke-miterlimit="10" stroke-dasharray="" stroke-dashoffset="0" style="mix-blend-mode: normal"><path d="M235.87545,272.42839l17.95847,-5.57859l-25.85308,-1.76796l28.36139,-9.0095l-20.38154,-1.19351l25.53446,-9.9372l-48.14994,2.51557l40.07981,-11.88005l-57.40606,3.75193l47.83131,-14.22073l-82.34752,8.38871l89.96273,-21.15361l-105.19135,8.8294l119.60039,-21.19646l-100.08445,6.84196l147.00414,-27.46744l-114.6298,8.78481l112.80654,-21.5943l-139.2066,15.98349l113.58188,-25.61377l-142.9912,17.7943l118.87109,-26.32026l-131.09046,16.2047l174.40788,-33.73841l-181.70267,20.35447l190.27553,-35.85788l-218.72719,25.2999l221.82851,-41.37778l-238.19711,30.51114l252.42383,-44.15915"/></g></g></svg>