<svg version="1.1" xmlns="http://www.w3.org/2000/svg" xmlns:xlink="http://www.w3.org/1999/xlink" width="227.05944" height="187.9256" viewBox="0,0,227.05944,187.9256"><g transform="translate(-99.07958,-91.39584)"><g data-paper-data="{&quot;isPaintingLayer&quot;:true}" fill="none" fill-rule="nonzero" stroke="#13c110" stroke-width="3" stroke-linecap="round" stroke-linejoin="miter" stroke-miterlimit="10" stroke-dasharray="" stroke-dashoffset="0" style="mix-blend-mode: normal"><path d="M100.57958,130.19869l225.23884,-37.32302l-209.23434,45.77858l198.70109,-30.36651l-191.32582,44.60787l170.54624,-25.70114l-158.743,37.68419l156.58215,-22.73384l-114.97687,25.74936l107.7079,-12.34832l-116.54838,28.53873l94.15169,-11.92312l-105.0418,28.50221l102.08028,-18.86688l-84.90514,28.17551l103.38595,-18.38778l-89.43461,26.5833l98.5692,-15.73343l-82.79143,22.91978l81.8804,-8.17749l-71.69427,17.86942l44.41617,-1.53392l-49.35778,14.44041l37.20742,-1.31948l-41.21207,12.70949l24.40703,1.40054l-16.77495,7.51673l26.50765,-0.36321l-21.20292,9.77503l16.74723,-0.34943" data-paper-data="{&quot;index&quot;:null}"/></g></g></svg>