<svg version="1.1" xmlns="http://www.w3.org/2000/svg" xmlns:xlink="http://www.w3.org/1999/xlink" width="374.97108" height="166.93882" viewBox="0,0,374.97108,166.93882"><g transform="translate(47.50767,-84.96019)"><g data-paper-data="{&quot;isPaintingLayer&quot;:true}" fill-rule="nonzero" stroke-width="0.5" stroke-linejoin="miter" stroke-miterlimit="10" stroke-dasharray="" stroke-dashoffset="0" style="mix-blend-mode: normal"><path d="" fill="#ffe800" stroke="none" stroke-linecap="butt"/><path d="" fill="#ffe800" stroke="none" stroke-linecap="butt"/><path d="" fill="#ffe800" stroke="none" stroke-linecap="butt"/><path d="" fill="#ffe800" stroke="none" stroke-linecap="butt"/><path d="" fill="#ffe800" stroke="none" stroke-linecap="butt"/><path d="M249.93083,233.33577l-37.92399,10.52781c-3.63574,0.60989 -26.82298,7.7757 -26.82298,7.7757l-49.70895,-12.77662l11.51966,-30.4494l14.39207,20.1887l13.11479,-23.05877l14.60601,25.37949l14.64165,-25.0268l10.48847,19.76984l26.86156,-14.17335l5.05694,-41.16795l-34.52009,15.4027l-0.98676,-23.875l-34.62953,14.4864l-0.51879,-24.99271l-36.17853,12.15867l9.66583,-29.16938l35.68868,-7.98126l26.76243,12.06184l37.49362,-22.69865l56.32524,12.54862l-22.523,23.63714l40.6664,22.58858l-34.68418,9.84925l38.12391,31.6248c-2.86398,0.2758 -35.07325,-0.37271 -35.07325,-0.37271l4.04803,11.36099c-0.29151,0.02868 -0.583,0.05738 -0.8745,0.08607c-18.13568,1.78586 -45.01074,6.29597 -45.01074,6.29597z" fill="#13c110" stroke="#13c110" stroke-linecap="butt"/><path d="M245.66529,146.19013l-9.20833,11.23281l-30.91306,-4.59892l17.64266,-8.24825l26.10308,-25.48184z" fill="#000000" stroke="#000000" stroke-linecap="round"/><path d="M97.41934,124.85739l36.93475,42.36634l33.67581,-6.5179l4.34527,26.07159l32.58949,-15.20843l7.60421,17.38106l28.24422,2.17263v10.86316l-11.94948,7.60421l-22.81264,-17.38106l-10.86316,21.72633l-24.98528,-19.55369l-4.34527,22.81264l-29.33054,-18.46738l-15.20843,16.29474l-81.65593,1.42355l-32.15426,20.32836l-40.44673,-6.54348l26.65577,-13.23503l21.14215,-13.92288l-31.50317,-8.69053l-27.15791,1.08632l26.07159,-21.72633l23.89896,-5.43158l-42.36634,-16.29474l-10.86316,-27.15791l30.41686,11.94948h20.64001l-17.38106,-24.98528l-23.89896,-8.69053h35.84844l22.81264,11.94948l-3.25895,-29.33054l29.33054,34.76212l31.50317,4.34527z" fill="#13c110" stroke="#13c110" stroke-linecap="round"/></g></g></svg>