<svg version="1.1" xmlns="http://www.w3.org/2000/svg" xmlns:xlink="http://www.w3.org/1999/xlink" width="457.85979" height="324.61597" viewBox="0,0,457.85979,324.61597"><g transform="translate(104.20695,112.39326)"><g data-paper-data="{&quot;isPaintingLayer&quot;:true}" fill-rule="nonzero" stroke-linejoin="miter" stroke-miterlimit="10" stroke-dasharray="" stroke-dashoffset="0" style="mix-blend-mode: normal"><path d="M295.12978,153.72374l-118.61862,57.05706" fill="#066e00" stroke="#026e00" stroke-width="1.5" stroke-linecap="round"/><path d="M245.52991,210.7808l103.6036,-57.05706" fill="none" stroke="#066e00" stroke-width="1.5" stroke-linecap="round"/><path d="M165.22603,123.28197l-33.54908,15.12071" fill="none" stroke="#066e00" stroke-width="1.5" stroke-linecap="round"/><path d="M200.66521,140.76529l32.13152,-16.06576" fill="none" stroke="#066e00" stroke-width="1.5" stroke-linecap="round"/><path d="M294.22462,126.1171l-29.7689,13.70315" fill="none" stroke="#066e00" stroke-width="1.5" stroke-linecap="round"/><path d="M328.99447,140.29278l22.68107,-13.70315" fill="none" stroke="#066e00" stroke-width="1.5" stroke-linecap="round"/><text transform="translate(119.04446,135.70709) scale(0.31165,0.31165)" font-size="40" xml:space="preserve" fill="#ffffff" fill-rule="nonzero" stroke="none" stroke-width="1" stroke-linecap="butt" stroke-linejoin="miter" stroke-miterlimit="10" stroke-dasharray="" stroke-dashoffset="0" font-family="Pixel" font-weight="normal" text-anchor="start" style="mix-blend-mode: normal"><tspan x="0" dy="0">Comment if you want another boss!</tspan></text><path d="M257.14853,86.42523l-37.32926,20.79098" fill="none" stroke="#066e00" stroke-width="1.5" stroke-linecap="round"/><path d="M329.44444,85.48019l-46.30718,22.20855" fill="none" stroke="#066e00" stroke-width="1.5" stroke-linecap="round"/><text transform="translate(204.92673,104.85341) scale(0.45159,0.45159)" font-size="40" xml:space="preserve" fill="#ffffff" fill-rule="nonzero" stroke="none" stroke-width="1" stroke-linecap="butt" stroke-linejoin="miter" stroke-miterlimit="10" stroke-dasharray="" stroke-dashoffset="0" font-family="Pixel" font-weight="normal" text-anchor="start" style="mix-blend-mode: normal"><tspan x="0" dy="0">Space to DASH</tspan></text><path d="M311.48859,32.42016l35.91169,-31.18647" fill="none" stroke="#066e00" stroke-width="1.5" stroke-linecap="round"/><text transform="translate(305.64915,26.49005) scale(0.72186,0.72186)" font-size="40" xml:space="preserve" fill="#ffffff" fill-rule="nonzero" stroke="none" stroke-width="1" stroke-linecap="butt" stroke-linejoin="miter" stroke-miterlimit="10" stroke-dasharray="" stroke-dashoffset="0" font-family="Pixel" font-weight="normal" text-anchor="start" style="mix-blend-mode: normal"><tspan x="0" dy="0">#7</tspan></text><text transform="translate(194.12301,198.63593) scale(1.18146,1.18146)" font-size="40" xml:space="preserve" fill="#ffffff" fill-rule="nonzero" stroke="#ffffff" stroke-width="3" stroke-linecap="butt" stroke-linejoin="miter" stroke-miterlimit="10" stroke-dasharray="" stroke-dashoffset="0" font-family="Pixel" font-weight="normal" text-anchor="start" style="mix-blend-mode: normal"><tspan x="0" dy="0">Hydra</tspan></text><text transform="translate(-101.491,-46.20611) scale(0.61886,0.61886)" font-size="40" xml:space="preserve" fill="#ffffff" fill-rule="nonzero" stroke="#ffffff" stroke-width="1" stroke-linecap="butt" stroke-linejoin="miter" stroke-miterlimit="10" stroke-dasharray="" stroke-dashoffset="0" font-family="Pixel" font-weight="normal" text-anchor="start" style="mix-blend-mode: normal"><tspan x="0" dy="0">Expert</tspan></text><path d="M-104.20695,-96.62748c0,-8.70719 7.05857,-15.76577 15.76577,-15.76577c8.70719,0 15.76577,7.05857 15.76577,15.76577c0,8.70719 -7.05857,15.76577 -15.76577,15.76577c-8.70719,0 -15.76577,-7.05857 -15.76577,-15.76577z" fill="#03af00" stroke="none" stroke-width="0" stroke-linecap="butt"/><path d="M-66.17392,-96.13198c0,-8.70719 7.05858,-15.76577 15.76576,-15.76577c8.70719,0 15.76576,7.05858 15.76576,15.76577c0,8.70719 -7.05857,15.76577 -15.76576,15.76577c-8.70719,0 -15.76576,-7.05858 -15.76576,-15.76577z" fill="#03af00" stroke="none" stroke-width="0" stroke-linecap="butt"/><path d="M-26.63938,-95.6365c0,-8.70719 7.05857,-15.76577 15.76576,-15.76577c8.70719,0 15.76577,7.05858 15.76577,15.76577c0,8.70719 -7.05858,15.76577 -15.76577,15.76577c-8.70719,0 -15.76576,-7.05858 -15.76576,-15.76577z" fill="#03af00" stroke="none" stroke-width="0" stroke-linecap="butt"/><path d="M12.39966,-95.6365c0,-8.70719 7.05857,-15.76577 15.76576,-15.76577c8.70719,0 15.76577,7.05858 15.76577,15.76577c0,8.70719 -7.05858,15.76577 -15.76577,15.76577c-8.70719,0 -15.76576,-7.05858 -15.76576,-15.76577z" fill="#03af00" stroke="none" stroke-width="0" stroke-linecap="butt"/><path d="M50.43269,-95.141c0,-8.70719 7.05857,-15.76577 15.76577,-15.76577c8.70719,0 15.76577,7.05858 15.76577,15.76577c0,8.70719 -7.05858,15.76577 -15.76577,15.76577c-8.70719,0 -15.76577,-7.05858 -15.76577,-15.76577z" fill="#085107" stroke="none" stroke-width="0" stroke-linecap="butt"/></g></g></svg>