<svg version="1.1" xmlns="http://www.w3.org/2000/svg" xmlns:xlink="http://www.w3.org/1999/xlink" width="826.46341" height="136.44783" viewBox="0,0,826.46341,136.44783"><g transform="translate(499,-115.45118)"><g data-paper-data="{&quot;isPaintingLayer&quot;:true}" fill-rule="nonzero" stroke-width="0.5" stroke-linejoin="miter" stroke-miterlimit="10" stroke-dasharray="" stroke-dashoffset="0" style="mix-blend-mode: normal"><path d="" fill="#ffe800" stroke="none" stroke-linecap="butt"/><path d="" fill="#ffe800" stroke="none" stroke-linecap="butt"/><path d="" fill="#ffe800" stroke="none" stroke-linecap="butt"/><path d="" fill="#ffe800" stroke="none" stroke-linecap="butt"/><path d="" fill="#ffe800" stroke="none" stroke-linecap="butt"/><g><path d="M249.93083,233.33576l-37.92399,10.52781c-3.63574,0.60989 -26.82298,7.7757 -26.82298,7.7757l-49.70895,-12.77662l11.51966,-30.4494l14.39207,20.1887l13.11479,-23.05877l14.60601,25.37949l14.64165,-25.0268l10.48847,19.76984l26.86156,-14.17335l5.05694,-41.16795l-34.52009,15.4027l-0.98676,-23.875l-34.62953,14.4864l-0.51879,-24.99271l-36.17853,12.15867l9.66583,-29.16938l35.68868,-7.98126l26.76243,12.06184l37.49362,-22.69865l56.32524,12.54862l-22.523,23.63714l40.6664,22.58858l-34.68418,9.84925l38.12391,31.6248c-2.86398,0.2758 -35.07325,-0.37271 -35.07325,-0.37271l4.04803,11.36099c-0.29151,0.02868 -0.583,0.05738 -0.8745,0.08607c-18.13568,1.78586 -45.01074,6.29597 -45.01074,6.29597z" fill="#13c110" stroke="#13c110" stroke-linecap="butt"/><path d="M245.66529,146.19012l-9.20833,11.23281l-30.91306,-4.59892l17.64266,-8.24825l26.10308,-25.48184z" fill="#000000" stroke="#000000" stroke-linecap="round"/><path d="M-498.75,207.75v-26h751v26z" fill="#13c110" stroke="#13c110" stroke-linecap="butt"/></g></g></g></svg>