<svg version="1.1" xmlns="http://www.w3.org/2000/svg" xmlns:xlink="http://www.w3.org/1999/xlink" width="188.22097" height="127.65687" viewBox="0,0,188.22097,127.65687"><g transform="translate(-145.9569,-116.26191)"><g data-paper-data="{&quot;isPaintingLayer&quot;:true}" fill-rule="nonzero" stroke-width="0.5" stroke-linejoin="miter" stroke-miterlimit="10" stroke-dasharray="" stroke-dashoffset="0" style="mix-blend-mode: normal"><path d="" fill="#ffe800" stroke="none" stroke-linecap="butt"/><path d="" fill="#ffe800" stroke="none" stroke-linecap="butt"/><path d="" fill="#ffe800" stroke="none" stroke-linecap="butt"/><path d="" fill="#ffe800" stroke="none" stroke-linecap="butt"/><path d="" fill="#ffe800" stroke="none" stroke-linecap="butt"/><g><path d="M245.03786,225.32819l-39.14154,-10.59543c-3.56169,-0.95129 -7.15042,-1.7765 -10.77452,-2.4029c0,0 -1.57266,-0.26681 -3.56832,0.0408l-6.98836,-1.15091l-38.23927,-26.05299l24.93664,-29.76851l-5.11392,24.47137l37.11514,-16.47625l-18.23073,29.94395l35.64529,-11.59366l-9.93801,20.76621l31.76469,-0.06367l14.70103,-31.82577l-34.6459,7.59351l14.11361,-26.47274l-34.23393,8.94639l10.40846,-21.64865l-40.58635,12.35912l17.46527,-34.88502l23.70591,0.17286l30.64834,8.40709l43.52863,-5.12428l46.06412,34.75769l-30.29226,12.18108l27.65276,37.40755l-35.64788,-5.40634l21.59485,44.57828c-2.72087,-0.93559 -31.7668,-14.87084 -31.7668,-14.87084l-1.02288,12.01717c-0.27719,-0.09467 -0.55438,-0.18933 -0.83157,-0.28399c-17.24576,-5.88865 -34.46945,-11.82484 -51.79609,-17.47153c-5.77353,-1.88156 -11.5653,-3.90372 -17.41354,-5.73427z" fill="#13c110" stroke="#13c110" stroke-linecap="butt"/><path d="M270.14349,146.35375l-11.76393,5.06062l-24.6494,-15.40801l17.88242,0.46786l31.11621,-9.47533z" fill="#000000" stroke="#000000" stroke-linecap="round"/></g></g></g></svg>