<svg version="1.1" xmlns="http://www.w3.org/2000/svg" xmlns:xlink="http://www.w3.org/1999/xlink" width="425.97415" height="423.07986" viewBox="0,0,425.97415,423.07986"><g transform="translate(31.30293,113.10324)"><g data-paper-data="{&quot;isPaintingLayer&quot;:true}" fill-rule="nonzero" stroke-linejoin="miter" stroke-miterlimit="10" stroke-dasharray="" stroke-dashoffset="0" style="mix-blend-mode: normal"><path d="M390.87252,86.67879l-9.12553,39.72726l-2.08609,12.20501l5.30457,16.98004l9.35084,8.85987l-21.05795,21.86649l-18.69778,18.30713l-9.79274,18.58197l-1.63855,10.72516l-17.36251,-2.02953l-34.98322,19.08479l-27.87411,-115.87257z" data-paper-data="{&quot;index&quot;:null}" fill="#10a70d" stroke="#13c110" stroke-width="0.5" stroke-linecap="round"/><path d="M278.29578,148.14874l21.05349,105.75002l-44.73329,-3.01594l-17.22676,7.99303l-6.34759,-8.25302l-18.24866,-11.76823l-27.41542,-8.30079l-31.41602,-10.37871l5.9183,-10.71317l-1.81317,-15.94061l-7.45435,-9.31118l-26.699,-29.45799z" fill="#10a70d" stroke="#13c110" stroke-width="0.5" stroke-linecap="round"/><path d="" fill="#ffe800" stroke="none" stroke-width="0.5" stroke-linecap="butt"/><path d="" fill="#ffe800" stroke="none" stroke-width="0.5" stroke-linecap="butt"/><path d="" fill="#ffe800" stroke="none" stroke-width="0.5" stroke-linecap="butt"/><path d="" fill="#ffe800" stroke="none" stroke-width="0.5" stroke-linecap="butt"/><path d="" fill="#ffe800" stroke="none" stroke-width="0.5" stroke-linecap="butt"/><path d="M264.75695,127.8685l66.70596,9.76298l-42.51856,11.49661l57.70333,10.73901l-31.02134,17.13699l44.68755,7.48484l-23.86256,12.47311l48.80923,7.59337l-31.78062,18.3301l22.34355,17.57174l-60.30721,32.86396l-30.04484,-1.51901l-73.14862,-133.33659z" fill="#13c110" stroke="#13c110" stroke-width="0.5" stroke-linecap="round"/><path d="M244.08775,172.32866l-165.6758,-22.62193l-21.47251,-20.79081l-35.65157,-21.38122l-21.47487,2.59984l-10.12098,14.23418l-5.76383,-19.36025l32.83114,-14.35617l19.88497,10.92194l-4.116,-23.85331l-19.2963,-14.19736l-35.41989,14.73366l16.94633,-19.48223l26.47626,-7.05033l27.53303,15.12268l3.41386,-14.31935l-34.24016,-15.20785l49.42046,5.55191l6.58655,28.80904l-15.29851,14.98916l24.11918,29.44203l160.02781,21.31912z" data-paper-data="{&quot;index&quot;:null}" fill="#13c110" stroke="#13c110" stroke-width="0.5" stroke-linecap="round"/><path d="M251.72523,177.17487l-163.73804,33.91274l-27.17592,-12.44166l-40.74049,-8.27066l-19.37917,9.6113l-4.79583,16.79424l-11.88916,-16.33061l26.16576,-24.48133l22.38873,3.66684l-11.83372,-21.11599l-22.92584,-6.95112l-28.48052,25.70038l9.48078,-24.0177l22.61048,-15.47469l30.99978,5.07717l-1.55589,-14.63822l-37.3515,-2.92114l48.44362,-11.24372l15.81525,24.96439l-9.42534,19.23232l32.55567,19.71538l157.97887,-33.25782z" data-paper-data="{&quot;index&quot;:null}" fill="#13c110" stroke="#13c110" stroke-width="0.5" stroke-linecap="round"/><path d="M111.25,-100.57755l-13.7757,409.09499l-11.27103,-416.0288l-12.52336,413.25528l-6.26168,-418.80233l-12.52336,418.80233l-6.26168,-410.48175l-20.03738,414.64204l-2.50467,-409.09499l-25.04673,403.54794l2.50467,-416.0288l-26.29907,395.22736" data-paper-data="{&quot;index&quot;:null}" fill="none" stroke="#13c110" stroke-width="3" stroke-linecap="round"/></g></g></svg>