<svg version="1.1" xmlns="http://www.w3.org/2000/svg" xmlns:xlink="http://www.w3.org/1999/xlink" width="323.08681" height="149.81749" viewBox="0,0,323.08681,149.81749"><g transform="translate(-62.91331,-127.05836)"><g data-paper-data="{&quot;isPaintingLayer&quot;:true}" fill-rule="nonzero" stroke-linejoin="miter" stroke-miterlimit="10" stroke-dasharray="" stroke-dashoffset="0" style="mix-blend-mode: normal"><path d="M297.4554,127.05837l27.89387,126.84747l-59.26736,-3.61763l-22.82382,9.58767l-8.40996,-9.89952l-24.17774,-14.11602l-36.32282,-9.95683l-41.62324,-12.44929l7.84118,-12.85048l-2.40227,-19.12081l-9.87631,-11.16879l-35.37364,-35.33495z" fill="#10a70d" stroke="none" stroke-width="0" stroke-linecap="round"/><path d="M267.4554,144.05836l27.89387,126.84747l-59.26735,-3.61763l-22.82382,9.58766l-8.40995,-9.89952l-24.17774,-14.11603l-36.32282,-9.95682l-41.62324,-12.44929l7.84118,-12.85048l-2.40228,-19.12081l-9.8763,-11.16879l-35.37364,-35.33495z" fill="#10a70d" stroke="none" stroke-width="0" stroke-linecap="round"/><path d="" fill="#ffe800" stroke="none" stroke-width="0.5" stroke-linecap="butt"/><path d="" fill="#ffe800" stroke="none" stroke-width="0.5" stroke-linecap="butt"/><path d="" fill="#ffe800" stroke="none" stroke-width="0.5" stroke-linecap="butt"/><path d="" fill="#ffe800" stroke="none" stroke-width="0.5" stroke-linecap="butt"/><path d="" fill="#ffe800" stroke="none" stroke-width="0.5" stroke-linecap="butt"/><path d="M264.75695,127.86851l66.70596,9.76298l-42.51856,11.49661l57.70333,10.73901l-31.02134,17.13699l44.68755,7.48484l-23.86256,12.47311l48.80923,7.59337l-31.78062,18.3301l22.34355,17.57174l-60.30721,32.86396l-30.04484,-1.51901l-73.14862,-133.33659z" fill="#13c110" stroke="#13c110" stroke-width="0.5" stroke-linecap="round"/><path d="M239.68369,172.06709l-82,38l-17.5,-5l-24,-1l-8.5,8l1,11l-10,-9l9,-18h13l-11,-12l-14,-2l-10,19v-16l9,-12h18l-4,-9l-21,2l24,-12l14,14l-1,13l22,9l79,-37z" fill="#13c110" stroke="#13c110" stroke-width="0.5" stroke-linecap="round"/></g></g></svg>