<svg version="1.1" xmlns="http://www.w3.org/2000/svg" xmlns:xlink="http://www.w3.org/1999/xlink" width="418.92121" height="423.07985" viewBox="0,0,418.92121,423.07985"><g transform="translate(24.25,113.13081)"><g data-paper-data="{&quot;isPaintingLayer&quot;:true}" fill-rule="nonzero" stroke-linejoin="miter" stroke-miterlimit="10" stroke-dasharray="" stroke-dashoffset="0" style="mix-blend-mode: normal"><path d="M390.87252,86.67879l-9.12553,39.72726l-2.08609,12.20501l5.30457,16.98004l9.35084,8.85987l-21.05795,21.86649l-18.69778,18.30713l-9.79274,18.58197l-1.63855,10.72516l-17.36251,-2.02953l-34.98322,19.08479l-27.87411,-115.87257z" data-paper-data="{&quot;index&quot;:null}" fill="#10a70d" stroke="#13c110" stroke-width="0.5" stroke-linecap="round"/><path d="M278.29578,148.14874l21.05349,105.75002l-44.73329,-3.01594l-17.22676,7.99303l-6.34759,-8.25302l-18.24866,-11.76823l-27.41542,-8.30079l-31.41602,-10.37871l5.9183,-10.71317l-1.81317,-15.94061l-7.45435,-9.31118l-26.699,-29.45799z" fill="#10a70d" stroke="#13c110" stroke-width="0.5" stroke-linecap="round"/><path d="" fill="#ffe800" stroke="none" stroke-width="0.5" stroke-linecap="butt"/><path d="" fill="#ffe800" stroke="none" stroke-width="0.5" stroke-linecap="butt"/><path d="" fill="#ffe800" stroke="none" stroke-width="0.5" stroke-linecap="butt"/><path d="" fill="#ffe800" stroke="none" stroke-width="0.5" stroke-linecap="butt"/><path d="" fill="#ffe800" stroke="none" stroke-width="0.5" stroke-linecap="butt"/><path d="M264.75695,127.8685l66.70596,9.76298l-42.51856,11.49661l57.70333,10.73901l-31.02134,17.13699l44.68755,7.48484l-23.86256,12.47311l48.80923,7.59337l-31.78062,18.3301l22.34355,17.57174l-60.30721,32.86396l-30.04484,-1.51901l-73.14862,-133.33659z" fill="#13c110" stroke="#13c110" stroke-width="0.5" stroke-linecap="round"/><path d="M224.87024,172.15065l-152.21375,-69.21848l-14.60233,-26.07869l-28.01546,-30.71359l-21.31761,-3.67272l-13.78036,10.7307l0.03495,-20.19999l35.57015,-4.32984l15.9139,16.16937l2.90294,-24.03112l-14.40996,-19.13806l-38.15834,3.94849l21.82474,-13.79913l27.38587,0.84483l22.03463,22.38836l7.37983,-12.7372l-28.43516,-24.39486l45.74806,19.5018l-1.9586,29.48741l-18.95675,9.96799l14.6548,35.12556l147.17726,66.34953z" data-paper-data="{&quot;index&quot;:null}" fill="#13c110" stroke="#13c110" stroke-width="0.5" stroke-linecap="round"/><path d="M248.24545,165.09879l-141.10455,89.72027l-29.82108,-2.00722l-41.02826,6.69874l-14.71736,15.85335l1.46485,17.40404l-16.90347,-11.05954l15.79584,-32.16324l22.23573,-4.50256l-18.54693,-15.5542l-23.90152,1.62156l-17.52861,34.12327l0.35722,-25.81874l15.66189,-22.48121l30.78794,-6.23431l-6.64082,-13.13765l-35.96391,10.50071l41.3185,-27.67647l23.6336,17.74249l-2.00068,21.32408l37.42876,6.90333l135.95091,-87.06754z" data-paper-data="{&quot;index&quot;:null}" fill="#13c110" stroke="#13c110" stroke-width="0.5" stroke-linecap="round"/><path d="M111.25,-86.70992l-26.29907,395.22736l2.50467,-416.0288l-25.04673,403.54794l-2.50467,-409.09499l-20.03738,414.64204l-6.26168,-410.48175l-12.52336,418.80233l-6.26168,-418.80233l-12.52336,413.25528l-11.27103,-416.0288l-13.7757,409.09499" fill="none" stroke="#13c110" stroke-width="3" stroke-linecap="round"/></g></g></svg>