<svg version="1.1" xmlns="http://www.w3.org/2000/svg" xmlns:xlink="http://www.w3.org/1999/xlink" width="178.96224" height="129.5171" viewBox="0,0,178.96224,129.5171"><g transform="translate(-150.68455,-115.2374)"><g data-paper-data="{&quot;isPaintingLayer&quot;:true}" fill-rule="nonzero" stroke-linejoin="miter" stroke-miterlimit="10" stroke-dasharray="" stroke-dashoffset="0" style="mix-blend-mode: normal"><path d="" fill="#ffe800" stroke="none" stroke-width="0.5" stroke-linecap="butt"/><path d="" fill="#ffe800" stroke="none" stroke-width="0.5" stroke-linecap="butt"/><path d="" fill="#ffe800" stroke="none" stroke-width="0.5" stroke-linecap="butt"/><path d="" fill="#ffe800" stroke="none" stroke-width="0.5" stroke-linecap="butt"/><path d="" fill="#ffe800" stroke="none" stroke-width="0.5" stroke-linecap="butt"/><path d="M256.98608,228.5l-39.52412,9.06462c-3.59046,0.83617 -7.14546,1.79631 -10.63816,2.94853c0,0 -1.51327,0.50442 -3.12958,1.71474l-6.70814,2.27211l-46,-5l8,-38l7,24l25,-32l-2,35l26,-27l1,23l28,-15l-2,-35l-27,23v-30l-26,24l-1,-24l-30,30l-1,-39l21,-11l31,-7l36,-25l57,9l-21,25l42,20l-34,12l40.02785,29.17759c-2.84111,0.45445 -35.02785,1.82241 -35.02785,1.82241l4.75091,11.08546c-0.28914,0.04686 -0.57827,0.09374 -0.8674,0.14062c-17.98842,2.91704 -35.97973,5.78175 -53.92569,8.95036c-5.9799,1.05584 -12.04202,1.9962 -18.06385,3.13221z" fill="#13c110" stroke="#13c110" stroke-width="0.5" stroke-linecap="butt"/><path d="M247.10505,155.08904l-11.65844,7.35149l-26.10766,-17.12165l18.2489,-0.97096l31.0896,-14.55561z" fill="#000000" stroke="#000000" stroke-width="0.5" stroke-linecap="round"/><path d="M238.5,118.5l32,15.5" fill="none" stroke="#000000" stroke-width="2.5" stroke-linecap="round"/><path d="M269,165l11.5,19" fill="none" stroke="#000000" stroke-width="2.5" stroke-linecap="round"/><path d="M263,169.5l11,18.5" fill="none" stroke="#000000" stroke-width="2.5" stroke-linecap="round"/><path d="M262,179l16.5,-11" fill="none" stroke="#000000" stroke-width="2.5" stroke-linecap="round"/><path d="M266,186l19.5,-13.5" fill="none" stroke="#000000" stroke-width="2.5" stroke-linecap="round"/></g></g></svg>