<svg version="1.1" xmlns="http://www.w3.org/2000/svg" xmlns:xlink="http://www.w3.org/1999/xlink" width="309.23752" height="187.29476" viewBox="0,0,309.23752,187.29476"><g transform="translate(-85.43369,-86.27969)"><g data-paper-data="{&quot;isPaintingLayer&quot;:true}" fill-rule="nonzero" stroke-width="0.5" stroke-linejoin="miter" stroke-miterlimit="10" stroke-dasharray="" stroke-dashoffset="0" style="mix-blend-mode: normal"><path d="" fill="#ffe800" stroke="none" stroke-linecap="butt"/><path d="" fill="#ffe800" stroke="none" stroke-linecap="butt"/><path d="" fill="#ffe800" stroke="none" stroke-linecap="butt"/><path d="" fill="#ffe800" stroke="none" stroke-linecap="butt"/><path d="" fill="#ffe800" stroke="none" stroke-linecap="butt"/><g stroke="#13c110" stroke-linecap="round"><path d="M390.87252,86.67879l-9.12553,39.72726l-2.08609,12.20501l5.30457,16.98004l9.35084,8.85987l-21.05795,21.86649l-18.69778,18.30713l-9.79274,18.58197l-1.63855,10.72516l-17.36251,-2.02953l-34.98322,19.08479l-27.87411,-115.87257z" data-paper-data="{&quot;index&quot;:null}" fill="#10a70d"/><path d="M278.29578,148.14874l21.05349,105.75002l-44.73329,-3.01594l-17.22676,7.99303l-6.34759,-8.25302l-18.24866,-11.76823l-27.41542,-8.30079l-31.41602,-10.37871l5.9183,-10.71317l-1.81317,-15.94061l-7.45435,-9.31118l-26.699,-29.45799z" fill="#10a70d"/><path d="M264.75695,127.8685l66.70596,9.76298l-42.51856,11.49661l57.70333,10.73901l-31.02134,17.13699l44.68755,7.48484l-23.86256,12.47311l48.80923,7.59337l-31.78062,18.3301l22.34355,17.57174l-60.30721,32.86396l-30.04484,-1.51901l-73.14862,-133.33659z" fill="#13c110"/><path d="M239.68369,172.06708l-82,38l-17.5,-5l-24,-1l-8.5,8l1,11l-10,-9l9,-18h13l-11,-12l-14,-2l-10,19v-16l9,-12h18l-4,-9l-21,2l24,-12l14,14l-1,13l22,9l79,-37z" fill="#13c110"/></g></g></g></svg>