<svg version="1.1" xmlns="http://www.w3.org/2000/svg" xmlns:xlink="http://www.w3.org/1999/xlink" width="323.23752" height="190.54816" viewBox="0,0,323.23752,190.54816"><g transform="translate(-85.43369,-83.02629)"><g data-paper-data="{&quot;isPaintingLayer&quot;:true}" fill-rule="nonzero" stroke-width="0.5" stroke-linejoin="miter" stroke-miterlimit="10" stroke-dasharray="" stroke-dashoffset="0" style="mix-blend-mode: normal"><path d="M404.63665,83.4254l-9.75053,42.44816l-2.22897,13.04093l5.66788,18.143l9.99128,9.46668l-22.5002,23.36412l-19.97838,19.56098l-10.46344,19.85464l-1.75077,11.45972l-18.55166,-2.16853l-37.37921,20.3919l-29.7832,-123.80863z" data-paper-data="{&quot;index&quot;:null}" fill="#10a70d" stroke="#13c110" stroke-linecap="round"/><path d="M287.03018,141.14874l19.31909,116.25558l-41.04812,-3.31555l-15.8076,8.78708l-5.82467,-9.0729l-16.74532,-12.93733l-25.15691,-9.12542l-28.82794,-11.40977l5.43075,-11.77745l-1.6638,-17.5242l-6.84025,-10.23618l-24.49951,-32.38444z" fill="#10a70d" stroke="#13c110" stroke-linecap="round"/><path d="" fill="#ffe800" stroke="none" stroke-linecap="butt"/><path d="" fill="#ffe800" stroke="none" stroke-linecap="butt"/><path d="" fill="#ffe800" stroke="none" stroke-linecap="butt"/><path d="" fill="#ffe800" stroke="none" stroke-linecap="butt"/><path d="" fill="#ffe800" stroke="none" stroke-linecap="butt"/><path d="M264.75695,127.8685l66.70596,9.76298l-42.51856,11.49661l57.70333,10.73901l-31.02134,17.13699l44.68755,7.48484l-23.86256,12.47311l48.80923,7.59337l-31.78062,18.3301l22.34355,17.57174l-60.30721,32.86396l-30.04484,-1.51901l-73.14862,-133.33659z" fill="#13c110" stroke="#13c110" stroke-linecap="round"/><path d="M239.68369,172.06708l-82,38l-17.5,-5l-24,-1l-8.5,8l1,11l-10,-9l9,-18h13l-11,-12l-14,-2l-10,19v-16l9,-12h18l-4,-9l-21,2l24,-12l14,14l-1,13l22,9l79,-37z" fill="#13c110" stroke="#13c110" stroke-linecap="round"/></g></g></svg>