<svg version="1.1" xmlns="http://www.w3.org/2000/svg" xmlns:xlink="http://www.w3.org/1999/xlink" width="338.23751" height="204.25496" viewBox="0,0,338.23751,204.25496"><g transform="translate(-85.43369,-71.02177)"><g data-paper-data="{&quot;isPaintingLayer&quot;:true}" fill-rule="nonzero" stroke-width="0.5" stroke-linejoin="miter" stroke-miterlimit="10" stroke-dasharray="" stroke-dashoffset="0" style="mix-blend-mode: normal"><path d="M419.32216,71.42087l-10.58387,46.07603l-2.41947,14.15548l6.15229,19.69361l10.84519,10.27576l-24.4232,25.36096l-21.68585,21.23278l-11.35771,21.55153l-1.9004,12.43914l-20.13719,-2.35387l-40.57386,22.13471l-32.32865,-134.39005z" data-paper-data="{&quot;index&quot;:null}" fill="#10a70d" stroke="#13c110" stroke-linecap="round"/><path d="M297.87039,132.33773l15.47888,136.13115l-32.88864,-3.88239l-12.66539,10.28936l-4.66686,-10.62404l-13.41672,-15.14915l-20.15626,-10.68554l-23.09757,-13.36044l4.35123,-13.79098l-1.33307,-20.52022l-5.48056,-11.9862l-19.62954,-37.92103z" fill="#10a70d" stroke="#13c110" stroke-linecap="round"/><path d="" fill="#ffe800" stroke="none" stroke-linecap="butt"/><path d="" fill="#ffe800" stroke="none" stroke-linecap="butt"/><path d="" fill="#ffe800" stroke="none" stroke-linecap="butt"/><path d="" fill="#ffe800" stroke="none" stroke-linecap="butt"/><path d="" fill="#ffe800" stroke="none" stroke-linecap="butt"/><path d="M264.75695,127.8685l66.70596,9.76298l-42.51856,11.49661l57.70333,10.73901l-31.02134,17.13699l44.68755,7.48484l-23.86256,12.47311l48.80923,7.59337l-31.78062,18.3301l22.34355,17.57174l-60.30721,32.86396l-30.04484,-1.51901l-73.14862,-133.33659z" fill="#13c110" stroke="#13c110" stroke-linecap="round"/><path d="M239.68369,172.06708l-82,38l-17.5,-5l-24,-1l-8.5,8l1,11l-10,-9l9,-18h13l-11,-12l-14,-2l-10,19v-16l9,-12h18l-4,-9l-21,2l24,-12l14,14l-1,13l22,9l79,-37z" fill="#13c110" stroke="#13c110" stroke-linecap="round"/></g></g></svg>