<svg version="1.1" xmlns="http://www.w3.org/2000/svg" xmlns:xlink="http://www.w3.org/1999/xlink" width="542.98687" height="202.2404" viewBox="0,0,542.98687,202.2404"><g transform="translate(37.96969,-201.33394)"><g data-paper-data="{&quot;isPaintingLayer&quot;:true}" fill-rule="nonzero" stroke-linecap="round" stroke-linejoin="miter" stroke-miterlimit="10" stroke-dasharray="" stroke-dashoffset="0" style="mix-blend-mode: normal"><path d="M-19.5,371.3c0,0 -3.1419,-166.57312 6.82648,-168.11896c13.01527,-2.01834 33.0375,-0.99017 56.17635,0.64667c22.70456,1.60612 55.12963,5.67072 103.11642,7.86861c36.57596,1.67525 84.11014,-0.4559 125.82084,-1.59331c35.34873,-0.96393 73.26212,-1.16119 105.14829,0.48437c49.95346,2.57796 91.94213,10.38666 115.90236,10.62884c11.77698,0.11904 9.19367,98.72204 7.69171,138.10981c-0.37491,9.83176 -520.68245,11.97397 -520.68245,11.97397" fill="#ff0000" stroke="#9b0000" stroke-width="5"/><path d="M-37.48201,403.57434c0,0 -3.26217,-172.94928 7.08778,-174.55429c13.51348,-2.0956 34.30213,-4.14291 58.3267,-2.44341c23.57365,1.6676 57.23991,13.15573 107.06356,15.43775c37.97603,1.73937 87.32975,-8.77957 130.63707,-9.96052c36.70182,-1.00083 77.10476,10.21542 110.21148,11.92397c51.8656,2.67664 94.42325,3.5163 119.30064,3.76775c12.22778,0.12359 9.5456,102.50097 7.98614,143.39644c-0.38926,10.2081 -540.61338,12.43232 -540.61338,12.43232" fill="#d63e3e" stroke="#9b0000" stroke-width="0"/></g></g></svg>