<svg version="1.1" xmlns="http://www.w3.org/2000/svg" xmlns:xlink="http://www.w3.org/1999/xlink" width="542.98687" height="205.85413" viewBox="0,0,542.98687,205.85413"><g transform="translate(37.96969,-197.72021)"><g data-paper-data="{&quot;isPaintingLayer&quot;:true}" fill-rule="nonzero" stroke-linecap="round" stroke-linejoin="miter" stroke-miterlimit="10" stroke-dasharray="" stroke-dashoffset="0" style="mix-blend-mode: normal"><path d="M-19.5,371.3c0,0 -3.1419,-166.57312 6.82648,-168.11896c13.01527,-2.01834 33.0375,-3.99017 56.17635,-2.35333c22.70456,1.60612 55.12963,12.67072 103.11642,14.86861c36.57596,1.67525 84.11014,-8.4559 125.82084,-9.59331c35.34873,-0.96393 74.26212,9.83881 106.14829,11.48437c49.95346,2.57796 90.94213,3.38666 114.90236,3.62884c11.77698,0.11904 9.19367,98.72204 7.69171,138.10981c-0.37491,9.83176 -520.68245,11.97397 -520.68245,11.97397" fill="#ff0000" stroke="#9b0000" stroke-width="5"/><path d="M-37.48202,403.57434c0,0 -3.26217,-172.94928 7.08779,-174.5543c13.51347,-2.0956 34.30213,-4.14291 58.32669,-2.44341c23.57366,1.6676 57.23991,13.15574 107.06356,15.43776c37.97603,1.73938 87.32975,-8.77958 130.63707,-9.96053c36.70183,-1.00083 77.10476,10.21542 110.21148,11.92397c51.8656,2.67664 94.42326,3.5163 119.30065,3.76775c12.22778,0.1236 9.54559,102.50097 7.98614,143.39644c-0.38926,10.2081 -540.61338,12.43232 -540.61338,12.43232" fill="#d63e3e" stroke="#9b0000" stroke-width="0"/></g></g></svg>