<svg version="1.1" xmlns="http://www.w3.org/2000/svg" xmlns:xlink="http://www.w3.org/1999/xlink" width="97.52066" height="216.13671" viewBox="0,0,97.52066,216.13671"><g transform="translate(-194.02792,22.98071)"><g data-paper-data="{&quot;isPaintingLayer&quot;:true}" fill-rule="nonzero" stroke="#000000" stroke-linejoin="miter" stroke-miterlimit="10" stroke-dasharray="" stroke-dashoffset="0" style="mix-blend-mode: normal"><path d="M203.50001,181.30002v-199h74v199z" fill="#c3c3c3" stroke-width="5" stroke-linecap="butt"/><path d="M196.52793,178.43252c0.04272,-3.2246 4.50563,-9.16664 11.21519,-9.07774c18.82735,0.24943 55.97044,0.74149 65.97409,0.87402c4.86939,0.0645 9.83953,6.60511 9.79535,9.94004c-0.04599,3.4711 -5.53851,10.5544 -10.64991,10.48668c-10.0372,-0.13297 -45.98624,-0.60923 -64.8064,-0.85855c-7.03515,-0.0932 -11.5754,-7.80979 -11.52832,-11.36445z" fill="#c3c3c3" stroke-width="5" stroke-linecap="butt"/><path d="M203.58197,175.84072c0.02603,-1.96445 2.74486,-5.58436 6.83235,-5.5302c11.46971,0.15195 34.09748,0.45172 40.19174,0.53246c2.96646,0.0393 5.99429,4.02387 5.96738,6.05552c-0.02801,2.11461 -3.37409,6.4298 -6.48798,6.38854c-6.11471,-0.08101 -28.01505,-0.37115 -39.48038,-0.52304c-4.28585,-0.05677 -7.05179,-4.75775 -7.02311,-6.92328z" fill="#adadad" stroke-width="0" stroke-linecap="butt"/><path d="M209.74624,94.30001c0,-20.39457 0,-96 0,-96h43.50754c0,0 0,73.26059 0,94c0,10.2588 -15.3436,13 -22.75377,13c-7.07701,0 -20.75377,-1.46131 -20.75377,-11z" fill="#b1b1b1" stroke-width="0" stroke-linecap="butt"/><path d="M284.11776,179.78966l4.92928,-3.85769l-0.24824,-195.70793l-9.49706,2.38596" fill="#000000" stroke-width="5" stroke-linecap="round"/><path d="M285.89393,176.00357l-4.68384,-29.274" fill="none" stroke-width="5" stroke-linecap="round"/><path d="M280.03912,169.56329l-0.29274,-16.68618" fill="none" stroke-width="5" stroke-linecap="round"/><path d="M282.5633,173.64402l-3.37584,-160.91523" fill="none" stroke-width="5" stroke-linecap="round"/></g></g></svg>