<svg version="1.1" xmlns="http://www.w3.org/2000/svg" xmlns:xlink="http://www.w3.org/1999/xlink" width="646.77095" height="337.95195" viewBox="0,0,646.77095,337.95195"><g transform="translate(79.14847,18.54148)"><g data-paper-data="{&quot;isPaintingLayer&quot;:true}" fill-rule="nonzero" stroke="#000000" stroke-width="0" stroke-linecap="butt" stroke-linejoin="miter" stroke-miterlimit="10" stroke-dasharray="" stroke-dashoffset="0" style="mix-blend-mode: normal"><path d="M-71.79039,303.03493v-70.9607h590.61135v70.9607c0,0 2.47303,10.55512 -42.55467,11.38592c-24.75743,0.45679 -76.82319,-9.64288 -121.21624,-8.20654c-20.8261,0.67383 -102.42856,8.91412 -124.38707,9.39326c-18.47012,0.40303 -89.94597,-7.88613 -107.05753,-7.39608c-51.79089,1.48322 -102.44238,11.19898 -125.52683,11.19898c-35.43892,0 -69.86899,-16.37555 -69.86899,-16.37555z" fill="#11282b"/><path d="M-27.66376,257.64192v-70.96069h590.61135v70.96069c0,0 2.47303,10.55512 -42.55467,11.38593c-24.75743,0.45679 -76.82319,-9.64288 -121.21624,-8.20654c-20.8261,0.67382 -102.42856,8.91412 -124.38707,9.39326c-18.47012,0.40303 -89.94597,-7.88613 -107.05753,-7.39608c-51.79089,1.48322 -102.44238,11.19898 -125.52683,11.19898c-35.43892,0 -69.86899,-16.37555 -69.86899,-16.37555z" fill="#367e87"/><path d="M-46.85589,219.89083v-70.9607h590.61135v70.9607c0,0 2.47303,10.55512 -42.55467,11.38592c-24.75743,0.45679 -76.82319,-9.64288 -121.21624,-8.20654c-20.8261,0.67382 -102.42856,8.91412 -124.38707,9.39326c-18.47012,0.40303 -89.94597,-7.88613 -107.05753,-7.39608c-51.79089,1.48322 -102.44238,11.19898 -125.52683,11.19898c-35.43892,0 -69.869,-16.37555 -69.869,-16.37555z" fill="#439ca8"/><path d="M-79.14847,150.48035v-70.9607h590.61135v70.9607c0,0 2.47303,10.55513 -42.55467,11.38592c-24.75743,0.45679 -76.82319,-9.64288 -121.21624,-8.20654c-20.8261,0.67382 -102.42856,8.91412 -124.38707,9.39326c-18.47012,0.40303 -89.94597,-7.88613 -107.05753,-7.39608c-51.79089,1.48322 -102.44238,11.19898 -125.52683,11.19898c-35.43892,0 -69.869,-16.37555 -69.869,-16.37555z" fill="#4eb6c4"/><path d="M-23.0131,103.99563v-70.96069h590.61135v70.96069c0,0 2.47303,10.55513 -42.55468,11.38593c-24.75744,0.45679 -76.82319,-9.64288 -121.21624,-8.20654c-20.8261,0.67383 -102.42857,8.91412 -124.38707,9.39326c-18.47012,0.40303 -89.94597,-7.88613 -107.05753,-7.39608c-51.79089,1.48322 -102.44238,11.19898 -125.52683,11.19898c-35.43892,0 -69.86899,-16.37555 -69.86899,-16.37555z" fill="#5bd4e4"/><path d="M-68.0393,52.41922v-70.9607h590.61135v70.9607c0,0 2.47303,10.55512 -42.55468,11.38592c-24.75743,0.4568 -76.82319,-9.64287 -121.21624,-8.20654c-20.8261,0.67383 -102.42857,8.91412 -124.38708,9.39327c-18.47012,0.40302 -89.94597,-7.88613 -107.05753,-7.39608c-51.79089,1.48322 -102.44238,11.19898 -125.52683,11.19898c-35.43892,0 -69.869,-16.37555 -69.869,-16.37555z" fill="#66ecff"/></g></g></svg>