<svg version="1.1" xmlns="http://www.w3.org/2000/svg" xmlns:xlink="http://www.w3.org/1999/xlink" width="27.90615" height="77.56058" viewBox="0,0,27.90615,77.56058"><g transform="translate(-226.17134,-141.21961)"><g data-paper-data="{&quot;isPaintingLayer&quot;:true}" fill-rule="nonzero" stroke="#000000" stroke-linecap="butt" stroke-linejoin="miter" stroke-miterlimit="10" stroke-dasharray="" stroke-dashoffset="0" style="mix-blend-mode: normal"><path d="M240.10983,143.71978c3.54695,-0.01655 11.18103,1.13285 11.21882,9.2331c0.07653,16.40446 0.20031,42.93803 0.24887,53.34675c0.03866,8.2877 -6.74617,9.96447 -10.19326,9.98056c-4.08139,0.01904 -12.675,-1.27693 -12.71292,-9.40573c-0.04806,-10.30284 -0.17153,-36.76786 -0.24887,-53.34675c-0.03898,-8.35466 7.6595,-9.78913 11.68736,-9.80792z" fill="#a3a3a3" stroke-width="5"/><path d="M244.95942,184.03407c1.21248,-0.00566 1.58424,10.96621 1.59716,13.73518c0.02616,5.60766 0.27191,5.31953 0.28851,8.87762c0.01322,2.83305 -2.3061,3.40623 -3.48444,3.41173c-1.39517,0.00651 -7.18097,0.58071 -7.19394,-2.19802c-0.01643,-3.5219 4.21364,-3.61722 4.1872,-9.2845c-0.01332,-2.85594 3.22863,-14.53558 4.6055,-14.542z" fill="#cacaca" stroke-width="0"/></g></g></svg>