<svg version="1.1" xmlns="http://www.w3.org/2000/svg" xmlns:xlink="http://www.w3.org/1999/xlink" width="28.39213" height="95.45488" viewBox="0,0,28.39213,95.45488"><g transform="translate(-227.515,-133.73725)"><g data-paper-data="{&quot;isPaintingLayer&quot;:true}" fill-rule="nonzero" stroke-linejoin="miter" stroke-miterlimit="10" stroke-dasharray="" stroke-dashoffset="0" style="mix-blend-mode: normal"><path d="M240.68553,136.49407c3.22481,-0.02276 9.25623,4.31858 9.30359,11.02856c0.13291,18.82853 0.39513,55.97396 0.46575,65.97823c0.03438,4.8697 -6.40395,9.97162 -9.73909,9.99517c-3.47132,0.0245 -10.66468,-5.32307 -10.70077,-10.43479c-0.07086,-10.03783 -0.32464,-45.98913 -0.45751,-64.81047c-0.04967,-7.03559 7.57314,-11.7316 11.12803,-11.7567z" fill="#c3c3c3" stroke="#000000" stroke-width="5" stroke-linecap="butt"/><path d="M243.42003,143.49403c1.96457,-0.01387 5.63894,2.6309 5.66779,6.71865c0.08097,11.47043 0.24072,34.09962 0.28374,40.19427c0.02094,2.96665 -3.90132,6.07476 -5.9331,6.08911c-2.11475,0.01493 -6.49698,-3.24284 -6.51896,-6.35693c-0.04317,-6.1151 -0.19777,-28.01681 -0.27872,-39.48286c-0.03026,-4.28612 4.61359,-7.14695 6.77925,-7.16224z" fill="#adadad" stroke="#000000" stroke-width="0" stroke-linecap="butt"/><path d="M248.50217,137.09633c2.08013,-1.38675 3.46688,0.69338 3.46688,0.69338l0.36116,0.75391c0.73296,0.58637 1.46593,1.17274 2.19889,1.75911c0,0 1.95217,1.56174 0.39043,3.51391c-1.56174,1.95217 -3.51391,0.39043 -3.51391,0.39043c-0.73296,-0.58637 -1.46592,-1.17274 -2.19888,-1.75911l-1.39795,-1.88476c0,0 -0.14519,-0.21779 -0.27114,-0.55941c-0.65408,-0.34939 -1.12488,-0.60894 -1.14936,-0.6452c-0.89586,-1.32659 -0.04367,-1.6024 -0.55602,-3.03197c-0.3593,-1.00253 -2.87793,-1.05674 -3.50665,-2.58937c1.228,0.48123 2.55062,0.84329 3.49534,1.69483c0.85862,0.77392 1.55919,1.44856 2.14656,2.10854c0.14541,-0.15338 0.32189,-0.30246 0.53464,-0.44429z" fill="#000000" stroke="none" stroke-width="0.5" stroke-linecap="butt"/><path d="M239.67773,223.27121c0,0 12.71241,9.33608 13.75439,2.83455c1.04198,-6.50153 3.86686,-39.7973 -0.49854,-73.02268c-1.98392,-15.09979 -2.34947,-18.12384 -4.49073,-15.92966c-2.57033,2.63385 -6.75658,-0.4461 -6.75658,-0.4461" fill="none" stroke="#000000" stroke-width="0" stroke-linecap="round"/><path d="M244.3707,225.55347c-1.5,-2 0.5,-3.5 0.5,-3.5l0.8553,-0.00614c0.31183,-1.08888 0.74307,-2.13707 1.24997,-3.15416l-0.30743,-0.11529l1.29884,-3.46357c0.34031,-0.9763 1.269,-1.67684 2.36132,-1.67684c0.99801,0 1.85943,0.58479 2.26029,1.43041l1.29511,2.59022l-0.18647,0.09324l0.38353,0.45042c0.00151,0.0722 0.06658,2.53314 0.08017,4.34704c1.01211,0.31985 1.74581,1.26636 1.74581,2.38423c0,0.88153 -0.45625,1.6565 -1.14551,2.10163l-2.57796,1.71864c-0.40239,0.2768 -0.88987,0.43884 -1.41519,0.43884c-1.38071,0 -2.5,-1.11929 -2.5,-2.5c0,-0.29691 0.05176,-0.58173 0.14675,-0.84593l0.05703,-0.1711l-0.23168,0.01272l-0.36987,0.36565c0,0 -2,1.5 -3.5,-0.5z" fill="#000000" stroke="none" stroke-width="0.5" stroke-linecap="butt"/></g></g></svg>