<svg version="1.1" xmlns="http://www.w3.org/2000/svg" xmlns:xlink="http://www.w3.org/1999/xlink" width="27.09619" height="26.40569" viewBox="0,0,27.09619,26.40569"><g transform="translate(-226.4519,-166.79716)"><g data-paper-data="{&quot;isPaintingLayer&quot;:true}" fill-rule="nonzero" stroke="#000000" stroke-linecap="butt" stroke-linejoin="miter" stroke-miterlimit="10" stroke-dasharray="" stroke-dashoffset="0" style="mix-blend-mode: normal"><path d="M248.83848,180c0,4.72881 -3.95712,8.56227 -8.83848,8.56227c-4.88136,0 -8.83848,-3.83346 -8.83848,-8.56227c0,-4.72881 3.95712,-8.56227 8.83848,-8.56227c4.88136,0 8.83848,3.83346 8.83848,8.56227z" fill="#9966ff" stroke-width="5"/><path d="M251.0481,180c0,5.91102 -4.9464,10.70284 -11.0481,10.70284c-6.10169,0 -11.0481,-4.79183 -11.0481,-10.70284c0,-5.91102 4.9464,-10.70284 11.0481,-10.70284c6.10169,0 11.0481,4.79183 11.0481,10.70284z" fill="#929292" stroke-width="5"/><path d="M242.25868,175.65124c0,2.53478 -2.12113,4.58963 -4.73769,4.58963c-2.61655,0 -4.73769,-2.05485 -4.73769,-4.58963c0,-2.53478 2.12113,-4.58963 4.73769,-4.58963c2.61655,0 4.73769,2.05485 4.73769,4.58963z" fill="#666666" stroke-width="0"/></g></g></svg>