<svg version="1.1" xmlns="http://www.w3.org/2000/svg" xmlns:xlink="http://www.w3.org/1999/xlink" width="30.625" height="30.625" viewBox="0,0,30.625,30.625"><g transform="translate(-224.6875,-164.6875)"><g data-paper-data="{&quot;isPaintingLayer&quot;:true}" fill-rule="nonzero" stroke="#000000" stroke-linecap="butt" stroke-linejoin="miter" stroke-miterlimit="10" stroke-dasharray="" stroke-dashoffset="0" style="mix-blend-mode: normal"><path d="M227.1875,180c0,-3.86891 1.21482,-7.83729 3.92586,-10.18657c2.2474,-1.9475 5.6794,-2.62593 8.88664,-2.62593c2.90806,0 5.46483,1.21883 7.61516,2.85133c3.08205,2.33985 5.19734,5.79308 5.19734,9.96117c0,3.94047 -1.40384,7.96547 -4.20231,10.31578c-2.22692,1.87029 -5.47451,2.49672 -8.61019,2.49672c-2.80253,0 -5.39491,-1.5248 -7.504,-3.05125c-1.52637,-1.10472 -3.17461,-1.89688 -4.09119,-3.40657c-1.01472,-1.67134 -1.21731,-4.10929 -1.21731,-6.35467z" fill="#969696" stroke-width="5"/><path d="M237.1875,172.375c0,-1.67967 5.29509,0.0625 6.6875,0.0625c1.26253,0 2.37253,0.52915 3.30609,1.2379c1.33806,1.01584 3.38141,5.14004 3.38141,6.9496c0,1.71074 -0.35948,3.70818 -1.57442,4.72856c-0.96681,0.81198 -6.62416,-5.43927 -7.02209,-6.0947c-0.15858,-0.26119 -4.77849,-6.7324 -4.77849,-6.88386z" fill="#cacaca" stroke-width="0"/><path d="M237.0625,170.375c0,-1.67967 5.29509,0.0625 6.6875,0.0625c1.26252,0 2.37254,0.52915 3.3061,1.23789c1.33806,1.01584 3.3814,5.14004 3.3814,6.94961c0,1.71074 -0.35947,3.70818 -1.57442,4.72856c-0.96681,0.81198 -6.62416,-5.43927 -7.02209,-6.0947c-0.15857,-0.26119 -4.77849,-6.73241 -4.77849,-6.88386z" fill="#e4e4e4" stroke-width="0"/></g></g></svg>