<svg version="1.1" xmlns="http://www.w3.org/2000/svg" xmlns:xlink="http://www.w3.org/1999/xlink" width="103.46225" height="93.43353" viewBox="0,0,103.46225,93.43353"><g transform="translate(-187.74058,22.15575)"><g data-paper-data="{&quot;isPaintingLayer&quot;:true}" fill-rule="nonzero" stroke="#000000" stroke-linecap="butt" stroke-linejoin="miter" stroke-miterlimit="10" stroke-dasharray="" stroke-dashoffset="0" style="mix-blend-mode: normal"><path d="M207.65024,9.38571c0,-9.1381 -6.2811,-26.54146 3.72785,-26.54146c18.22624,0 45.93109,0 57.19695,0c9.48334,0 7.55032,21.54828 7.55032,32.87415c0,12.82048 2.29021,40.12212 -7.01297,40.12212c-11.3009,0 -39.52268,0 -57.91342,0c-9.66702,0 -3.54872,-46.13012 -3.54872,-46.4548z" fill="#b8b8b8" stroke-width="10"/><path d="M192.74729,47.05803c0,-4.51223 -0.68077,-17.12609 11.67329,-17.12609c22.49667,0 56.6928,0 70.59826,0c11.70529,0 11.18044,11.53358 11.18044,17.1261c0,6.33053 -2.95449,19.21974 -14.43743,19.21974c-13.55376,0 -33.86009,-1.20623 -56.55905,-1.20623c-0.66144,0 -10.36058,0.90467 -11.00331,0.90467c-12.24491,0 -11.45221,-12.64418 -11.45221,-18.91818z" fill="#b8b8b8" stroke-width="10"/><path d="M205.99409,40.58714c0,-1.83268 -0.33659,-6.95589 5.77164,-6.95589c11.12305,0 28.03068,0 34.90597,0c5.78746,0 5.52796,4.68445 5.52796,6.95589c0,2.57119 0.4775,7.68375 -5.20002,7.68375c-6.89668,0 -24.11978,0 -35.34322,0c-6.05427,0 -5.66233,-5.13553 -5.66233,-7.68375z" fill="#888888" stroke-width="0"/></g></g></svg>