<svg version="1.1" xmlns="http://www.w3.org/2000/svg" xmlns:xlink="http://www.w3.org/1999/xlink" width="46.05923" height="276.97528" viewBox="0,0,46.05923,276.97528"><g transform="translate(-216.80805,-55.69374)"><g data-paper-data="{&quot;isPaintingLayer&quot;:true}" fill-rule="nonzero" stroke="#000000" stroke-linecap="butt" stroke-linejoin="miter" stroke-miterlimit="10" stroke-dasharray="" stroke-dashoffset="0" style="mix-blend-mode: normal"><path d="M218.38273,190.80864v-21.61728h43.23455v21.61728z" fill="#9966ff" stroke-width="2.5"/><path d="M218.38273,190.80864v-21.61728h43.23455v21.61728z" fill="#85a3ff" stroke-width="0"/><path d="M218.29182,219.08137v-21.61728h43.23455v21.61728z" fill="#9966ff" stroke-width="2.5"/><path d="M218.29182,219.08137v-21.61728h43.23455v21.61728z" fill="#85a3ff" stroke-width="0"/><path d="M218.20091,246.99046v-21.61728h43.23455v21.61728z" fill="#9966ff" stroke-width="2.5"/><path d="M218.20091,246.99046v-21.61728h43.23455v21.61728z" fill="#85a3ff" stroke-width="0"/><path d="M218.23987,275.23721v-21.61728h43.23455v21.61728z" fill="#9966ff" stroke-width="2.5"/><path d="M218.23987,275.23721v-21.61728h43.23455v21.61728z" fill="#85a3ff" stroke-width="0"/><path d="M218.14896,303.50994v-21.61728h43.23455v21.61728z" fill="#9966ff" stroke-width="2.5"/><path d="M218.14896,303.50994v-21.61728h43.23455v21.61728z" fill="#85a3ff" stroke-width="0"/><path d="M218.05805,331.41902v-21.61728h43.23455v21.61728z" fill="#9966ff" stroke-width="2.5"/><path d="M218.05805,331.41902v-21.61728h43.23455v21.61728z" fill="#85a3ff" stroke-width="0"/><path d="M218.23987,106.09436v-21.61728h43.23455v21.61728z" fill="#9966ff" stroke-width="2.5"/><path d="M218.23987,106.09436v-21.61728h43.23455v21.61728z" fill="#85a3ff" stroke-width="0"/><path d="M218.14896,134.36708v-21.61728h43.23455v21.61728z" fill="#9966ff" stroke-width="2.5"/><path d="M218.14896,134.36708v-21.61728h43.23455v21.61728z" fill="#85a3ff" stroke-width="0"/><path d="M218.05805,162.27617v-21.61728h43.23455v21.61728z" fill="#9966ff" stroke-width="2.5"/><path d="M218.05805,162.27617v-21.61728h43.23455v21.61728z" fill="#85a3ff" stroke-width="0"/><path d="M218.1732,78.56102v-21.61728h43.23455v21.61728z" fill="#9966ff" stroke-width="2.5"/><path d="M218.1732,78.56102v-21.61728h43.23455v21.61728z" fill="#7d7d7d" stroke-width="0"/></g></g></svg>