<svg version="1.1" xmlns="http://www.w3.org/2000/svg" xmlns:xlink="http://www.w3.org/1999/xlink" width="695.78407" height="177.00621" viewBox="0,0,695.78407,177.00621"><g transform="translate(174.04644,-93.37739)"><g data-paper-data="{&quot;isPaintingLayer&quot;:true}" fill-rule="nonzero" stroke-linejoin="miter" stroke-miterlimit="10" stroke-dasharray="" stroke-dashoffset="0" style="mix-blend-mode: normal"><path d="M215.0858,175.93963l-101.16065,69.62162l-84.2708,18.14155l-73.92739,-11.29851l-40.70989,-33.4114l-60.74215,-3.65125l-27.59751,-52.4352l38.10095,27.83957l46.31556,7.36101l-17.37514,-36.60717l-34.03724,-27.16555l49.54518,7.25432l14.55281,24.57611l-1.84771,-31.46215l-40.33645,-22.10771l69.43691,-2.29401l6.4449,48.2843l-8.16126,22.09339l48.25045,16.99652l131.15369,-18.07385l63.1182,-22.29243z" data-paper-data="{&quot;index&quot;:null}" fill="#ff8800" stroke="#ff8800" stroke-width="0.5" stroke-linecap="round"/><path d="M182.08337,156.52662c0,-33.10295 26.83525,-59.93819 59.93819,-59.93819c33.10295,0 59.93819,26.83525 59.93819,59.93819c0,33.10295 -26.83525,59.93819 -59.93819,59.93819c-33.10295,0 -59.93819,-26.83525 -59.93819,-59.93819z" fill="#ff8800" stroke="none" stroke-width="0" stroke-linecap="butt"/><path d="M289.81685,153.58475l77.38466,-18.39029l55.1424,8.75302l42.00917,24.11543l16.77387,29.70214l35.834,16.41256l4.4045,38.12552l-16.5013,-25.72656l-26.2527,-15.27894l1.93231,26.17451l14.20449,24.36898l-28.22833,-15.9699l-3.04163,-18.24767l-6.2428,19.43517l19.19218,22.78742l-42.47615,-14.8553l7.40072,-30.67094l10.09687,-11.43543l-25.16768,-21.55132l-83.44362,-19.75953l-43.33718,-1.29843z" data-paper-data="{&quot;index&quot;:null}" fill="#ff8800" stroke="#ff8800" stroke-width="0.5" stroke-linecap="round"/><path d="M197.99289,148.01688c0,-11.03432 8.94508,-19.9794 19.9794,-19.9794c11.03432,0 19.9794,8.94508 19.9794,19.9794c0,11.03432 -8.94508,19.9794 -19.9794,19.9794c-11.03432,0 -19.9794,-8.94508 -19.9794,-19.9794z" fill="#000000" stroke="#000000" stroke-width="2.5" stroke-linecap="butt"/><path d="M246.83141,148.75686c0,-11.03432 8.94508,-19.9794 19.9794,-19.9794c11.03432,0 19.9794,8.94508 19.9794,19.9794c0,11.03432 -8.94508,19.9794 -19.9794,19.9794c-11.03432,0 -19.9794,-8.94508 -19.9794,-19.9794z" fill="#000000" stroke="#000000" stroke-width="2.5" stroke-linecap="butt"/><path d="M198.05246,151.75686c0,-3.26943 2.65039,-5.91982 5.91982,-5.91982c3.26943,0 5.91982,2.65039 5.91982,5.91982c0,3.26943 -2.65039,5.91982 -5.91982,5.91982c-3.26943,0 -5.91982,-2.65039 -5.91982,-5.91982z" fill="#ff8800" stroke="#ff8800" stroke-width="0.5" stroke-linecap="butt"/><path d="M245.45112,152.49683c0,-6.13018 4.96948,-11.09967 11.09967,-11.09967c6.13018,0 11.09967,4.96948 11.09967,11.09967c0,6.13017 -4.96948,11.09967 -11.09967,11.09967c-6.13018,0 -11.09967,-4.96949 -11.09967,-11.09967z" fill="#ff8800" stroke="#ff8800" stroke-width="0.5" stroke-linecap="butt"/><path d="M195.77296,121.37768l-5.17984,-27.37917l22.93931,18.49944z" fill="#ff8800" stroke="#ff8800" stroke-width="0.5" stroke-linecap="round"/><path d="M270.60211,109.74746l25.73925,-14.35034l-9.73878,26.10759z" data-paper-data="{&quot;index&quot;:null}" fill="#ff8800" stroke="#ff8800" stroke-width="0.5" stroke-linecap="round"/></g></g></svg>