<svg version="1.1" xmlns="http://www.w3.org/2000/svg" xmlns:xlink="http://www.w3.org/1999/xlink" width="272.53716" height="229.98688" viewBox="0,0,272.53716,229.98688"><g transform="translate(-101.97241,-108.43012)"><g data-paper-data="{&quot;isPaintingLayer&quot;:true}" fill-rule="nonzero" stroke-linejoin="miter" stroke-miterlimit="10" stroke-dasharray="" stroke-dashoffset="0" style="mix-blend-mode: normal"><path d="M192,180.00001c0,-26.50967 21.49033,-48 48,-48c26.50967,0 48,21.49033 48,48c0,26.50967 -21.49033,48 -48,48c-26.50967,0 -48,-21.49033 -48,-48z" fill="#ff8800" stroke="none" stroke-width="NaN" stroke-linecap="butt"/><path d="M231.16667,174.39296c0,9.48089 -2.61167,17.16667 -5.83333,17.16667c-3.22166,0 -5.83333,-7.68578 -5.83333,-17.16667c0,-9.48089 2.61167,-17.16667 5.83333,-17.16667c3.22166,0 5.83333,7.68578 5.83333,17.16667z" fill="#000000" stroke="none" stroke-width="0" stroke-linecap="butt"/><path d="M261.83333,174.55963c0,9.48089 -2.61167,17.16666 -5.83334,17.16666c-3.22166,0 -5.83333,-7.68578 -5.83333,-17.16666c0,-9.48089 2.61167,-17.16667 5.83333,-17.16667c3.22166,0 5.83334,7.68578 5.83334,17.16667z" fill="#000000" stroke="none" stroke-width="0" stroke-linecap="butt"/><path d="M228.61111,179.80963c0,6.25923 -1.39289,11.33333 -3.11111,11.33333c-1.71822,0 -3.11111,-5.07411 -3.11111,-11.33333c0,-6.25923 1.39289,-11.33333 3.11111,-11.33333c1.71822,0 3.11111,5.07411 3.11111,11.33333z" fill="#ff8800" stroke="#ff8800" stroke-width="0.5" stroke-linecap="butt"/><path d="M259.11111,179.30963c0,6.25922 -1.39289,11.33334 -3.11111,11.33334c-1.71822,0 -3.11111,-5.07411 -3.11111,-11.33334c0,-6.25922 1.39289,-11.33333 3.11111,-11.33333c1.71822,0 3.11111,5.07411 3.11111,11.33333z" fill="#ff8800" stroke="#ff8800" stroke-width="0.5" stroke-linecap="butt"/><g fill="#d97400" stroke="none" stroke-width="0" stroke-linecap="butt"><path d="M246.70136,133.52516c0,-6.41992 5.20437,-11.62429 11.62429,-11.62429c6.41992,0 11.62429,5.20437 11.62429,11.62429c0,6.41992 -5.20437,11.62429 -11.62429,11.62429c-6.41992,0 -11.62429,-5.20437 -11.62429,-11.62429z"/><path d="M231.61574,108.91836c2.46958,-1.85405 9.85771,1.73458 16.50183,8.01544c6.64412,6.28087 10.02825,12.87553 7.55867,14.72958c-2.46959,1.85406 -9.85771,-1.73458 -16.50183,-8.01544c-6.64412,-6.28087 -10.02825,-12.87553 -7.55867,-14.72958z" data-paper-data="{&quot;index&quot;:null}"/><path d="M223.30467,126.45296c1.03316,-2.91014 9.17364,-4.00344 18.18227,-2.44193c9.00863,1.56151 15.47402,5.18651 14.44086,8.09665c-1.03316,2.91015 -9.17364,4.00344 -18.18227,2.44193c-9.00863,-1.56151 -15.47402,-5.18651 -14.44086,-8.09665z" data-paper-data="{&quot;index&quot;:null}"/><path d="M285.57208,158.02175c-2.46959,1.85405 -9.85771,-1.73458 -16.50183,-8.01545c-6.64412,-6.28087 -10.02825,-12.87553 -7.55867,-14.72958c2.46959,-1.85406 9.85771,1.73458 16.50183,8.01545c6.64412,6.28087 10.02825,12.87553 7.55867,14.72958z" data-paper-data="{&quot;index&quot;:null}"/><path d="M293.88314,140.48715c-1.03317,2.91014 -9.17364,4.00344 -18.18227,2.44193c-9.00863,-1.56151 -15.47402,-5.18651 -14.44085,-8.09665c1.03316,-2.91015 9.17363,-4.00344 18.18226,-2.44193c9.00863,1.56151 15.47402,5.18651 14.44086,8.09665z" data-paper-data="{&quot;index&quot;:null}"/></g><g fill="#ff8800" stroke="#ff8800" stroke-width="0.5" stroke-linecap="butt"><path d="M119.80326,243.77711c9.58835,0.05417 17.26356,17.38882 17.14306,38.71801c-0.1205,21.3292 -7.99109,38.57601 -17.57945,38.52184c-9.58835,-0.05417 -17.26356,-17.38882 -17.14306,-38.71801c0.1205,-21.3292 7.99109,-38.57601 17.57945,-38.52184z"/><path d="M139.27469,231.73246c16.97455,-4.69376 32.63765,-1.61851 34.98453,6.86877c2.34688,8.48727 -9.51119,19.17261 -26.48573,23.86637c-16.97455,4.69376 -32.63765,1.61851 -34.98453,-6.86877c-2.34688,-8.48727 9.51119,-19.17261 26.48573,-23.86637z"/><path d="M111.34554,308.13097c2.44262,-8.46021 18.13948,-11.35829 35.05991,-6.47303c16.92043,4.88526 28.65699,15.70389 26.21437,24.1641c-2.44262,8.46021 -18.13948,11.35829 -35.05991,6.47303c-16.92043,-4.88526 -28.65699,-15.70389 -26.21437,-24.1641z" data-paper-data="{&quot;index&quot;:null}"/></g><g data-paper-data="{&quot;index&quot;:null}" fill="#ff8800" stroke="#ff8800" stroke-width="0.5" stroke-linecap="butt"><path d="M374.25817,285.79745c0.1205,21.32919 -7.55471,38.66384 -17.14306,38.71801c-9.58836,0.05417 -17.45895,-17.19264 -17.57945,-38.52184c-0.1205,-21.32919 7.55471,-38.66384 17.14306,-38.71801c9.58836,-0.05417 17.45895,17.19264 17.57945,38.52184z"/><path d="M363.69302,259.09733c-2.34688,8.48728 -18.00998,11.56253 -34.98453,6.86877c-16.97454,-4.69376 -28.83261,-15.3791 -26.48573,-23.86637c2.34688,-8.48728 18.00998,-11.56253 34.98453,-6.86877c16.97454,4.69376 28.83261,15.3791 26.48573,23.86637z"/><path d="M338.92207,335.79358c-16.92043,4.88526 -32.61729,1.98718 -35.05991,-6.47303c-2.44262,-8.46021 9.29394,-19.27884 26.21437,-24.1641c16.92043,-4.88526 32.61729,-1.98718 35.05991,6.47303c2.44262,8.46021 -9.29394,19.27884 -26.21437,24.1641z" data-paper-data="{&quot;index&quot;:null}"/></g><path d="M229.5,146.5h14.33333l21,10.33333l-25,22l-24.33333,-24.66667z" fill="#ff8800" stroke="#ff8800" stroke-width="0.5" stroke-linecap="round"/></g></g></svg>