<svg version="1.1" xmlns="http://www.w3.org/2000/svg" xmlns:xlink="http://www.w3.org/1999/xlink" width="430.63795" height="171.42317" viewBox="0,0,430.63795,171.42317"><g transform="translate(-36.34938,-70.04883)"><g data-paper-data="{&quot;isPaintingLayer&quot;:true}" fill-rule="nonzero" stroke-linecap="butt" stroke-linejoin="miter" stroke-miterlimit="10" stroke-dasharray="" stroke-dashoffset="0" style="mix-blend-mode: normal"><g fill="#ff8800" stroke="#ff8800" stroke-width="0.5"><path d="M57.02837,155.98808c-0.4694,-12.39899 21.50922,-23.2968 49.09061,-24.34099c27.5814,-1.04418 50.32106,8.16069 50.79047,20.55969c0.4694,12.39899 -21.50922,23.2968 -49.09061,24.34099c-27.5814,1.04418 -50.32106,-8.16069 -50.79047,-20.55969z"/><path d="M40.36145,131.49284c-7.02313,-21.68083 -3.92861,-42.10325 6.91181,-45.61481c10.8404,-3.51157 25.32167,11.21753 32.34478,32.89835c7.02313,21.68083 3.92861,42.10325 -6.91181,45.61481c-10.8404,3.51157 -25.32167,-11.21753 -32.34478,-32.89835z"/><path d="M140.70157,163.3018c-11.07488,-2.68189 -15.70465,-22.8119 -10.34086,-44.96167c5.36379,-22.14976 18.68994,-37.93157 29.7648,-35.2497c11.07488,2.68189 15.70465,22.8119 10.34086,44.96167c-5.36379,22.14976 -18.68994,37.93157 -29.7648,35.2497z" data-paper-data="{&quot;index&quot;:null}"/></g><g data-paper-data="{&quot;index&quot;:null}" fill="#ff8800" stroke="#ff8800" stroke-width="0.5"><path d="M385.26922,170.79659c-27.08224,-5.32687 -47.09551,-19.51461 -44.70086,-31.68919c2.39465,-12.17459 26.2904,-17.72579 53.37265,-12.39892c27.08224,5.32687 47.09551,19.51461 44.70086,31.68919c-2.39465,12.17459 -26.2904,17.72579 -53.37265,12.39892z"/><path d="M421.84661,164.25661c-10.16126,-5.15696 -10.03752,-25.81213 0.27641,-46.13469c10.31392,-20.32252 26.91235,-32.61665 37.07359,-27.45967c10.16126,5.15696 10.03752,25.81213 -0.27641,46.13469c-10.31392,20.32252 -26.91235,32.61665 -37.07359,27.45967z"/><path d="M330.93856,113.13615c-1.84881,-22.71484 5.85943,-41.87825 17.21685,-42.80264c11.35741,-0.92439 22.06317,16.74021 23.91199,39.45505c1.84881,22.71484 -5.85943,41.87825 -17.21685,42.80264c-11.35741,0.92439 -22.06317,-16.74021 -23.91199,-39.45505z" data-paper-data="{&quot;index&quot;:null}"/></g><path d="M182.74276,179.35833c0,-34.30443 27.80923,-62.11366 62.11366,-62.11366c34.30443,0 62.11366,27.80923 62.11366,62.11366c0,34.30443 -27.80923,62.11366 -62.11366,62.11366c-34.30443,0 -62.11366,-27.80923 -62.11366,-62.11366z" fill="#ff8800" stroke="none" stroke-width="NaN"/><path d="M233.42579,172.10262c0,12.2686 -3.37959,22.21427 -7.54853,22.21427c-4.16894,0 -7.54853,-9.94567 -7.54853,-22.21427c0,-12.2686 3.37959,-22.21427 7.54853,-22.21427c4.16894,0 7.54853,9.94567 7.54853,22.21427z" fill="#000000" stroke="none" stroke-width="0"/><path d="M273.10951,172.31829c0,12.2686 -3.37959,22.21425 -7.54854,22.21425c-4.16894,0 -7.54853,-9.94567 -7.54853,-22.21425c0,-12.2686 3.37959,-22.21427 7.54853,-22.21427c4.16894,0 7.54854,9.94567 7.54854,22.21427z" fill="#000000" stroke="none" stroke-width="0"/><g fill="#d97400" stroke="none" stroke-width="0"><path d="M253.52822,119.21827c0,-8.3076 6.73463,-15.04223 15.04223,-15.04223c8.3076,0 15.04223,6.73463 15.04223,15.04223c0,8.3076 -6.73463,15.04223 -15.04223,15.04223c-8.3076,0 -15.04223,-6.73463 -15.04223,-15.04223z"/><path d="M234.0069,87.37622c3.19572,-2.3992 12.75622,2.24461 21.35394,10.37226c8.59772,8.12766 12.9769,16.66138 9.78118,19.06059c-3.19573,2.39922 -12.75622,-2.24461 -21.35394,-10.37226c-8.59772,-8.12766 -12.9769,-16.66138 -9.78118,-19.06059z" data-paper-data="{&quot;index&quot;:null}"/><path d="M223.25209,110.0666c1.33694,-3.76582 11.87101,-5.18059 23.52849,-3.15994c11.65748,2.02065 20.02392,6.71152 18.68697,10.47735c-1.33694,3.76583 -11.87101,5.18059 -23.52849,3.15994c-11.65748,-2.02065 -20.02392,-6.71152 -18.68697,-10.47735z" data-paper-data="{&quot;index&quot;:null}"/><path d="M303.82827,150.91771c-3.19573,2.3992 -12.75622,-2.24461 -21.35394,-10.37227c-8.59772,-8.12766 -12.9769,-16.66138 -9.78118,-19.06059c3.19573,-2.39922 12.75622,2.24461 21.35394,10.37227c8.59772,8.12766 12.9769,16.66138 9.78118,19.06059z" data-paper-data="{&quot;index&quot;:null}"/><path d="M314.58307,128.22733c-1.33696,3.76582 -11.87101,5.18059 -23.52849,3.15994c-11.65748,-2.02065 -20.02392,-6.71152 -18.68696,-10.47735c1.33694,-3.76583 11.87099,-5.18059 23.52847,-3.15994c11.65748,2.02065 20.02392,6.71152 18.68697,10.47735z" data-paper-data="{&quot;index&quot;:null}"/></g></g></g></svg>