<svg version="1.1" xmlns="http://www.w3.org/2000/svg" xmlns:xlink="http://www.w3.org/1999/xlink" width="630.48428" height="315.53002" viewBox="0,0,630.48428,315.53002"><g transform="translate(-25.29571,-22.28263)"><g data-paper-data="{&quot;isPaintingLayer&quot;:true}" fill-rule="nonzero" stroke-linejoin="miter" stroke-miterlimit="10" stroke-dasharray="" stroke-dashoffset="0" style="mix-blend-mode: normal"><path d="M202.43274,166.51632l-38.47884,19.9794l-66.59799,54.01837l-13.3196,30.33908l14.05958,5.91982l19.9794,24.41926l-31.81904,31.81904l7.39978,-28.85913l-14.05958,-14.79955l5.17984,17.75946l-18.49944,26.6392l2.21993,-28.11915l-9.61971,-24.41926l-17.01949,25.15924l-3.69989,30.33908l-12.57962,-36.25891l25.15924,-30.33908l2.21993,-34.03897l27.37917,-39.95879l45.87862,-31.81904l77.69766,-17.01949z" fill="#ff8800" stroke="#ff8800" stroke-width="0.5" stroke-linecap="round"/><path d="M182.08336,156.52662c0,-33.10295 26.83525,-59.93819 59.93819,-59.93819c33.10295,0 59.93819,26.83525 59.93819,59.93819c0,33.10295 -26.83525,59.93819 -59.93819,59.93819c-33.10295,0 -59.93819,-26.83525 -59.93819,-59.93819z" fill="#ff8800" stroke="none" stroke-width="0" stroke-linecap="butt"/><path d="M267.24812,149.52825l86.5562,-88.98929l79.96995,-34.61647l75.52474,-3.38704l46.95513,25.09189l60.94316,-8.36691l37.70909,46.5406l-43.26896,-20.08258l-47.37204,1.84191l24.45063,32.86524l39.107,20.21625l-50.55299,2.58502l-19.27821,-21.49404l8.04068,30.82843l44.35421,13.95858l-68.3903,15.97715l-15.91826,-46.59948l3.73152,-23.51497l-51.19188,-7.32936l-126.4652,43.80128l-58.17913,34.55758z" data-paper-data="{&quot;index&quot;:null}" fill="#ff8800" stroke="#ff8800" stroke-width="0.5" stroke-linecap="round"/><path d="M197.99288,148.01688c0,-11.03432 8.94508,-19.9794 19.9794,-19.9794c11.03432,0 19.9794,8.94508 19.9794,19.9794c0,11.03432 -8.94508,19.9794 -19.9794,19.9794c-11.03432,0 -19.9794,-8.94508 -19.9794,-19.9794z" fill="#000000" stroke="#000000" stroke-width="2.5" stroke-linecap="butt"/><path d="M246.8314,148.75686c0,-11.03432 8.94508,-19.9794 19.9794,-19.9794c11.03432,0 19.9794,8.94508 19.9794,19.9794c0,11.03432 -8.94508,19.9794 -19.9794,19.9794c-11.03432,0 -19.9794,-8.94508 -19.9794,-19.9794z" fill="#000000" stroke="#000000" stroke-width="2.5" stroke-linecap="butt"/><path d="M212.05245,148.75686c0,-3.26943 2.65039,-5.91982 5.91982,-5.91982c3.26943,0 5.91982,2.65039 5.91982,5.91982c0,3.26943 -2.65039,5.91982 -5.91982,5.91982c-3.26943,0 -5.91982,-2.65039 -5.91982,-5.91982z" fill="#ff8800" stroke="#ff8800" stroke-width="0.5" stroke-linecap="butt"/><path d="M256.45111,149.49683c0,-6.13018 4.96948,-11.09967 11.09967,-11.09967c6.13018,0 11.09967,4.96948 11.09967,11.09967c0,6.13017 -4.96948,11.09967 -11.09967,11.09967c-6.13018,0 -11.09967,-4.96949 -11.09967,-11.09967z" fill="#ff8800" stroke="#ff8800" stroke-width="0.5" stroke-linecap="butt"/><path d="M195.77295,121.37768l-5.17984,-27.37917l22.93931,18.49944z" fill="#ff8800" stroke="#ff8800" stroke-width="0.5" stroke-linecap="round"/><path d="M270.6021,109.74746l25.73925,-14.35034l-9.73878,26.10759z" data-paper-data="{&quot;index&quot;:null}" fill="#ff8800" stroke="#ff8800" stroke-width="0.5" stroke-linecap="round"/></g></g></svg>