<svg version="1.1" xmlns="http://www.w3.org/2000/svg" xmlns:xlink="http://www.w3.org/1999/xlink" width="461.45868" height="328.82751" viewBox="0,0,461.45868,328.82751"><g transform="translate(107.20995,112.39327)"><g data-paper-data="{&quot;isPaintingLayer&quot;:true}" fill-rule="nonzero" stroke-linejoin="miter" stroke-miterlimit="10" stroke-dasharray="" stroke-dashoffset="0" style="mix-blend-mode: normal"><path d="M195.10561,215.68424l153.15315,-61.56156" fill="none" stroke="#bd6500" stroke-width="1.5" stroke-linecap="round"/><path d="M264.16799,153.61647l-153.15315,61.56156" fill="none" stroke="#bd6500" stroke-width="1.5" stroke-linecap="round"/><path d="M79.92247,147.32516l-153.15315,61.56156" fill="none" stroke="#bd6500" stroke-width="1.5" stroke-linecap="round"/><path d="M174.68468,147.71772l-153.15315,61.56156" fill="none" stroke="#bd6500" stroke-width="1.5" stroke-linecap="round"/><text transform="translate(-72.40447,195.11646) scale(0.94288,0.94288)" font-size="40" xml:space="preserve" fill="#ffffff" fill-rule="nonzero" stroke="#ffffff" stroke-width="3" stroke-linecap="butt" stroke-linejoin="miter" stroke-miterlimit="10" stroke-dasharray="" stroke-dashoffset="0" font-family="Pixel" font-weight="normal" text-anchor="start" style="mix-blend-mode: normal"><tspan x="0" dy="0">Spin Eternally Part 2</tspan></text><path d="M131.67695,138.40266l33.54908,-15.12071" fill="none" stroke="#bd6500" stroke-width="1.5" stroke-linecap="round"/><path d="M232.79673,124.69951l-32.13152,16.06576" fill="none" stroke="#bd6500" stroke-width="1.5" stroke-linecap="round"/><path d="M294.22462,126.11708l-29.7689,13.70315" fill="none" stroke="#bd6500" stroke-width="1.5" stroke-linecap="round"/><path d="M328.99447,140.29275l22.68107,-13.70315" fill="none" stroke="#bd6500" stroke-width="1.5" stroke-linecap="round"/><text transform="translate(119.04446,136.44639) scale(0.31165,0.31165)" font-size="40" xml:space="preserve" fill="#ffffff" fill-rule="nonzero" stroke="none" stroke-width="1" stroke-linecap="butt" stroke-linejoin="miter" stroke-miterlimit="10" stroke-dasharray="" stroke-dashoffset="0" font-family="Pixel" font-weight="normal" text-anchor="start" style="mix-blend-mode: normal"><tspan x="0" dy="0">Comment if you want another boss!</tspan></text><path d="M219.81927,107.21619l37.32926,-20.79098" fill="none" stroke="#bd6500" stroke-width="1.5" stroke-linecap="round"/><path d="M329.44444,85.48016l-46.30718,22.20855" fill="none" stroke="#bd6500" stroke-width="1.5" stroke-linecap="round"/><text transform="translate(204.92673,104.85339) scale(0.45159,0.45159)" font-size="40" xml:space="preserve" fill="#ffffff" fill-rule="nonzero" stroke="none" stroke-width="1" stroke-linecap="butt" stroke-linejoin="miter" stroke-miterlimit="10" stroke-dasharray="" stroke-dashoffset="0" font-family="Pixel" font-weight="normal" text-anchor="start" style="mix-blend-mode: normal"><tspan x="0" dy="0">Space to DASH</tspan></text><path d="M347.40028,1.2337l-35.91169,31.18647" fill="none" stroke="#bd6500" stroke-width="1.5" stroke-linecap="round"/><text transform="translate(303.85163,28.28755) scale(0.72186,0.72186)" font-size="40" xml:space="preserve" fill="#ffffff" fill-rule="nonzero" stroke="none" stroke-width="1" stroke-linecap="butt" stroke-linejoin="miter" stroke-miterlimit="10" stroke-dasharray="" stroke-dashoffset="0" font-family="Pixel" font-weight="normal" text-anchor="start" style="mix-blend-mode: normal"><tspan x="0" dy="0">#4</tspan></text><text transform="translate(-104.494,-46.20613) scale(0.61886,0.61886)" font-size="40" xml:space="preserve" fill="#ffffff" fill-rule="nonzero" stroke="#ffffff" stroke-width="1" stroke-linecap="butt" stroke-linejoin="miter" stroke-miterlimit="10" stroke-dasharray="" stroke-dashoffset="0" font-family="Pixel" font-weight="normal" text-anchor="start" style="mix-blend-mode: normal"><tspan x="0" dy="0">Just One Boss Master</tspan></text><path d="M-107.20995,-96.6275c0,-8.70719 7.05857,-15.76577 15.76577,-15.76577c8.70719,0 15.76577,7.05857 15.76577,15.76577c0,8.70719 -7.05857,15.76577 -15.76577,15.76577c-8.70719,0 -15.76577,-7.05857 -15.76577,-15.76577z" fill="#fb9300" stroke="none" stroke-width="0" stroke-linecap="butt"/><path d="M-69.17692,-96.132c0,-8.70719 7.05858,-15.76577 15.76576,-15.76577c8.70719,0 15.76576,7.05858 15.76576,15.76577c0,8.70719 -7.05857,15.76577 -15.76576,15.76577c-8.70719,0 -15.76576,-7.05858 -15.76576,-15.76577z" fill="#fb9300" stroke="none" stroke-width="0" stroke-linecap="butt"/><path d="M-29.64238,-95.63652c0,-8.70719 7.05857,-15.76577 15.76576,-15.76577c8.70719,0 15.76577,7.05858 15.76577,15.76577c0,8.70719 -7.05858,15.76577 -15.76577,15.76577c-8.70719,0 -15.76576,-7.05858 -15.76576,-15.76577z" fill="#fb9300" stroke="none" stroke-width="0" stroke-linecap="butt"/><path d="M9.39666,-95.63652c0,-8.70719 7.05857,-15.76577 15.76576,-15.76577c8.70719,0 15.76577,7.05858 15.76577,15.76577c0,8.70719 -7.05858,15.76577 -15.76577,15.76577c-8.70719,0 -15.76576,-7.05858 -15.76576,-15.76577z" fill="#fb9300" stroke="none" stroke-width="0" stroke-linecap="butt"/><path d="M47.42969,-95.14102c0,-8.70719 7.05857,-15.76577 15.76577,-15.76577c8.70719,0 15.76577,7.05858 15.76577,15.76577c0,8.70719 -7.05858,15.76577 -15.76577,15.76577c-8.70719,0 -15.76577,-7.05858 -15.76577,-15.76577z" fill="#fb9300" stroke="none" stroke-width="0" stroke-linecap="butt"/></g></g></svg>