<svg version="1.1" xmlns="http://www.w3.org/2000/svg" xmlns:xlink="http://www.w3.org/1999/xlink" width="279.38789" height="208.63741" viewBox="0,0,279.38789,208.63741"><g transform="translate(-79.64922,-111.78493)"><g data-paper-data="{&quot;isPaintingLayer&quot;:true}" fill-rule="nonzero" stroke-linecap="butt" stroke-linejoin="miter" stroke-miterlimit="10" stroke-dasharray="" stroke-dashoffset="0" style="mix-blend-mode: normal"><path d="M197.57182,173.89953c5.21532,-25.9916 30.51352,-42.83409 56.50511,-37.61878c25.9916,5.21532 42.83409,30.51352 37.61878,56.50511c-5.21532,25.9916 -30.51352,42.83409 -56.50511,37.61878c-25.9916,-5.21532 -42.83409,-30.51352 -37.61878,-56.50511z" fill="#ff8800" stroke="none" stroke-width="NaN"/><path d="M237.07615,176.10742c-1.8652,9.29561 -5.93788,16.31738 -9.09657,15.68358c-3.1587,-0.63381 -4.20729,-8.68318 -2.34209,-17.97879c1.8652,-9.29561 5.93788,-16.31738 9.09657,-15.68358c3.1587,0.63381 4.20729,8.68318 2.34209,17.97879z" fill="#000000" stroke="none" stroke-width="0"/><path d="M267.11071,182.30397c-1.8652,9.29561 -5.93787,16.31737 -9.09658,15.68357c-3.1587,-0.63381 -4.20729,-8.68318 -2.34209,-17.97878c1.8652,-9.29561 5.93788,-16.31738 9.09657,-15.68358c3.1587,0.63381 4.2073,8.68319 2.3421,17.97879z" fill="#000000" stroke="none" stroke-width="0"/><path d="M231.73911,182.09106c-1.23139,6.13691 -3.5953,10.83782 -5.27995,10.49979c-1.68464,-0.33803 -2.05207,-5.587 -0.82067,-11.7239c1.23139,-6.13691 3.5953,-10.83782 5.27995,-10.49979c1.68464,0.33803 2.05207,5.587 0.82067,11.7239z" fill="#ff8800" stroke="#ff8800" stroke-width="0.5"/><path d="M265.37457,179.66076c-1.23139,6.1369 -3.59531,10.83783 -5.27995,10.4998c-1.68464,-0.33803 -2.05207,-5.587 -0.82067,-11.72391c1.23139,-6.1369 3.5953,-10.83782 5.27995,-10.49979c1.68464,0.33803 2.05207,5.587 0.82067,11.7239z" fill="#ff8800" stroke="#ff8800" stroke-width="0.5"/><g fill="#d97400" stroke="none" stroke-width="0"><path d="M260.34728,139.09447c1.26301,-6.29446 7.38954,-10.37325 13.684,-9.11024c6.29446,1.26301 10.37325,7.38954 9.11024,13.684c-1.26301,6.29446 -7.38954,10.37325 -13.684,9.11024c-6.29446,-1.26301 -10.37325,-7.38954 -9.11024,-13.684z"/><path d="M250.39744,112.00073c2.78607,-1.33197 9.32381,3.64001 14.60244,11.10524c5.27862,7.46524 7.29923,14.59679 4.51316,15.92876c-2.78608,1.33198 -9.32381,-3.64001 -14.60244,-11.10524c-5.27862,-7.46524 -7.29923,-14.59679 -4.51316,-15.92876z" data-paper-data="{&quot;index&quot;:null}"/><path d="M238.79916,127.55759c1.58549,-2.65001 9.78197,-2.12045 18.30734,1.18284c8.52538,3.30329 14.15126,8.1294 12.56577,10.77941c-1.58549,2.65002 -9.78197,2.12045 -18.30734,-1.18284c-8.52538,-3.30329 -14.15126,-8.1294 -12.56577,-10.77941z" data-paper-data="{&quot;index&quot;:null}"/><path d="M293.63908,170.75947c-2.78608,1.33197 -9.32381,-3.64001 -14.60244,-11.10525c-5.27862,-7.46524 -7.29923,-14.59679 -4.51316,-15.92876c2.78608,-1.33198 9.32381,3.64001 14.60244,11.10525c5.27862,7.46524 7.29923,14.59679 4.51316,15.92876z" data-paper-data="{&quot;index&quot;:null}"/><path d="M305.23734,155.2026c-1.5855,2.65001 -9.78197,2.12045 -18.30734,-1.18284c-8.52538,-3.30329 -14.15126,-8.1294 -12.56576,-10.77941c1.58549,-2.65002 9.78196,-2.12045 18.30733,1.18284c8.52538,3.30329 14.15126,8.1294 12.56577,10.77941z" data-paper-data="{&quot;index&quot;:null}"/></g><g fill="#ff8800" stroke="#ff8800" stroke-width="0.5"><path d="M85.00092,215.68369c3.20788,-9.03598 22.10302,-10.57631 42.20347,-3.44042c20.10046,7.13589 33.79459,20.24578 30.58671,29.28177c-3.20788,9.03598 -22.10302,10.57631 -42.20347,3.44042c-20.10046,-7.13589 -33.79459,-20.24578 -30.58671,-29.28177z"/><path d="M80.03822,193.33237c1.15636,-17.57355 9.21685,-31.351 18.00363,-30.77282c8.78677,0.57817 14.97245,15.29306 13.81609,32.8666c-1.15636,17.57355 -9.21685,31.351 -18.00363,30.77282c-8.78677,-0.57817 -14.97245,-15.29306 -13.81609,-32.8666z"/><path d="M142.98265,244.8568c-7.1844,-5.09176 -4.75312,-20.86767 5.43043,-35.23646c10.18355,-14.36879 24.26302,-21.88929 31.44742,-16.79754c7.1844,5.09176 4.75312,20.86767 -5.43043,35.23646c-10.18355,14.36879 -24.26302,21.88929 -31.44742,16.79754z" data-paper-data="{&quot;index&quot;:null}"/></g><g data-paper-data="{&quot;index&quot;:null}" fill="#ff8800" stroke="#ff8800" stroke-width="0.5"><path d="M355.71032,254.52821c5.84766,20.51228 3.11295,39.27182 -6.10816,41.90058c-9.22112,2.62877 -21.4368,-11.86868 -27.28447,-32.38097c-5.84766,-20.51228 -3.11295,-39.27182 6.10816,-41.90058c9.22112,-2.62877 21.4368,11.86868 27.28447,32.38097z"/><path d="M338.3589,231.64926c0.02015,8.80575 -14.24044,15.9769 -31.85195,16.0172c-17.6115,0.0403 -31.90478,-7.0655 -31.92492,-15.87124c-0.02015,-8.80575 14.24044,-15.9769 31.85195,-16.0172c17.6115,-0.0403 31.90478,7.0655 31.92492,15.87124z"/><path d="M335.10897,312.18095c-14.98529,9.25244 -30.88357,10.67904 -35.50978,3.1864c-4.62621,-7.49264 3.77146,-21.0672 18.75675,-30.31965c14.98529,-9.25244 30.88357,-10.67904 35.50978,-3.1864c4.62621,7.49264 -3.77146,21.0672 -18.75675,30.31965z" data-paper-data="{&quot;index&quot;:null}"/></g></g></g></svg>