<svg version="1.1" xmlns="http://www.w3.org/2000/svg" xmlns:xlink="http://www.w3.org/1999/xlink" width="400.58877" height="409.76945" viewBox="0,0,400.58877,409.76945"><g transform="translate(-44.20562,-4.34842)"><g data-paper-data="{&quot;isPaintingLayer&quot;:true}" fill-rule="nonzero" stroke-linejoin="miter" stroke-miterlimit="10" stroke-dasharray="" stroke-dashoffset="0" style="mix-blend-mode: normal"><path d="M255.14621,253.41732c-32.76457,4.72096 -63.15262,-18.01288 -67.87358,-50.77746c-4.72096,-32.76457 18.01288,-63.15262 50.77746,-67.87358c32.76457,-4.72096 63.15262,18.01288 67.87358,50.77746c4.72096,32.76457 -18.01288,63.15262 -50.77746,67.87358z" data-paper-data="{&quot;index&quot;:null}" fill="#ff8800" stroke="none" stroke-width="0" stroke-linecap="butt"/><path d="M200.4381,221.16123l-35.23617,25.26282l-58.21344,62.96405l-8.85666,31.92853l14.76012,3.85421l23.25772,21.3203l-26.95594,36.03165l3.20841,-29.61946l-16.0265,-12.64317l7.65965,16.83921l-14.51121,29.00519l-1.81296,-28.14832l-13.00392,-22.79774l-13.25745,27.3293l0.66472,30.55662l-17.62208,-34.09425l20.57528,-33.61704l-2.65721,-34.00763l21.4006,-43.45501l40.87181,-38.03675l74.47623,-27.92634z" data-paper-data="{&quot;index&quot;:null}" fill="#ff8800" stroke="#ff8800" stroke-width="0.5" stroke-linecap="round"/><path d="M272.03734,202.01444c-10.92153,1.57366 -21.05088,-6.00429 -22.62453,-16.92582c-1.57366,-10.92153 6.00429,-21.05088 16.92582,-22.62453c10.92153,-1.57366 21.05088,6.00429 22.62453,16.92582c1.57366,10.92153 -6.00429,21.05088 -16.92582,22.62453z" data-paper-data="{&quot;index&quot;:null}" fill="#000000" stroke="#000000" stroke-width="2.5" stroke-linecap="butt"/><path d="M223.80356,209.71194c-10.92153,1.57366 -21.05088,-6.00429 -22.62453,-16.92582c-1.57366,-10.92153 6.00429,-21.05088 16.92582,-22.62453c10.92153,-1.57366 21.05088,6.00429 22.62453,16.92582c1.57366,10.92153 -6.00429,21.05088 -16.92582,22.62453z" data-paper-data="{&quot;index&quot;:null}" fill="#000000" stroke="#000000" stroke-width="2.5" stroke-linecap="butt"/><path d="M281.03386,194.33329c-3.23601,0.46627 -6.23729,-1.77905 -6.70356,-5.01506c-0.46627,-3.23601 1.77905,-6.23729 5.01506,-6.70356c3.23601,-0.46627 6.23729,1.77905 6.70356,5.01506c0.46627,3.23601 -1.77905,6.23729 -5.01506,6.70356z" data-paper-data="{&quot;index&quot;:null}" fill="#ff8800" stroke="#ff8800" stroke-width="1.5" stroke-linecap="butt"/><path d="M214.41139,198.80011c-6.06753,0.87425 -11.69494,-3.33573 -12.56919,-9.40324c-0.87425,-6.06753 3.33572,-11.69494 9.40324,-12.56919c6.06753,-0.87425 11.69494,3.33572 12.56919,9.40324c0.87425,6.06752 -3.33572,11.69494 -9.40324,12.56919z" data-paper-data="{&quot;index&quot;:null}" fill="#ff8800" stroke="#ff8800" stroke-width="0.5" stroke-linecap="butt"/><path d="M288.56191,197.30507l35.23617,-25.26282l58.21344,-62.96405l8.85666,-31.92853l-14.76012,-3.85421l-23.25772,-21.3203l26.95594,-36.03165l-3.20841,29.61946l16.0265,12.64317l-7.65965,-16.83921l14.51121,-29.00519l1.81296,28.14832l13.00392,22.79774l13.25745,-27.3293l-0.66472,-30.55662l17.62208,34.09425l-20.57528,33.61704l2.65721,34.00763l-21.4006,43.45501l-40.87181,38.03675l-74.47623,27.92634z" data-paper-data="{&quot;index&quot;:null}" fill="#ff8800" stroke="#ff8800" stroke-width="0.5" stroke-linecap="round"/><path d="M266.20409,142.72277l20.06654,-21.58182l-1.22223,27.83803z" data-paper-data="{&quot;index&quot;:null}" fill="#ff8800" stroke="#ff8800" stroke-width="0.5" stroke-linecap="round"/><path d="M195.30794,163.04812l-13.36255,-24.45183l27.52272,10.53286z" data-paper-data="{&quot;index&quot;:null}" fill="#ff8800" stroke="#ff8800" stroke-width="0.5" stroke-linecap="round"/></g></g></svg>