<svg version="1.1" xmlns="http://www.w3.org/2000/svg" xmlns:xlink="http://www.w3.org/1999/xlink" width="922.81373" height="516.37374" viewBox="0,0,922.81373,516.37374"><g transform="translate(-192,192.60439)"><g data-paper-data="{&quot;isPaintingLayer&quot;:true}" fill-rule="nonzero" stroke-linejoin="miter" stroke-miterlimit="10" stroke-dasharray="" stroke-dashoffset="0" style="mix-blend-mode: normal"><path d="M192,180c0,-26.50967 21.49033,-48 48,-48c26.50967,0 48,21.49033 48,48c0,26.50967 -21.49033,48 -48,48c-26.50967,0 -48,-21.49033 -48,-48z" fill="#ff8800" stroke="none" stroke-width="NaN" stroke-linecap="butt"/><path d="M231.16667,174.39295c0,9.48089 -2.61167,17.16667 -5.83333,17.16667c-3.22166,0 -5.83333,-7.68578 -5.83333,-17.16667c0,-9.48089 2.61167,-17.16667 5.83333,-17.16667c3.22166,0 5.83333,7.68578 5.83333,17.16667z" fill="#000000" stroke="none" stroke-width="0" stroke-linecap="butt"/><path d="M261.83333,174.55962c0,9.48089 -2.61167,17.16666 -5.83334,17.16666c-3.22166,0 -5.83333,-7.68578 -5.83333,-17.16666c0,-9.48089 2.61167,-17.16667 5.83333,-17.16667c3.22166,0 5.83334,7.68578 5.83334,17.16667z" fill="#000000" stroke="none" stroke-width="0" stroke-linecap="butt"/><path d="M230.94478,180.92017c0,6.25923 -1.39289,11.33333 -3.11111,11.33333c-1.71822,0 -3.11111,-5.07411 -3.11111,-11.33333c0,-6.25923 1.39289,-11.33333 3.11111,-11.33333c1.71822,0 3.11111,5.07411 3.11111,11.33333z" fill="#ff8800" stroke="#ff8800" stroke-width="0.5" stroke-linecap="butt"/><path d="M261.44478,178.86439c0,6.25922 -1.39289,11.33334 -3.11111,11.33334c-1.71822,0 -3.11111,-5.07411 -3.11111,-11.33334c0,-6.25922 1.39289,-11.33333 3.11111,-11.33333c1.71822,0 3.11111,5.07411 3.11111,11.33333z" fill="#ff8800" stroke="#ff8800" stroke-width="0.5" stroke-linecap="butt"/><g fill="#d97400" stroke="none" stroke-width="0" stroke-linecap="butt"><path d="M247.47925,133.52517c0,-6.41992 5.20437,-11.62429 11.62429,-11.62429c6.41992,0 11.62429,5.20437 11.62429,11.62429c0,6.41992 -5.20437,11.62429 -11.62429,11.62429c-6.41992,0 -11.62429,-5.20437 -11.62429,-11.62429z"/><path d="M232.39363,108.91835c2.46958,-1.85405 9.85771,1.73458 16.50183,8.01544c6.64412,6.28087 10.02825,12.87553 7.55867,14.72958c-2.46959,1.85406 -9.85771,-1.73458 -16.50183,-8.01544c-6.64412,-6.28087 -10.02825,-12.87553 -7.55867,-14.72958z" data-paper-data="{&quot;index&quot;:null}"/><path d="M224.08256,126.45295c1.03316,-2.91014 9.17364,-4.00344 18.18227,-2.44193c9.00863,1.56151 15.47402,5.18651 14.44086,8.09665c-1.03316,2.91015 -9.17364,4.00344 -18.18227,2.44193c-9.00863,-1.56151 -15.47402,-5.18651 -14.44086,-8.09665z" data-paper-data="{&quot;index&quot;:null}"/><path d="M286.34997,158.02174c-2.46959,1.85405 -9.85771,-1.73458 -16.50183,-8.01545c-6.64412,-6.28087 -10.02825,-12.87553 -7.55867,-14.72958c2.46959,-1.85406 9.85771,1.73458 16.50183,8.01545c6.64412,6.28087 10.02825,12.87553 7.55867,14.72958z" data-paper-data="{&quot;index&quot;:null}"/><path d="M294.66103,140.48714c-1.03317,2.91014 -9.17364,4.00344 -18.18227,2.44193c-9.00863,-1.56151 -15.47402,-5.18651 -14.44085,-8.09665c1.03316,-2.91015 9.17363,-4.00344 18.18226,-2.44193c9.00863,1.56151 15.47402,5.18651 14.44086,8.09665z" data-paper-data="{&quot;index&quot;:null}"/></g><g fill="#ff8800" stroke="#ff8800" stroke-width="0.5" stroke-linecap="butt"><path d="M278.93718,248.19896c8.87409,-3.63179 22.6172,9.42676 30.6961,29.16707c8.0789,19.74033 7.43425,38.68718 -1.43984,42.31898c-8.87409,3.63179 -22.6172,-9.42676 -30.6961,-29.16707c-8.0789,-19.74033 -7.43425,-38.68718 1.43984,-42.31898z"/><path d="M292.29088,229.60087c13.8709,-10.85196 29.51409,-14.0269 34.94007,-7.09145c5.42598,6.93544 -1.41999,21.35499 -15.29087,32.20693c-13.8709,10.85196 -29.51409,14.0269 -34.94007,7.09145c-5.42598,-6.93544 1.41999,-21.35499 15.29087,-32.20693z"/><path d="M295.83897,310.86699c-0.99326,-8.74957 12.38742,-17.45289 29.88658,-19.43938c17.49916,-1.9865 32.49019,3.49606 33.48345,12.24562c0.99326,8.74957 -12.38742,17.45289 -29.88658,19.43938c-17.49916,1.9865 -32.49019,-3.49606 -33.48345,-12.24562z" data-paper-data="{&quot;index&quot;:null}"/></g><g data-paper-data="{&quot;index&quot;:null}" fill="#ff8800" stroke="#ff8800" stroke-width="0.5" stroke-linecap="butt"><path d="M319.31314,191.87889c-9.22462,-19.23162 -9.69417,-38.18362 -1.04877,-42.33047c8.64541,-4.14685 23.13194,8.08177 32.35657,27.31339c9.22462,19.23162 9.69417,38.18362 1.04877,42.33047c-8.64541,4.14685 -23.13194,-8.08177 -32.35657,-27.31339z"/><path d="M340.27591,211.50238c-1.50555,-8.67612 11.34071,-18.15047 28.69295,-21.16157c17.35223,-3.01109 32.63948,1.58131 34.14502,10.25743c1.50555,8.67612 -11.34071,18.15047 -28.69295,21.16157c-17.35223,3.01109 -32.63948,-1.58131 -34.14502,-10.25743z"/><path d="M329.89214,131.57684c13.20942,-11.64809 28.63909,-15.73655 34.46312,-9.13184c5.82403,6.60471 -0.16299,21.40151 -13.37241,33.04959c-13.20942,11.64809 -28.63909,15.73655 -34.46312,9.13184c-5.82403,-6.60471 0.16299,-21.40151 13.37241,-33.04959z" data-paper-data="{&quot;index&quot;:null}"/></g><path d="M229.5,146.50001h14.33333l21,10.33333l-25,22l-24.33333,-24.66667z" fill="#ff8800" stroke="#ff8800" stroke-width="0.5" stroke-linecap="round"/><path d="M330.51881,169.30392l770.36612,-361.57578l13.59627,28.96794l-770.36612,361.57578z" fill="#ff8800" stroke="#ff8800" stroke-width="0.5" stroke-linecap="butt"/><path d="M282.51881,271.30392l770.36612,-361.57577l13.59627,28.96793l-770.36612,361.57577z" fill="#ff8800" stroke="#ff8800" stroke-width="0.5" stroke-linecap="butt"/></g></g></svg>