<svg version="1.1" xmlns="http://www.w3.org/2000/svg" xmlns:xlink="http://www.w3.org/1999/xlink" width="833.02825" height="385.28919" viewBox="0,0,833.02825,385.28919"><g transform="translate(377.88157,-109.95052)"><g data-paper-data="{&quot;isPaintingLayer&quot;:true}" fill-rule="nonzero" stroke-linejoin="miter" stroke-miterlimit="10" stroke-dasharray="" stroke-dashoffset="0" style="mix-blend-mode: normal"><path d="M190.87285,171.92643c3.99115,-26.20751 28.47199,-44.21742 54.67949,-40.22627c26.20751,3.99115 44.21742,28.47199 40.22627,54.67949c-3.99115,26.20751 -28.47199,44.21742 -54.67949,40.22627c-26.20751,-3.99115 -44.21742,-28.47199 -40.22627,-54.67949z" fill="#ff8800" stroke="none" stroke-width="NaN" stroke-linecap="butt"/><path d="M230.43725,172.28c-1.42739,9.37282 -5.16642,16.5778 -8.35136,16.09277c-3.18494,-0.48503 -4.60971,-8.47641 -3.18232,-17.84923c1.42739,-9.37282 5.16642,-16.5778 8.35136,-16.09277c3.18494,0.48503 4.60971,8.47641 3.18232,17.84923z" fill="#000000" stroke="none" stroke-width="0" stroke-linecap="butt"/><path d="M260.72927,177.06177c-1.42739,9.37282 -5.16642,16.57779 -8.35137,16.09276c-3.18494,-0.48503 -4.60971,-8.47641 -3.18232,-17.84922c1.42739,-9.37282 5.16642,-16.5778 8.35136,-16.09277c3.18494,0.48503 4.60972,8.47641 3.18233,17.84923z" fill="#000000" stroke="none" stroke-width="0" stroke-linecap="butt"/><path d="M224.20479,176.30422c-0.94235,6.18789 -3.0833,10.99444 -4.78193,10.73576c-1.69864,-0.25869 -2.31172,-5.48467 -1.36937,-11.67254c0.94235,-6.18789 3.0833,-10.99444 4.78193,-10.73576c1.69864,0.25869 2.31172,5.48467 1.36937,11.67254z" fill="#ff8800" stroke="#ff8800" stroke-width="0.5" stroke-linecap="butt"/><path d="M256.25907,181.69153c-0.94235,6.18788 -3.0833,10.99445 -4.78193,10.73577c-1.69864,-0.25869 -2.31172,-5.48467 -1.36937,-11.67255c0.94235,-6.18788 3.0833,-10.99444 4.78193,-10.73576c1.69864,0.25869 2.31172,5.48467 1.36937,11.67254z" fill="#ff8800" stroke="#ff8800" stroke-width="0.5" stroke-linecap="butt"/><g fill="#d97400" stroke="none" stroke-width="0" stroke-linecap="butt"><path d="M256.43764,138.00532c1.86343,-6.14353 8.35435,-9.61324 14.49788,-7.74981c6.14353,1.86343 9.61324,8.35435 7.74981,14.49788c-1.86343,6.14353 -8.35435,9.61324 -14.49788,7.74981c-6.14353,-1.86343 -9.61324,-8.35435 -7.74981,-14.49788z"/><path d="M249.14379,110.07914c2.90141,-1.05742 8.92985,4.52118 13.46486,12.46014c4.53501,7.93897 5.8593,15.23199 2.95789,16.28941c-2.90143,1.05742 -8.92985,-4.52118 -13.46486,-12.46014c-4.53501,-7.93897 -5.8593,-15.23199 -2.95789,-16.28941z" data-paper-data="{&quot;index&quot;:null}"/><path d="M236.10097,124.4465c1.83337,-2.48497 9.94073,-1.16837 18.10829,2.94074c8.16756,4.10911 13.30242,9.45467 11.46905,11.93964c-1.83337,2.48498 -9.94073,1.16837 -18.10829,-2.94074c-8.16756,-4.10911 -13.30242,-9.45467 -11.46905,-11.93964z" data-paper-data="{&quot;index&quot;:null}"/><path d="M286.52461,172.72979c-2.90142,1.05741 -8.92985,-4.52118 -13.46486,-12.46015c-4.53501,-7.93897 -5.8593,-15.23199 -2.95789,-16.28941c2.90143,-1.05742 8.92985,4.52118 13.46486,12.46015c4.53501,7.93897 5.8593,15.23199 2.95789,16.28941z" data-paper-data="{&quot;index&quot;:null}"/><path d="M299.56742,158.36243c-1.83338,2.48497 -9.94073,1.16837 -18.10829,-2.94074c-8.16756,-4.10911 -13.30242,-9.45467 -11.46904,-11.93964c1.83337,-2.48498 9.94072,-1.16837 18.10828,2.94073c8.16756,4.10911 13.30242,9.45467 11.46905,11.93964z" data-paper-data="{&quot;index&quot;:null}"/></g><g fill="#ff8800" stroke="#ff8800" stroke-width="0.5" stroke-linecap="butt"><path d="M110.92191,170.33286c9.06823,-3.11556 22.03778,10.71158 28.96831,30.88374c6.93053,20.17217 5.19757,39.05063 -3.87067,42.16619c-9.06823,3.11556 -22.03778,-10.71158 -28.96831,-30.88374c-6.93053,-20.17217 -5.19757,-39.05063 3.87067,-42.16619z"/><path d="M125.32286,152.53333c14.47191,-10.03647 30.27177,-12.30674 35.29001,-5.07078c5.01823,7.23594 -2.64547,21.23801 -17.11738,31.27447c-14.47191,10.03647 -30.27177,12.30674 -35.29001,5.07078c-5.01823,-7.23594 2.64547,-21.23801 17.11738,-31.27447z"/><path d="M124.19255,233.86902c-0.48854,-8.7922 13.37041,-16.71177 30.95484,-17.68885c17.58442,-0.97706 32.23543,5.35835 32.72398,14.15054c0.48854,8.7922 -13.37041,16.71177 -30.95484,17.68885c-17.58442,0.97706 -32.23543,-5.35835 -32.72398,-14.15054z" data-paper-data="{&quot;index&quot;:null}"/></g><path d="M232.98898,144.45406l14.16996,2.15795l19.20491,13.3772l-28.02724,17.98538l-20.34231,-28.049z" fill="#ff8800" stroke="#ff8800" stroke-width="0.5" stroke-linecap="round"/><g fill="#ff8800" stroke="#ff8800" stroke-width="0.5" stroke-linecap="butt"><g data-paper-data="{&quot;index&quot;:null}"><path d="M450.34633,174.34081c7.18883,20.08157 5.6983,38.9807 -3.32919,42.21238c-9.02751,3.23168 -22.17345,-10.42785 -29.36228,-30.50944c-7.18883,-20.08157 -5.6983,-38.9807 3.32919,-42.21238c9.02751,-3.23168 22.17345,10.42785 29.36228,30.50944z"/><path d="M431.52261,152.65703c0.60133,8.78523 -13.15483,16.882 -30.72528,18.08466c-17.57043,1.20266 -32.30156,-4.94422 -32.90289,-13.72943c-0.60133,-8.78523 13.15483,-16.882 30.72528,-18.08466c17.57043,-1.20266 32.30156,4.94422 32.90289,13.72943z"/><path d="M433.59527,233.2276c-14.3419,10.22137 -30.11134,12.69422 -35.22202,5.52327c-5.11067,-7.17096 2.3727,-21.2702 16.7146,-31.49158c14.3419,-10.22137 30.11134,-12.69422 35.22202,-5.52327c5.11067,7.17096 -2.3727,21.2702 -16.7146,31.49158z" data-paper-data="{&quot;index&quot;:null}"/></g><path d="M430.89123,197.29779l-797.25979,297.62027l-11.19136,-29.97922l797.25979,-297.62027z"/></g></g></g></svg>