<svg version="1.1" xmlns="http://www.w3.org/2000/svg" xmlns:xlink="http://www.w3.org/1999/xlink" width="475.30184" height="242.06945" viewBox="0,0,475.30184,242.06945"><g transform="translate(-4.05034,-20.41453)"><g data-paper-data="{&quot;isPaintingLayer&quot;:true}" fill-rule="nonzero" stroke-linejoin="miter" stroke-miterlimit="10" stroke-dasharray="" stroke-dashoffset="0" style="mix-blend-mode: normal"><path d="M176.62583,197.12074c0,-36.09913 29.26413,-65.36325 65.36325,-65.36325c36.09913,0 65.36325,29.26413 65.36325,65.36325c0,36.09913 -29.26413,65.36325 -65.36325,65.36325c-36.09913,0 -65.36325,-29.26413 -65.36325,-65.36325z" fill="#ff8800" stroke="none" stroke-width="0" stroke-linecap="butt"/><path d="M286.20788,209.29637l41.96159,-21.78775l72.62583,-58.90762l14.52517,-33.0851l-15.33212,-6.45563l-21.78775,-26.62947l34.69901,-34.69901l-8.06954,31.47119l15.33212,16.13907l-5.64867,-19.36688l20.17384,-29.05034l-2.42086,30.66424l10.4904,26.62947l18.55994,-27.43642l4.03477,-33.0851l13.71821,39.54073l-27.43642,33.0851l-2.42086,37.11987l-29.85728,43.57549l-50.03113,34.69901l-84.73014,18.55994z" data-paper-data="{&quot;index&quot;:null}" fill="#ff8800" stroke="#ff8800" stroke-width="0.5" stroke-linecap="round"/><path d="M193.97533,187.84077c0,-12.03305 9.75471,-21.78775 21.78775,-21.78775c12.03305,0 21.78775,9.75471 21.78775,21.78775c0,12.03305 -9.75471,21.78775 -21.78775,21.78775c-12.03305,0 -21.78775,-9.75471 -21.78775,-21.78775z" fill="#000000" stroke="#000000" stroke-width="2.5" stroke-linecap="butt"/><path d="M247.23427,188.64773c0,-12.03305 9.75471,-21.78775 21.78775,-21.78775c12.03305,0 21.78775,9.75471 21.78775,21.78775c0,12.03305 -9.75471,21.78775 -21.78775,21.78775c-12.03305,0 -21.78775,-9.75471 -21.78775,-21.78775z" fill="#000000" stroke="#000000" stroke-width="2.5" stroke-linecap="butt"/><path d="M198.40234,196.28131c0,-3.56535 2.89028,-6.45563 6.45563,-6.45563c3.56535,0 6.45563,2.89028 6.45563,6.45563c0,3.56535 -2.89028,6.45563 -6.45563,6.45563c-3.56535,0 -6.45563,-2.89028 -6.45563,-6.45563z" fill="#ff8800" stroke="#ff8800" stroke-width="1.5" stroke-linecap="butt"/><path d="M265.35824,185.09263c0,-6.68503 5.41927,-12.10431 12.10431,-12.10431c6.68503,0 12.10431,5.41927 12.10431,12.10431c0,6.68502 -5.41927,12.10431 -12.10431,12.10431c-6.68503,0 -12.10431,-5.41928 -12.10431,-12.10431z" fill="#ff8800" stroke="#ff8800" stroke-width="0.5" stroke-linecap="butt"/><path d="M198.80854,228.09614l-84.73014,-18.55994l-50.03113,-34.69901l-29.85728,-43.57549l-2.42086,-37.11987l-27.43642,-33.0851l13.71821,-39.54073l4.03477,33.0851l18.55994,27.43642l10.4904,-26.62947l-2.42086,-30.66424l20.17384,29.05034l-5.64867,19.36688l15.33212,-16.13907l-8.06954,-31.47119l34.69901,34.69901l-21.78775,26.62947l-15.33212,6.45563l14.52517,33.0851l72.62583,58.90762l41.96159,21.78775z" data-paper-data="{&quot;index&quot;:null}" fill="#ff8800" stroke="#ff8800" stroke-width="0.5" stroke-linecap="round"/><path d="M193.47119,154.40748l-5.64867,-29.85728l25.01557,20.17384z" fill="#ff8800" stroke="#ff8800" stroke-width="0.5" stroke-linecap="round"/><path d="M275.07319,142.81511l28.06893,-15.6492l-10.62025,28.47061z" data-paper-data="{&quot;index&quot;:null}" fill="#ff8800" stroke="#ff8800" stroke-width="0.5" stroke-linecap="round"/></g></g></svg>