<svg version="1.1" xmlns="http://www.w3.org/2000/svg" xmlns:xlink="http://www.w3.org/1999/xlink" width="1638.95159" height="759.52373" viewBox="0,0,1638.95159,759.52373"><g transform="translate(708.25249,-110.48319)"><g data-paper-data="{&quot;isPaintingLayer&quot;:true}" fill-rule="nonzero" stroke-linejoin="miter" stroke-miterlimit="10" stroke-dasharray="" stroke-dashoffset="0" style="mix-blend-mode: normal"><g><path d="M191.73306,182.05308c0,-26.50967 21.49033,-48 48,-48c26.50967,0 48,21.49033 48,48c0,26.50967 -21.49033,48 -48,48c-26.50967,0 -48,-21.49033 -48,-48z" fill="#ff8800" stroke="none" stroke-width="NaN" stroke-linecap="butt"/><path d="M230.89973,176.44603c0,9.48089 -2.61167,17.16667 -5.83333,17.16667c-3.22166,0 -5.83333,-7.68578 -5.83333,-17.16667c0,-9.48089 2.61167,-17.16667 5.83333,-17.16667c3.22166,0 5.83333,7.68578 5.83333,17.16667z" fill="#000000" stroke="none" stroke-width="0" stroke-linecap="butt"/><path d="M261.56639,176.6127c0,9.48089 -2.61167,17.16666 -5.83334,17.16666c-3.22166,0 -5.83333,-7.68578 -5.83333,-17.16666c0,-9.48089 2.61167,-17.16667 5.83333,-17.16667c3.22166,0 5.83334,7.68578 5.83334,17.16667z" fill="#000000" stroke="none" stroke-width="0" stroke-linecap="butt"/><path d="M228.34417,181.41747c0,6.25923 -1.39289,11.33333 -3.11111,11.33333c-1.71822,0 -3.11111,-5.07411 -3.11111,-11.33333c0,-6.25923 1.39289,-11.33333 3.11111,-11.33333c1.71822,0 3.11111,5.07411 3.11111,11.33333z" fill="#ff8800" stroke="#ff8800" stroke-width="0.5" stroke-linecap="butt"/><path d="M258.84417,181.69536c0,6.25922 -1.39289,11.33334 -3.11111,11.33334c-1.71822,0 -3.11111,-5.07411 -3.11111,-11.33334c0,-6.25922 1.39289,-11.33333 3.11111,-11.33333c1.71822,0 3.11111,5.07411 3.11111,11.33333z" fill="#ff8800" stroke="#ff8800" stroke-width="0.5" stroke-linecap="butt"/><g fill="#d97400" stroke="none" stroke-width="0" stroke-linecap="butt"><path d="M247.21231,135.57825c0,-6.41992 5.20437,-11.62429 11.62429,-11.62429c6.41992,0 11.62429,5.20437 11.62429,11.62429c0,6.41992 -5.20437,11.62429 -11.62429,11.62429c-6.41992,0 -11.62429,-5.20437 -11.62429,-11.62429z"/><path d="M232.12669,110.97143c2.46958,-1.85405 9.85771,1.73458 16.50183,8.01544c6.64412,6.28087 10.02825,12.87553 7.55867,14.72958c-2.46959,1.85406 -9.85771,-1.73458 -16.50183,-8.01544c-6.64412,-6.28087 -10.02825,-12.87553 -7.55867,-14.72958z" data-paper-data="{&quot;index&quot;:null}"/><path d="M223.81562,128.50603c1.03316,-2.91014 9.17364,-4.00344 18.18227,-2.44193c9.00863,1.56151 15.47402,5.18651 14.44086,8.09665c-1.03316,2.91015 -9.17364,4.00344 -18.18227,2.44193c-9.00863,-1.56151 -15.47402,-5.18651 -14.44086,-8.09665z" data-paper-data="{&quot;index&quot;:null}"/><path d="M286.08303,160.07482c-2.46959,1.85405 -9.85771,-1.73458 -16.50183,-8.01545c-6.64412,-6.28087 -10.02825,-12.87553 -7.55867,-14.72958c2.46959,-1.85406 9.85771,1.73458 16.50183,8.01545c6.64412,6.28087 10.02825,12.87553 7.55867,14.72958z" data-paper-data="{&quot;index&quot;:null}"/><path d="M294.39409,142.54021c-1.03317,2.91014 -9.17364,4.00344 -18.18227,2.44193c-9.00863,-1.56151 -15.47402,-5.18651 -14.44085,-8.09665c1.03316,-2.91015 9.17363,-4.00344 18.18226,-2.44193c9.00863,1.56151 15.47402,5.18651 14.44086,8.09665z" data-paper-data="{&quot;index&quot;:null}"/></g><path d="M229.23306,148.55309h14.33333l21,10.33333l-25,22l-24.33333,-24.66667z" fill="#ff8800" stroke="#ff8800" stroke-width="0.5" stroke-linecap="round"/><g fill="#ff8800" stroke="#ff8800" stroke-width="0.5" stroke-linecap="butt"><g><path d="M137.84744,219.1237c-9.58753,-0.13639 -17.11382,-17.5362 -16.81045,-38.86358c0.30338,-21.32738 8.32157,-38.50607 17.9091,-38.36969c9.58753,0.13639 17.11382,17.5362 16.81045,38.86358c-0.30338,21.32738 -8.32157,38.50607 -17.9091,38.36969z"/><path d="M118.27346,231.00097c-17.01418,4.54805 -32.65032,1.33859 -34.92434,-7.16849c-2.27403,-8.50708 9.67524,-19.09036 26.68939,-23.63839c17.01418,-4.54805 32.65032,-1.33859 34.92434,7.16849c2.27403,8.50708 -9.67524,19.09036 -26.68939,23.63839z"/><path d="M146.85665,154.84474c-2.51506,8.43895 -18.23621,11.20234 -35.11412,6.17216c-16.87792,-5.03016 -28.52128,-15.94904 -26.00621,-24.38798c2.51506,-8.43895 18.23621,-11.20234 35.11412,-6.17216c16.87792,5.03016 28.52128,15.94904 26.00621,24.38798z" data-paper-data="{&quot;index&quot;:null}"/></g><path d="M143.60693,196.46327l-850.4441,30.75423l-1.15645,-31.97908l850.4441,-30.75423z"/></g><g fill="#ff8800" stroke="#ff8800" stroke-width="0.5" stroke-linecap="butt"><g data-paper-data="{&quot;index&quot;:null}"><path d="M323.03904,223.57139c15.42945,-14.72687 33.30435,-21.0425 39.92468,-14.10633c6.62034,6.93618 -0.52085,24.49757 -15.95029,39.22444c-15.42946,14.72688 -33.30435,21.0425 -39.92468,14.10633c-6.62034,-6.93618 0.52084,-24.49756 15.95029,-39.22444z"/><path d="M310.87212,249.58072c7.78334,-4.11841 20.77023,5.16226 29.00702,20.72897c8.23679,15.56669 8.60439,31.5246 0.82104,35.643c-7.78334,4.11841 -20.77023,-5.16226 -29.00704,-20.72897c-8.23679,-15.56669 -8.60439,-31.5246 -0.82104,-35.643z"/><path d="M383.65275,214.95569c15.16622,8.95279 23.83202,22.3578 19.35562,29.94089c-4.47639,7.5831 -20.39987,6.47275 -35.56608,-2.48005c-15.16622,-8.9528 -23.83202,-22.3578 -19.35562,-29.94089c4.47639,-7.5831 20.39987,-6.47275 35.56609,2.48004z" data-paper-data="{&quot;index&quot;:null}"/></g><path d="M347.97443,227.23506l582.37129,620.51969l-23.33329,21.8988l-582.37129,-620.51969z"/></g></g></g></g></svg>