<svg version="1.1" xmlns="http://www.w3.org/2000/svg" xmlns:xlink="http://www.w3.org/1999/xlink" width="453.45169" height="288.03436" viewBox="0,0,453.45169,288.03436"><g transform="translate(-79.14893,-127.37739)"><g data-paper-data="{&quot;isPaintingLayer&quot;:true}" fill-rule="nonzero" stroke-linejoin="miter" stroke-miterlimit="10" stroke-dasharray="" stroke-dashoffset="0" style="mix-blend-mode: normal"><path d="M180.32574,194.5458c0,-33.10295 26.83525,-59.93819 59.93819,-59.93819c33.10295,0 59.93819,26.83525 59.93819,59.93819c0,33.10295 -26.83525,59.93819 -59.93819,59.93819c-33.10295,0 -59.93819,-26.83525 -59.93819,-59.93819z" fill="#ff8800" stroke="none" stroke-width="0" stroke-linecap="butt"/><path d="M282.43133,179.36403l70.15934,-38.46984l55.62572,-6.16444l46.8729,12.26451l23.88805,24.41064l38.9114,6.41959l14.08659,35.89075l-22.59987,-20.61842l-29.34592,-7.86717l8.61448,24.93072l20.02707,19.90986l-31.4361,-8.01314l-7.64568,-16.92965l-1.03442,20.55464l24.44696,17.04516l-44.93885,-3.13824l-0.73995,-31.78533l6.82589,-13.80347l-29.91194,-14.25343l-85.85348,2.99573l-42.2791,10.26984z" data-paper-data="{&quot;index&quot;:null}" fill="#ff8800" stroke="#ff8800" stroke-width="0.5" stroke-linecap="round"/><path d="M196.23526,186.03606c0,-11.03432 8.94508,-19.9794 19.9794,-19.9794c11.03432,0 19.9794,8.94508 19.9794,19.9794c0,11.03432 -8.94508,19.9794 -19.9794,19.9794c-11.03432,0 -19.9794,-8.94508 -19.9794,-19.9794z" fill="#000000" stroke="#000000" stroke-width="2.5" stroke-linecap="butt"/><path d="M245.07378,186.77604c0,-11.03432 8.94508,-19.9794 19.9794,-19.9794c11.03432,0 19.9794,8.94508 19.9794,19.9794c0,11.03432 -8.94508,19.9794 -19.9794,19.9794c-11.03432,0 -19.9794,-8.94508 -19.9794,-19.9794z" fill="#000000" stroke="#000000" stroke-width="2.5" stroke-linecap="butt"/><path d="M202.29483,195.77604c0,-3.26943 2.65039,-5.91982 5.91982,-5.91982c3.26943,0 5.91982,2.65039 5.91982,5.91982c0,3.26943 -2.65039,5.91982 -5.91982,5.91982c-3.26943,0 -5.91982,-2.65039 -5.91982,-5.91982z" fill="#ff8800" stroke="#ff8800" stroke-width="1.5" stroke-linecap="butt"/><path d="M251.69349,196.51601c0,-6.13018 4.96948,-11.09967 11.09967,-11.09967c6.13018,0 11.09967,4.96948 11.09967,11.09967c0,6.13017 -4.96948,11.09967 -11.09967,11.09967c-6.13018,0 -11.09967,-4.96949 -11.09967,-11.09967z" fill="#ff8800" stroke="#ff8800" stroke-width="0.5" stroke-linecap="butt"/><path d="M227.55687,222.44609l35.0561,37.39958l82.79812,58.50801l38.79386,5.44859l2.23737,-17.89677l21.39767,-30.55583l46.39969,26.03002l-35.2146,0.81534l-12.34384,20.73905l18.55494,-11.57999l36.24083,12.52831l-32.71439,6.47393l-24.71366,18.76494l34.0827,11.31762l35.71472,-5.50008l-37.24153,25.92347l-42.58356,-18.92388l-39.45204,8.36879l-54.24281,-18.37136l-50.89996,-42.03194l-44.24068,-82.98393z" data-paper-data="{&quot;index&quot;:null}" fill="#ff8800" stroke="#ff8800" stroke-width="0.5" stroke-linecap="round"/><path d="M195.77296,155.37768l-5.17984,-27.37917l22.93931,18.49944z" fill="#ff8800" stroke="#ff8800" stroke-width="0.5" stroke-linecap="round"/><path d="M270.60211,144.74746l25.73925,-14.35034l-9.73878,26.10759z" data-paper-data="{&quot;index&quot;:null}" fill="#ff8800" stroke="#ff8800" stroke-width="0.5" stroke-linecap="round"/><path d="M448.536,333.7722l-106.69855,34.34601l-141.55033,6.18017l-105.32719,-46.9471l120.56878,23.35034l125.7917,-1.16023l98.48578,-35.65661z" fill="#ff8800" stroke="#ff8800" stroke-width="0.5" stroke-linecap="round"/><path d="M451.06949,374.63323l-106.69855,34.34601l-141.55033,6.18017l-105.32719,-46.9471l120.56878,23.35034l125.7917,-1.16023l98.48578,-35.65661z" fill="#ff8800" stroke="#ff8800" stroke-width="0.5" stroke-linecap="round"/><path d="M434.82115,298.28602l-106.69855,34.34601l-141.55033,6.18017l-105.32719,-46.9471l120.56878,23.35034l125.7917,-1.16023l98.48578,-35.65661z" fill="#ff8800" stroke="#ff8800" stroke-width="0.5" stroke-linecap="round"/></g></g></svg>