<svg version="1.1" xmlns="http://www.w3.org/2000/svg" xmlns:xlink="http://www.w3.org/1999/xlink" width="337.32944" height="208.84484" viewBox="0,0,337.32944,208.84484"><g transform="translate(-78.0108,-112.49094)"><g data-paper-data="{&quot;isPaintingLayer&quot;:true}" fill-rule="nonzero" stroke-linecap="butt" stroke-linejoin="miter" stroke-miterlimit="10" stroke-dasharray="" stroke-dashoffset="0" style="mix-blend-mode: normal"><path d="M188.32413,191.30431c-5.58094,-25.91555 10.90352,-51.44849 36.81907,-57.02943c25.91555,-5.58094 51.44849,10.90352 57.02943,36.81907c5.58094,25.91555 -10.90352,51.44849 -36.81907,57.02943c-25.91555,5.58094 -51.44849,-10.90352 -57.02943,-36.81907z" fill="#ff8800" stroke="none" stroke-width="NaN"/><path d="M225.43259,177.57738c1.99596,9.26841 1.06087,17.33176 -2.08859,18.01c-3.14946,0.67824 -7.32064,-6.28547 -9.3166,-15.55388c-1.99596,-9.26841 -1.06087,-17.33176 2.08859,-18.01c3.14946,-0.67824 7.32064,6.28547 9.3166,15.55388z" fill="#000000" stroke="none" stroke-width="0"/><path d="M255.44706,171.28423c1.99596,9.26841 1.06086,17.33175 -2.0886,18.00999c-3.14946,0.67824 -7.32064,-6.28547 -9.3166,-15.55387c-1.99596,-9.26841 -1.06087,-17.33176 2.08859,-18.01c3.14946,-0.67824 7.32065,6.28547 9.31661,15.55388z" fill="#000000" stroke="none" stroke-width="0"/><path d="M222.92405,185.19283c1.31772,6.11895 1.02427,11.37257 -0.65544,11.7343c-1.67971,0.36173 -4.10961,-4.30543 -5.42733,-10.42437c-1.31772,-6.11895 -1.02427,-11.37257 0.65544,-11.7343c1.67971,-0.36173 4.10961,4.30543 5.42733,10.42437z" fill="#ff8800" stroke="#ff8800" stroke-width="0.5"/><path d="M252.80096,169.55249c1.31772,6.11894 1.02427,11.37258 -0.65544,11.73431c-1.67971,0.36173 -4.10961,-4.30543 -5.42733,-10.42438c-1.31772,-6.11894 -1.02427,-11.37257 0.65544,-11.7343c1.67971,-0.36173 4.10961,4.30543 5.42733,10.42437z" fill="#ff8800" stroke="#ff8800" stroke-width="0.5"/><g fill="#d97400" stroke="none" stroke-width="0"><path d="M232.01546,134.35505c-1.35155,-6.27604 2.64053,-12.45942 8.91658,-13.81097c6.27604,-1.35155 12.45942,2.64053 13.81097,8.91658c1.35155,6.27604 -2.64053,12.45942 -8.91658,13.81097c-6.27604,1.35155 -12.45942,-2.64053 -13.81097,-8.91658z"/><path d="M212.08759,113.47562c2.02391,-2.33241 10.00196,-0.37958 17.81945,4.36176c7.81749,4.74136 12.51412,10.47578 10.49021,12.80818c-2.02392,2.33242 -10.00196,0.37958 -17.81945,-4.36176c-7.81749,-4.74136 -12.51412,-10.47578 -10.49021,-12.80818z" data-paper-data="{&quot;index&quot;:null}"/><path d="M207.65425,132.36693c0.39735,-3.06243 8.12522,-5.84499 17.26069,-6.21502c9.13547,-0.37002 16.21911,1.81261 15.82176,4.87504c-0.39735,3.06243 -8.12522,5.84499 -17.26069,6.21502c-9.13547,0.37002 -16.21911,-1.81261 -15.82176,-4.87504z" data-paper-data="{&quot;index&quot;:null}"/><path d="M275.17216,150.1194c-2.02392,2.33241 -10.00196,0.37958 -17.81945,-4.36177c-7.81749,-4.74136 -12.51412,-10.47578 -10.49021,-12.80818c2.02392,-2.33242 10.00196,-0.37958 17.81945,4.36177c7.81749,4.74136 12.51412,10.47578 10.49021,12.80818z" data-paper-data="{&quot;index&quot;:null}"/><path d="M279.60549,131.22809c-0.39736,3.06243 -8.12522,5.84499 -17.26069,6.21502c-9.13547,0.37002 -16.21911,-1.81261 -15.82175,-4.87504c0.39735,-3.06243 8.12521,-5.84499 17.26068,-6.21501c9.13547,-0.37002 16.21911,1.81261 15.82176,4.87504z" data-paper-data="{&quot;index&quot;:null}"/></g><g fill="#ff8800" stroke="#ff8800" stroke-width="0.5"><path d="M173.67826,278.98394c-7.06609,6.48149 -24.48242,-1.00654 -38.90043,-16.72499c-14.41803,-15.71845 -20.37794,-33.71506 -13.31185,-40.19656c7.06609,-6.48149 24.48242,1.00654 38.90043,16.72499c14.41803,15.71845 20.37794,33.71506 13.31185,40.19656z"/><path d="M167.59549,301.05678c-9.25179,14.9857 -22.82597,23.38398 -30.31882,18.75808c-7.49286,-4.62588 -6.06696,-20.52422 3.18482,-35.50993c9.25179,-14.9857 22.82597,-23.38398 30.31882,-18.75808c7.49286,4.62588 6.06696,20.52422 -3.18482,35.50993z"/><path d="M136.11043,226.05371c3.96326,7.86348 -5.57312,20.66378 -21.30009,28.59027c-15.72696,7.9265 -31.68901,7.97756 -35.65227,0.1141c-3.96326,-7.86348 5.57312,-20.66378 21.30009,-28.59027c15.72696,-7.9265 31.68901,-7.97756 35.65227,-0.1141z" data-paper-data="{&quot;index&quot;:null}"/></g><g data-paper-data="{&quot;index&quot;:null}" fill="#ff8800" stroke="#ff8800" stroke-width="0.5"><path d="M342.47259,226.8443c-19.54537,-8.53976 -32.27793,-22.58543 -28.43896,-31.37187c3.83897,-8.78645 22.79573,-8.98646 42.34111,-0.44669c19.54537,8.53976 32.27793,22.58543 28.43896,31.37187c-3.83897,8.78645 -22.79573,8.98646 -42.34111,0.44669z"/><path d="M371.16315,228.015c-6.80626,-5.58718 -3.26522,-21.15159 7.90915,-34.7641c11.17436,-13.6125 25.75053,-20.11832 32.55677,-14.53113c6.80626,5.58718 3.26522,21.15159 -7.90915,34.7641c-11.17436,13.6125 -25.75053,20.11832 -32.55677,14.53113z"/><path d="M311.10262,174.26885c2.39646,-17.44774 11.41127,-30.62057 20.13513,-29.42234c8.72386,1.19824 13.85324,16.31376 11.45678,33.7615c-2.39646,17.44774 -11.41127,30.62057 -20.13513,29.42234c-8.72386,-1.19824 -13.85324,-16.31376 -11.45678,-33.7615z" data-paper-data="{&quot;index&quot;:null}"/></g></g></g></svg>