<svg version="1.1" xmlns="http://www.w3.org/2000/svg" xmlns:xlink="http://www.w3.org/1999/xlink" width="1903.42262" height="148.60731" viewBox="0,0,1903.42262,148.60731"><g transform="translate(708.59875,-81.44576)"><g data-paper-data="{&quot;isPaintingLayer&quot;:true}" fill-rule="nonzero" stroke-linejoin="miter" stroke-miterlimit="10" stroke-dasharray="" stroke-dashoffset="0" style="mix-blend-mode: normal"><path d="M191.73306,182.05307c0,-26.50967 21.49033,-48 48,-48c26.50967,0 48,21.49033 48,48c0,26.50967 -21.49033,48 -48,48c-26.50967,0 -48,-21.49033 -48,-48z" fill="#ff8800" stroke="none" stroke-width="NaN" stroke-linecap="butt"/><path d="M230.89973,176.44602c0,9.48089 -2.61167,17.16667 -5.83333,17.16667c-3.22166,0 -5.83333,-7.68578 -5.83333,-17.16667c0,-9.48089 2.61167,-17.16667 5.83333,-17.16667c3.22166,0 5.83333,7.68578 5.83333,17.16667z" fill="#000000" stroke="none" stroke-width="0" stroke-linecap="butt"/><path d="M261.56639,176.61269c0,9.48089 -2.61167,17.16666 -5.83334,17.16666c-3.22166,0 -5.83333,-7.68578 -5.83333,-17.16666c0,-9.48089 2.61167,-17.16667 5.83333,-17.16667c3.22166,0 5.83334,7.68578 5.83334,17.16667z" fill="#000000" stroke="none" stroke-width="0" stroke-linecap="butt"/><path d="M228.34417,181.41746c0,6.25923 -1.39289,11.33333 -3.11111,11.33333c-1.71822,0 -3.11111,-5.07411 -3.11111,-11.33333c0,-6.25923 1.39289,-11.33333 3.11111,-11.33333c1.71822,0 3.11111,5.07411 3.11111,11.33333z" fill="#ff8800" stroke="#ff8800" stroke-width="0.5" stroke-linecap="butt"/><path d="M258.84417,181.69535c0,6.25922 -1.39289,11.33334 -3.11111,11.33334c-1.71822,0 -3.11111,-5.07411 -3.11111,-11.33334c0,-6.25922 1.39289,-11.33333 3.11111,-11.33333c1.71822,0 3.11111,5.07411 3.11111,11.33333z" fill="#ff8800" stroke="#ff8800" stroke-width="0.5" stroke-linecap="butt"/><g fill="#d97400" stroke="none" stroke-width="0" stroke-linecap="butt"><path d="M247.21231,135.57824c0,-6.41992 5.20437,-11.62429 11.62429,-11.62429c6.41992,0 11.62429,5.20437 11.62429,11.62429c0,6.41992 -5.20437,11.62429 -11.62429,11.62429c-6.41992,0 -11.62429,-5.20437 -11.62429,-11.62429z"/><path d="M232.12669,110.97142c2.46958,-1.85405 9.85771,1.73458 16.50183,8.01544c6.64412,6.28087 10.02825,12.87553 7.55867,14.72958c-2.46959,1.85406 -9.85771,-1.73458 -16.50183,-8.01544c-6.64412,-6.28087 -10.02825,-12.87553 -7.55867,-14.72958z" data-paper-data="{&quot;index&quot;:null}"/><path d="M223.81562,128.50602c1.03316,-2.91014 9.17364,-4.00344 18.18227,-2.44193c9.00863,1.56151 15.47402,5.18651 14.44086,8.09665c-1.03316,2.91015 -9.17364,4.00344 -18.18227,2.44193c-9.00863,-1.56151 -15.47402,-5.18651 -14.44086,-8.09665z" data-paper-data="{&quot;index&quot;:null}"/><path d="M286.08303,160.07481c-2.46959,1.85405 -9.85771,-1.73458 -16.50183,-8.01545c-6.64412,-6.28087 -10.02825,-12.87553 -7.55867,-14.72958c2.46959,-1.85406 9.85771,1.73458 16.50183,8.01545c6.64412,6.28087 10.02825,12.87553 7.55867,14.72958z" data-paper-data="{&quot;index&quot;:null}"/><path d="M294.39409,142.54021c-1.03317,2.91014 -9.17364,4.00344 -18.18227,2.44193c-9.00863,-1.56151 -15.47402,-5.18651 -14.44085,-8.09665c1.03316,-2.91015 9.17363,-4.00344 18.18226,-2.44193c9.00863,1.56151 15.47402,5.18651 14.44086,8.09665z" data-paper-data="{&quot;index&quot;:null}"/></g><g data-paper-data="{&quot;index&quot;:null}" fill="#ff8800" stroke="#ff8800" stroke-width="0.5" stroke-linecap="butt"><path d="M326.02276,177.64582c-2.14606,-21.22129 3.84779,-39.20664 13.38763,-40.17138c9.53985,-0.96474 19.01316,15.45644 21.15923,36.67773c2.14606,21.2213 -3.84779,39.20664 -13.38763,40.17138c-9.53985,0.96474 -19.01316,-15.45643 -21.15923,-36.67773z"/><path d="M339.07644,203.2216c1.53004,-8.67183 16.83019,-13.22105 34.17386,-10.16096c17.34366,3.06009 30.16313,12.57068 28.63308,21.24251c-1.53004,8.67183 -16.83019,13.22105 -34.17386,10.16097c-17.34366,-3.06009 -30.16313,-12.57068 -28.63308,-21.24251z"/><path d="M356.44984,124.51913c16.37986,-6.47048 32.28103,-5.07658 35.51625,3.11334c3.23523,8.18992 -7.42057,20.07451 -23.80043,26.54498c-16.37986,6.47047 -32.28103,5.07658 -35.51625,-3.11334c-3.23523,-8.18992 7.42058,-20.07452 23.80043,-26.54499z" data-paper-data="{&quot;index&quot;:null}"/></g><path d="M229.23306,148.55308h14.33333l21,10.33333l-25,22l-24.33333,-24.66667z" fill="#ff8800" stroke="#ff8800" stroke-width="0.5" stroke-linecap="round"/><path d="M344.22835,160.21732l847.37171,-78.49957l2.95181,31.86357l-847.37171,78.49957z" fill="#ff8800" stroke="#ff8800" stroke-width="0.5" stroke-linecap="butt"/><g fill="#ff8800" stroke="#ff8800" stroke-width="0.5" stroke-linecap="butt"><g><path d="M131.2725,214.44467c-9.50256,-1.28089 -14.89609,-19.45528 -12.04679,-40.59364c2.84931,-21.13837 12.8625,-37.23603 22.36507,-35.95515c9.50256,1.28089 14.89609,19.45528 12.04679,40.59364c-2.84931,21.13837 -12.8625,37.23603 -22.36507,35.95515z"/><path d="M110.41968,223.89824c-17.43569,2.48269 -32.57638,-2.57191 -33.81773,-11.28975c-1.24135,-8.71783 11.88677,-17.79766 29.32243,-20.28034c17.43569,-2.48269 32.57638,2.57191 33.81773,11.28975c1.24135,8.71783 -11.88677,17.79766 -29.32243,20.28034z"/><path d="M147.89695,151.7025c-3.5053,8.07802 -19.44399,8.94332 -35.60003,1.93267c-16.15605,-7.01063 -26.41146,-19.24239 -22.90616,-27.3204c3.5053,-8.07802 19.44399,-8.94332 35.60003,-1.93267c16.15605,7.01063 26.41146,19.24239 22.90616,27.3204z" data-paper-data="{&quot;index&quot;:null}"/></g><path d="M139.69811,192.63466l-848.02686,-71.07344l2.67256,-31.88819l848.02686,71.07344z"/></g></g></g></svg>