<svg version="1.1" xmlns="http://www.w3.org/2000/svg" xmlns:xlink="http://www.w3.org/1999/xlink" width="400.58876" height="409.76943" viewBox="0,0,400.58876,409.76943"><g transform="translate(-44.20563,-4.34843)"><g data-paper-data="{&quot;isPaintingLayer&quot;:true}" fill-rule="nonzero" stroke-linejoin="miter" stroke-miterlimit="10" stroke-dasharray="" stroke-dashoffset="0" style="mix-blend-mode: normal"><path d="M183.07634,185.54374c4.72096,-32.76458 35.10901,-55.49842 67.87358,-50.77746c32.76458,4.72096 55.49842,35.10901 50.77746,67.87358c-4.72096,32.76458 -35.10901,55.49842 -67.87358,50.77746c-32.76458,-4.72096 -55.49842,-35.10901 -50.77746,-67.87358z" fill="#ff8800" stroke="none" stroke-width="0" stroke-linecap="butt"/><path d="M289.84091,201.9074l74.47623,27.92634l40.87181,38.03675l21.4006,43.45501l-2.65721,34.00763l20.57528,33.61704l-17.62208,34.09425l0.66472,-30.55662l-13.25745,-27.3293l-13.00392,22.79774l-1.81296,28.14832l-14.51121,-29.00519l7.65965,-16.83921l-16.0265,12.64317l3.20841,29.61946l-26.95594,-36.03165l23.25772,-21.3203l14.76012,-3.85421l-8.85666,-31.92853l-58.21344,-62.96405l-35.23617,-25.26282z" data-paper-data="{&quot;index&quot;:null}" fill="#ff8800" stroke="#ff8800" stroke-width="0.5" stroke-linecap="round"/><path d="M200.03685,179.38991c1.57365,-10.92153 11.703,-18.49948 22.62453,-16.92582c10.92153,1.57365 18.49948,11.703 16.92582,22.62453c-1.57365,10.92153 -11.703,18.49948 -22.62453,16.92582c-10.92153,-1.57365 -18.49948,-11.703 -16.92582,-22.62453z" fill="#000000" stroke="#000000" stroke-width="2.5" stroke-linecap="butt"/><path d="M248.27063,187.08741c1.57365,-10.92153 11.703,-18.49948 22.62453,-16.92582c10.92153,1.57365 18.49948,11.703 16.92582,22.62453c-1.57365,10.92153 -11.703,18.49948 -22.62453,16.92582c-10.92153,-1.57365 -18.49948,-11.703 -16.92582,-22.62453z" fill="#000000" stroke="#000000" stroke-width="2.5" stroke-linecap="butt"/><path d="M202.95109,187.62973c0.46627,-3.23601 3.46755,-5.48133 6.70356,-5.01506c3.23601,0.46627 5.48133,3.46755 5.01506,6.70356c-0.46627,3.23601 -3.46755,5.48133 -6.70356,5.01506c-3.23601,-0.46627 -5.48133,-3.46755 -5.01506,-6.70356z" fill="#ff8800" stroke="#ff8800" stroke-width="1.5" stroke-linecap="butt"/><path d="M265.18538,186.23092c0.87425,-6.06752 6.50166,-10.27749 12.56919,-9.40324c6.06752,0.87425 10.27749,6.50166 9.40324,12.56919c-0.87425,6.06751 -6.50166,10.27749 -12.56919,9.40324c-6.06752,-0.87425 -10.27749,-6.50167 -9.40324,-12.56919z" fill="#ff8800" stroke="#ff8800" stroke-width="0.5" stroke-linecap="butt"/><path d="M199.1591,216.5589l-74.47623,-27.92634l-40.87181,-38.03675l-21.4006,-43.45501l2.65721,-34.00763l-20.57528,-33.61704l17.62208,-34.09425l-0.66472,30.55662l13.25745,27.3293l13.00392,-22.79774l1.81296,-28.14832l14.51121,29.00519l-7.65965,16.83921l16.0265,-12.64317l-3.20841,-29.61946l26.95594,36.03165l-23.25772,21.3203l-14.76012,3.85421l8.85666,31.92853l58.21344,62.96405l35.23617,25.26282z" data-paper-data="{&quot;index&quot;:null}" fill="#ff8800" stroke="#ff8800" stroke-width="0.5" stroke-linecap="round"/><path d="M203.95161,148.97898l-1.22223,-27.83803l20.06654,21.58182z" fill="#ff8800" stroke="#ff8800" stroke-width="0.5" stroke-linecap="round"/><path d="M279.5319,149.12915l27.52272,-10.53286l-13.36255,24.45183z" data-paper-data="{&quot;index&quot;:null}" fill="#ff8800" stroke="#ff8800" stroke-width="0.5" stroke-linecap="round"/></g></g></svg>