<svg version="1.1" xmlns="http://www.w3.org/2000/svg" xmlns:xlink="http://www.w3.org/1999/xlink" width="321.36812" height="140.15304" viewBox="0,0,321.36812,140.15304"><g transform="translate(-81.44329,-153.18972)"><g data-paper-data="{&quot;isPaintingLayer&quot;:true}" fill-rule="nonzero" stroke-linejoin="miter" stroke-miterlimit="10" stroke-dasharray="" stroke-dashoffset="0" style="mix-blend-mode: normal"><path d="M192,245.34277c0,-26.50967 21.49033,-48 48,-48c26.50967,0 48,21.49033 48,48c0,26.50967 -21.49033,48 -48,48c-26.50967,0 -48,-21.49033 -48,-48z" fill="#ff8800" stroke="none" stroke-width="NaN" stroke-linecap="butt"/><path d="M231.16667,239.73572c0,9.48089 -2.61167,17.16667 -5.83333,17.16667c-3.22166,0 -5.83333,-7.68578 -5.83333,-17.16667c0,-9.48089 2.61167,-17.16667 5.83333,-17.16667c3.22166,0 5.83333,7.68578 5.83333,17.16667z" fill="#000000" stroke="none" stroke-width="0" stroke-linecap="butt"/><path d="M261.83333,239.90239c0,9.48089 -2.61167,17.16666 -5.83334,17.16666c-3.22166,0 -5.83333,-7.68578 -5.83333,-17.16666c0,-9.48089 2.61167,-17.16667 5.83333,-17.16667c3.22166,0 5.83334,7.68578 5.83334,17.16667z" fill="#000000" stroke="none" stroke-width="0" stroke-linecap="butt"/><path d="M228.61111,240.48505c0,6.25923 -1.39289,11.33333 -3.11111,11.33333c-1.71822,0 -3.11111,-5.07411 -3.11111,-11.33333c0,-6.25923 1.39289,-11.33333 3.11111,-11.33333c1.71822,0 3.11111,5.07411 3.11111,11.33333z" fill="#ff8800" stroke="#ff8800" stroke-width="0.5" stroke-linecap="butt"/><path d="M259.11111,239.20716c0,6.25922 -1.39289,11.33334 -3.11111,11.33334c-1.71822,0 -3.11111,-5.07411 -3.11111,-11.33334c0,-6.25922 1.39289,-11.33333 3.11111,-11.33333c1.71822,0 3.11111,5.07411 3.11111,11.33333z" fill="#ff8800" stroke="#ff8800" stroke-width="0.5" stroke-linecap="butt"/><g fill="#d97400" stroke="none" stroke-width="0" stroke-linecap="butt"><path d="M247.47925,198.86794c0,-6.41992 5.20437,-11.62429 11.62429,-11.62429c6.41992,0 11.62429,5.20437 11.62429,11.62429c0,6.41992 -5.20437,11.62429 -11.62429,11.62429c-6.41992,0 -11.62429,-5.20437 -11.62429,-11.62429z"/><path d="M232.39363,174.26112c2.46958,-1.85405 9.85771,1.73458 16.50183,8.01544c6.64412,6.28087 10.02825,12.87553 7.55867,14.72958c-2.46959,1.85406 -9.85771,-1.73458 -16.50183,-8.01544c-6.64412,-6.28087 -10.02825,-12.87553 -7.55867,-14.72958z" data-paper-data="{&quot;index&quot;:null}"/><path d="M224.08256,191.79572c1.03316,-2.91014 9.17364,-4.00344 18.18227,-2.44193c9.00863,1.56151 15.47402,5.18651 14.44086,8.09665c-1.03316,2.91015 -9.17364,4.00344 -18.18227,2.44193c-9.00863,-1.56151 -15.47402,-5.18651 -14.44086,-8.09665z" data-paper-data="{&quot;index&quot;:null}"/><path d="M286.34997,223.36451c-2.46959,1.85405 -9.85771,-1.73458 -16.50183,-8.01545c-6.64412,-6.28087 -10.02825,-12.87553 -7.55867,-14.72958c2.46959,-1.85406 9.85771,1.73458 16.50183,8.01545c6.64412,6.28087 10.02825,12.87553 7.55867,14.72958z" data-paper-data="{&quot;index&quot;:null}"/><path d="M294.66103,205.82991c-1.03317,2.91014 -9.17364,4.00344 -18.18227,2.44193c-9.00863,-1.56151 -15.47402,-5.18651 -14.44085,-8.09665c1.03316,-2.91015 9.17363,-4.00344 18.18226,-2.44193c9.00863,1.56151 15.47402,5.18651 14.44086,8.09665z" data-paper-data="{&quot;index&quot;:null}"/></g><g fill="#ff8800" stroke="#ff8800" stroke-width="0.5" stroke-linecap="butt"><path d="M85.44481,197.84565c7.61288,-5.82953 24.29677,3.17307 37.2645,20.10785c12.96773,16.93479 17.30868,35.38892 9.69579,41.21845c-7.61288,5.82953 -24.29677,-3.17307 -37.2645,-20.10785c-12.96773,-16.93479 -17.30868,-35.38892 -9.69579,-41.21845z"/><path d="M93.46051,176.399c10.54391,-14.10648 24.80921,-21.26826 31.86245,-15.9963c7.05323,5.27195 4.22348,20.98128 -6.32042,35.08774c-10.54391,14.10648 -24.80921,21.26826 -31.86245,15.9963c-7.05323,-5.27195 -4.22348,-20.98128 6.32042,-35.08774z"/><path d="M118.17217,253.89807c-3.2505,-8.18387 7.38314,-20.08832 23.7509,-26.58932c16.36777,-6.501 32.27149,-5.13675 35.52199,3.04712c3.2505,8.18387 -7.38314,20.08832 -23.7509,26.58932c-16.36777,6.501 -32.27149,5.13675 -35.52199,-3.04712z" data-paper-data="{&quot;index&quot;:null}"/></g><g data-paper-data="{&quot;index&quot;:null}" fill="#ff8800" stroke="#ff8800" stroke-width="0.5" stroke-linecap="butt"><path d="M391.54613,231.72498c-11.61185,17.89173 -27.54531,28.16419 -35.58838,22.94419c-8.04308,-5.22001 -5.15002,-23.95577 6.46184,-41.84751c11.61185,-17.89173 27.54531,-28.16419 35.58838,-22.94419c8.04308,5.22001 5.15002,23.95577 -6.46184,41.84751z"/><path d="M397.37837,203.60908c-6.62201,5.80437 -21.40094,-0.22665 -33.00967,-13.47068c-11.60872,-13.24401 -15.65126,-28.68578 -9.02925,-34.49014c6.62201,-5.80437 21.40094,0.22665 33.00967,13.47068c11.60872,13.24401 15.65126,28.68578 9.02925,34.49014z"/><path d="M334.56,254.10429c-16.82365,-5.20878 -28.35064,-16.25046 -25.74625,-24.66228c2.60439,-8.41182 18.35391,-11.0084 35.17757,-5.79962c16.82365,5.20878 28.35064,16.25046 25.74625,24.66228c-2.60439,8.41182 -18.35391,11.0084 -35.17757,5.79962z" data-paper-data="{&quot;index&quot;:null}"/></g><path d="M229.5,211.84278h14.33333l21,10.33333l-25,22l-24.33333,-24.66667z" fill="#ff8800" stroke="#ff8800" stroke-width="0.5" stroke-linecap="round"/></g></g></svg>