<svg version="1.1" xmlns="http://www.w3.org/2000/svg" xmlns:xlink="http://www.w3.org/1999/xlink" width="1050.21923" height="1328.12234" viewBox="0,0,1050.21923,1328.12234"><g transform="translate(627.3028,725.58694)"><g data-paper-data="{&quot;isPaintingLayer&quot;:true}" fill-rule="nonzero" stroke-linejoin="miter" stroke-miterlimit="10" stroke-dasharray="" stroke-dashoffset="0" style="mix-blend-mode: normal"><path d="M191.73306,182.05307c0,-26.50967 21.49033,-48 48,-48c26.50967,0 48,21.49033 48,48c0,26.50967 -21.49033,48 -48,48c-26.50967,0 -48,-21.49033 -48,-48z" fill="#ff8800" stroke="none" stroke-width="NaN" stroke-linecap="butt"/><path d="M230.89973,176.44602c0,9.48089 -2.61167,17.16667 -5.83333,17.16667c-3.22166,0 -5.83333,-7.68578 -5.83333,-17.16667c0,-9.48089 2.61167,-17.16667 5.83333,-17.16667c3.22166,0 5.83333,7.68578 5.83333,17.16667z" fill="#000000" stroke="none" stroke-width="0" stroke-linecap="butt"/><path d="M261.56639,176.61269c0,9.48089 -2.61167,17.16666 -5.83334,17.16666c-3.22166,0 -5.83333,-7.68578 -5.83333,-17.16666c0,-9.48089 2.61167,-17.16667 5.83333,-17.16667c3.22166,0 5.83334,7.68578 5.83334,17.16667z" fill="#000000" stroke="none" stroke-width="0" stroke-linecap="butt"/><path d="M228.34417,181.41746c0,6.25923 -1.39289,11.33333 -3.11111,11.33333c-1.71822,0 -3.11111,-5.07411 -3.11111,-11.33333c0,-6.25923 1.39289,-11.33333 3.11111,-11.33333c1.71822,0 3.11111,5.07411 3.11111,11.33333z" fill="#ff8800" stroke="#ff8800" stroke-width="0.5" stroke-linecap="butt"/><path d="M258.84417,181.69535c0,6.25922 -1.39289,11.33334 -3.11111,11.33334c-1.71822,0 -3.11111,-5.07411 -3.11111,-11.33334c0,-6.25922 1.39289,-11.33333 3.11111,-11.33333c1.71822,0 3.11111,5.07411 3.11111,11.33333z" fill="#ff8800" stroke="#ff8800" stroke-width="0.5" stroke-linecap="butt"/><g fill="#d97400" stroke="none" stroke-width="0" stroke-linecap="butt"><path d="M247.21231,135.57824c0,-6.41992 5.20437,-11.62429 11.62429,-11.62429c6.41992,0 11.62429,5.20437 11.62429,11.62429c0,6.41992 -5.20437,11.62429 -11.62429,11.62429c-6.41992,0 -11.62429,-5.20437 -11.62429,-11.62429z"/><path d="M232.12669,110.97142c2.46958,-1.85405 9.85771,1.73458 16.50183,8.01544c6.64412,6.28087 10.02825,12.87553 7.55867,14.72958c-2.46959,1.85406 -9.85771,-1.73458 -16.50183,-8.01544c-6.64412,-6.28087 -10.02825,-12.87553 -7.55867,-14.72958z" data-paper-data="{&quot;index&quot;:null}"/><path d="M223.81562,128.50602c1.03316,-2.91014 9.17364,-4.00344 18.18227,-2.44193c9.00863,1.56151 15.47402,5.18651 14.44086,8.09665c-1.03316,2.91015 -9.17364,4.00344 -18.18227,2.44193c-9.00863,-1.56151 -15.47402,-5.18651 -14.44086,-8.09665z" data-paper-data="{&quot;index&quot;:null}"/><path d="M286.08303,160.07481c-2.46959,1.85405 -9.85771,-1.73458 -16.50183,-8.01545c-6.64412,-6.28087 -10.02825,-12.87553 -7.55867,-14.72958c2.46959,-1.85406 9.85771,1.73458 16.50183,8.01545c6.64412,6.28087 10.02825,12.87553 7.55867,14.72958z" data-paper-data="{&quot;index&quot;:null}"/><path d="M294.39409,142.54021c-1.03317,2.91014 -9.17364,4.00344 -18.18227,2.44193c-9.00863,-1.56151 -15.47402,-5.18651 -14.44085,-8.09665c1.03316,-2.91015 9.17363,-4.00344 18.18226,-2.44193c9.00863,1.56151 15.47402,5.18651 14.44086,8.09665z" data-paper-data="{&quot;index&quot;:null}"/></g><g data-paper-data="{&quot;index&quot;:null}" fill="#ff8800" stroke="#ff8800" stroke-width="0.5" stroke-linecap="butt"><path d="M352.10699,144.69873c-21.29851,-1.14986 -38.14535,-9.84372 -37.62844,-19.41827c0.51691,-9.57456 18.20181,-16.40415 39.50032,-15.2543c21.29852,1.14986 38.14535,9.84372 37.62844,19.41827c-0.51691,9.57456 -18.2018,16.40415 -39.50032,15.2543z"/><path d="M379.38888,135.7423c-8.33246,-2.84812 -10.46953,-18.66656 -4.77326,-35.33148c5.69626,-16.66491 17.06877,-27.86563 25.40123,-25.0175c8.33246,2.84812 10.46953,18.66656 4.77327,35.33149c-5.69626,16.66491 -17.06877,27.86563 -25.40123,25.0175z"/><path d="M304.30385,106.44809c-3.86899,-17.18132 -0.04131,-32.67774 8.54934,-34.61222c8.59065,-1.93449 18.69118,10.42549 22.56016,27.60681c3.86898,17.18132 0.04131,32.67774 -8.54934,34.61222c-8.59065,1.93449 -18.69118,-10.4255 -22.56017,-27.60681z" data-paper-data="{&quot;index&quot;:null}"/></g><path d="M229.23306,148.55308h14.33333l21,10.33333l-25,22l-24.33333,-24.66667z" fill="#ff8800" stroke="#ff8800" stroke-width="0.5" stroke-linecap="round"/><path d="M337.69223,124.02481l53.02128,-849.34666l31.93783,1.99375l-53.02128,849.34666z" fill="#ff8800" stroke="#ff8800" stroke-width="0.5" stroke-linecap="butt"/><g fill="#ff8800" stroke="#ff8800" stroke-width="0.5" stroke-linecap="butt"><g><path d="M158.6826,259.04298c-8.8519,3.68555 -22.67396,-9.28939 -30.87246,-28.98034c-8.19849,-19.69096 -7.66878,-38.64137 1.18312,-42.32693c8.8519,-3.68555 22.67396,9.28939 30.87246,28.98034c8.19849,19.69096 7.66878,38.64137 -1.18312,42.32693z"/><path d="M145.44196,277.72173c-13.80482,10.9359 -29.42846,14.20566 -34.89641,7.30326c-5.46795,-6.9024 1.29043,-21.36321 15.09523,-32.29909c13.80482,-10.9359 29.42846,-14.20566 34.89641,-7.30326c5.46795,6.9024 -1.29043,21.36321 -15.09523,32.29909z"/><path d="M141.401,196.47863c1.04632,8.74338 -12.28133,17.52771 -29.76812,19.6203c-17.48679,2.09261 -32.5108,-3.29892 -33.55711,-12.04229c-1.04632,-8.74338 12.28133,-17.52771 29.76812,-19.6203c17.48679,-2.09261 32.5108,3.29892 33.55711,12.04229z" data-paper-data="{&quot;index&quot;:null}"/></g><path d="M154.96089,235.96017l-768.15871,366.24198l-13.77173,-28.88492l768.15871,-366.24198z"/></g></g></g></svg>