<svg version="1.1" xmlns="http://www.w3.org/2000/svg" xmlns:xlink="http://www.w3.org/1999/xlink" width="289.4086" height="1005.83883" viewBox="0,0,289.4086,1005.83883"><g transform="translate(-118.81162,692.75)"><g data-paper-data="{&quot;isPaintingLayer&quot;:true}" fill-rule="nonzero" stroke-linejoin="miter" stroke-miterlimit="10" stroke-dasharray="" stroke-dashoffset="0" style="mix-blend-mode: normal"><path d="M192,180c0,-26.50967 21.49033,-48 48,-48c26.50967,0 48,21.49033 48,48c0,26.50967 -21.49033,48 -48,48c-26.50967,0 -48,-21.49033 -48,-48z" fill="#ff8800" stroke="none" stroke-width="NaN" stroke-linecap="butt"/><path d="M231.16667,174.39295c0,9.48089 -2.61167,17.16667 -5.83333,17.16667c-3.22166,0 -5.83333,-7.68578 -5.83333,-17.16667c0,-9.48089 2.61167,-17.16667 5.83333,-17.16667c3.22166,0 5.83333,7.68578 5.83333,17.16667z" fill="#000000" stroke="none" stroke-width="0" stroke-linecap="butt"/><path d="M261.83333,174.55962c0,9.48089 -2.61167,17.16666 -5.83334,17.16666c-3.22166,0 -5.83333,-7.68578 -5.83333,-17.16666c0,-9.48089 2.61167,-17.16667 5.83333,-17.16667c3.22166,0 5.83334,7.68578 5.83334,17.16667z" fill="#000000" stroke="none" stroke-width="0" stroke-linecap="butt"/><path d="M228.61111,169.80962c0,6.25923 -1.39289,11.33333 -3.11111,11.33333c-1.71822,0 -3.11111,-5.07411 -3.11111,-11.33333c0,-6.25923 1.39289,-11.33333 3.11111,-11.33333c1.71822,0 3.11111,5.07411 3.11111,11.33333z" fill="#ff8800" stroke="#ff8800" stroke-width="0.5" stroke-linecap="butt"/><path d="M259.11111,169.30962c0,6.25922 -1.39289,11.33334 -3.11111,11.33334c-1.71822,0 -3.11111,-5.07411 -3.11111,-11.33334c0,-6.25922 1.39289,-11.33333 3.11111,-11.33333c1.71822,0 3.11111,5.07411 3.11111,11.33333z" fill="#ff8800" stroke="#ff8800" stroke-width="0.5" stroke-linecap="butt"/><g fill="#d97400" stroke="none" stroke-width="0" stroke-linecap="butt"><path d="M247.47925,133.52517c0,-6.41992 5.20437,-11.62429 11.62429,-11.62429c6.41992,0 11.62429,5.20437 11.62429,11.62429c0,6.41992 -5.20437,11.62429 -11.62429,11.62429c-6.41992,0 -11.62429,-5.20437 -11.62429,-11.62429z"/><path d="M232.39363,108.91835c2.46958,-1.85405 9.85771,1.73458 16.50183,8.01544c6.64412,6.28087 10.02825,12.87553 7.55867,14.72958c-2.46959,1.85406 -9.85771,-1.73458 -16.50183,-8.01544c-6.64412,-6.28087 -10.02825,-12.87553 -7.55867,-14.72958z" data-paper-data="{&quot;index&quot;:null}"/><path d="M224.08256,126.45295c1.03316,-2.91014 9.17364,-4.00344 18.18227,-2.44193c9.00863,1.56151 15.47402,5.18651 14.44086,8.09665c-1.03316,2.91015 -9.17364,4.00344 -18.18227,2.44193c-9.00863,-1.56151 -15.47402,-5.18651 -14.44086,-8.09665z" data-paper-data="{&quot;index&quot;:null}"/><path d="M286.34997,158.02174c-2.46959,1.85405 -9.85771,-1.73458 -16.50183,-8.01545c-6.64412,-6.28087 -10.02825,-12.87553 -7.55867,-14.72958c2.46959,-1.85406 9.85771,1.73458 16.50183,8.01545c6.64412,6.28087 10.02825,12.87553 7.55867,14.72958z" data-paper-data="{&quot;index&quot;:null}"/><path d="M294.66103,140.48714c-1.03317,2.91014 -9.17364,4.00344 -18.18227,2.44193c-9.00863,-1.56151 -15.47402,-5.18651 -14.44085,-8.09665c1.03316,-2.91015 9.17363,-4.00344 18.18226,-2.44193c9.00863,1.56151 15.47402,5.18651 14.44086,8.09665z" data-paper-data="{&quot;index&quot;:null}"/></g><g fill="#ff8800" stroke="#ff8800" stroke-width="0.5" stroke-linecap="butt"><path d="M125.68765,238.80997c8.76244,-3.89347 22.88691,8.75162 31.54789,28.24357c8.66098,19.49196 8.57872,38.4496 -0.18373,42.34307c-8.76244,3.89347 -22.88691,-8.75162 -31.54789,-28.24357c-8.66098,-19.49196 -8.57872,-38.4496 0.18373,-42.34307z"/><path d="M138.48373,219.82391c13.54285,-11.25869 29.08496,-14.89633 34.71431,-8.1249c5.62934,6.77142 -0.78582,21.38771 -14.32866,32.64639c-13.54285,11.25869 -29.08496,14.89633 -34.71431,8.1249c-5.62934,-6.77142 0.78582,-21.38771 14.32866,-32.64639z"/><path d="M144.44119,300.949c-1.25239,-8.71625 11.86419,-17.8127 29.29671,-20.31748c17.43252,-2.50477 32.57961,2.53062 33.83201,11.24687c1.25239,8.71625 -11.86419,17.8127 -29.29671,20.31748c-17.43252,2.50477 -32.57961,-2.53062 -33.83201,-11.24687z" data-paper-data="{&quot;index&quot;:null}"/></g><g data-paper-data="{&quot;index&quot;:null}" fill="#ff8800" stroke="#ff8800" stroke-width="0.5" stroke-linecap="butt"><path d="M354.20323,184.75526c-21.32758,-0.28827 -38.51196,-8.29427 -38.38237,-17.88189c0.12959,-9.58764 17.52406,-17.12627 38.85165,-16.838c21.32758,0.28827 38.51196,8.29427 38.38237,17.88189c-0.12959,9.58764 -17.52406,17.12627 -38.85165,16.838z"/><path d="M381.10091,174.70373c-8.44075,-2.5091 -11.21527,-18.22825 -6.19707,-35.10974c5.01819,-16.88147 15.92882,-28.53259 24.36955,-26.0235c8.44075,2.5091 11.21527,18.22825 6.19707,35.10974c-5.01819,16.88147 -15.92882,28.53259 -24.36955,26.0235z"/><path d="M304.89345,148.46754c-4.5601,-17.01094 -1.36175,-32.64938 7.14372,-34.92942c8.50547,-2.28004 19.09719,9.66169 23.6573,26.67263c4.5601,17.01094 1.36175,32.64938 -7.14372,34.92942c-8.50547,2.28004 -19.09719,-9.66169 -23.6573,-26.67263z" data-paper-data="{&quot;index&quot;:null}"/></g><path d="M229.5,146.5h14.33334l21,10.33334l-25,22l-24.33334,-24.66667z" fill="#ff8800" stroke="#ff8800" stroke-width="0.5" stroke-linecap="round"/><path d="M339.5,158.5v-851h32v851z" fill="#ff8800" stroke="#ff8800" stroke-width="0.5" stroke-linecap="butt"/></g></g></svg>