<svg version="1.1" xmlns="http://www.w3.org/2000/svg" xmlns:xlink="http://www.w3.org/1999/xlink" width="512.78658" height="385.46093" viewBox="0,0,512.78658,385.46093"><g transform="translate(-19.81404,-125.80238)"><g data-paper-data="{&quot;isPaintingLayer&quot;:true}" fill-rule="nonzero" stroke-linejoin="miter" stroke-miterlimit="10" stroke-dasharray="" stroke-dashoffset="0" style="mix-blend-mode: normal"><g><path d="M180.32574,194.5458c0,-33.10295 26.83525,-59.93819 59.93819,-59.93819c33.10295,0 59.93819,26.83525 59.93819,59.93819c0,33.10295 -26.83525,59.93819 -59.93819,59.93819c-33.10295,0 -59.93819,-26.83525 -59.93819,-59.93819z" fill="#ff8800" stroke="none" stroke-width="0" stroke-linecap="butt"/><path d="M282.43133,179.36403l70.15934,-38.46984l55.62572,-6.16444l46.8729,12.26451l23.88805,24.41064l38.9114,6.41959l14.08659,35.89075l-22.59987,-20.61842l-29.34592,-7.86717l8.61448,24.93072l20.02707,19.90986l-31.4361,-8.01314l-7.64568,-16.92965l-1.03442,20.55464l24.44696,17.04516l-44.93885,-3.13824l-0.73995,-31.78533l6.82589,-13.80347l-29.91194,-14.25343l-85.85348,2.99573l-42.2791,10.26984z" data-paper-data="{&quot;index&quot;:null}" fill="#ff8800" stroke="#ff8800" stroke-width="0.5" stroke-linecap="round"/><path d="M196.23526,186.03606c0,-11.03432 8.94508,-19.9794 19.9794,-19.9794c11.03432,0 19.9794,8.94508 19.9794,19.9794c0,11.03432 -8.94508,19.9794 -19.9794,19.9794c-11.03432,0 -19.9794,-8.94508 -19.9794,-19.9794z" fill="#000000" stroke="#000000" stroke-width="2.5" stroke-linecap="butt"/><path d="M245.07378,186.77604c0,-11.03432 8.94508,-19.9794 19.9794,-19.9794c11.03432,0 19.9794,8.94508 19.9794,19.9794c0,11.03432 -8.94508,19.9794 -19.9794,19.9794c-11.03432,0 -19.9794,-8.94508 -19.9794,-19.9794z" fill="#000000" stroke="#000000" stroke-width="2.5" stroke-linecap="butt"/><path d="M202.29483,195.77604c0,-3.26943 2.65039,-5.91982 5.91982,-5.91982c3.26943,0 5.91982,2.65039 5.91982,5.91982c0,3.26943 -2.65039,5.91982 -5.91982,5.91982c-3.26943,0 -5.91982,-2.65039 -5.91982,-5.91982z" fill="#ff8800" stroke="#ff8800" stroke-width="1.5" stroke-linecap="butt"/><path d="M251.69349,196.51601c0,-6.13018 4.96948,-11.09967 11.09967,-11.09967c6.13018,0 11.09967,4.96948 11.09967,11.09967c0,6.13017 -4.96948,11.09967 -11.09967,11.09967c-6.13018,0 -11.09967,-4.96949 -11.09967,-11.09967z" fill="#ff8800" stroke="#ff8800" stroke-width="0.5" stroke-linecap="butt"/><path d="M207.15083,231.30402l-19.10184,47.56867l-18.07968,99.75891l11.43984,37.46706l17.16805,-5.52794l36.73308,6.49614l-4.006,53.05134l-15.60691,-31.5778l-24.01159,-2.43355l18.33126,11.93092l3.94417,38.14184l-19.68082,-26.92227l-27.44467,-14.48027l4.13049,35.67433l20.06478,30.05323l-39.22321,-22.81441l-0.82452,-46.59177l-24.24318,-32.22993l-6.24798,-56.9276l16.61171,-63.88694l56.54627,-75.14046z" data-paper-data="{&quot;index&quot;:null}" fill="#ff8800" stroke="#ff8800" stroke-width="0.5" stroke-linecap="round"/><path d="M195.77296,155.37768l-5.17984,-27.37917l22.93931,18.49944z" fill="#ff8800" stroke="#ff8800" stroke-width="0.5" stroke-linecap="round"/><path d="M270.60211,144.74746l25.73925,-14.35034l-9.73878,26.10759z" data-paper-data="{&quot;index&quot;:null}" fill="#ff8800" stroke="#ff8800" stroke-width="0.5" stroke-linecap="round"/><path d="M199.53234,478.62413l-76.18339,-82.22116l-65.36568,-125.70608l-1.91219,-115.30044l29.73774,119.15425l54.16172,113.54033l73.90397,74.22294z" fill="#ff8800" stroke="#ff8800" stroke-width="0.5" stroke-linecap="round"/><path d="M163.56147,498.1725l-76.18339,-82.22116l-65.36568,-125.70608l-1.91219,-115.30044l29.73774,119.15425l54.16172,113.54033l73.90397,74.22294z" fill="#ff8800" stroke="#ff8800" stroke-width="0.5" stroke-linecap="round"/><path d="M225.91008,451.20915l-76.18339,-82.22116l-65.36568,-125.70608l-1.91219,-115.30044l29.73774,119.15425l54.16172,113.54033l73.90397,74.22294z" fill="#ff8800" stroke="#ff8800" stroke-width="0.5" stroke-linecap="round"/></g></g></g></svg>