<svg version="1.1" xmlns="http://www.w3.org/2000/svg" xmlns:xlink="http://www.w3.org/1999/xlink" width="594.23411" height="314.45648" viewBox="0,0,594.23411,314.45648"><g transform="translate(39.41687,-68.63618)"><g data-paper-data="{&quot;isPaintingLayer&quot;:true}" fill-rule="nonzero" stroke-linejoin="miter" stroke-miterlimit="10" stroke-dasharray="" stroke-dashoffset="0" style="mix-blend-mode: normal"><path d="M180.32574,194.5458c0,-33.10295 26.83525,-59.93819 59.93819,-59.93819c33.10295,0 59.93819,26.83525 59.93819,59.93819c0,33.10295 -26.83525,59.93819 -59.93819,59.93819c-33.10295,0 -59.93819,-26.83525 -59.93819,-59.93819z" fill="#ff8800" stroke="none" stroke-width="0" stroke-linecap="butt"/><path d="M296.28531,179.56357l50.16172,-0.27374l96.89106,-20.53701l29.50106,-24.27052l-11.478,-13.54476l-8.0164,-35.76903l49.40679,-16.0155l-22.60975,25.87343l6.87671,22.70981l3.84371,-21.06922l32.94274,-17.71265l-16.86743,27.84877l-2.70135,30.29082l30.64475,-16.96774l19.54886,-29.35743l-5.77421,44.07611l-41.74991,18.00971l-19.93496,33.95881l-49.03132,26.76461l-63.95231,8.58079l-89.20231,-23.52024z" data-paper-data="{&quot;index&quot;:null}" fill="#ff8800" stroke="#ff8800" stroke-width="0.5" stroke-linecap="round"/><path d="M196.23526,186.03606c0,-11.03432 8.94508,-19.9794 19.9794,-19.9794c11.03432,0 19.9794,8.94508 19.9794,19.9794c0,11.03432 -8.94508,19.9794 -19.9794,19.9794c-11.03432,0 -19.9794,-8.94508 -19.9794,-19.9794z" fill="#000000" stroke="#000000" stroke-width="2.5" stroke-linecap="butt"/><path d="M245.07378,186.77604c0,-11.03432 8.94508,-19.9794 19.9794,-19.9794c11.03432,0 19.9794,8.94508 19.9794,19.9794c0,11.03432 -8.94508,19.9794 -19.9794,19.9794c-11.03432,0 -19.9794,-8.94508 -19.9794,-19.9794z" fill="#000000" stroke="#000000" stroke-width="2.5" stroke-linecap="butt"/><path d="M217.30984,188.26853c0,-3.26943 2.65039,-5.91982 5.91982,-5.91982c3.26943,0 5.91982,2.65039 5.91982,5.91982c0,3.26943 -2.65039,5.91982 -5.91982,5.91982c-3.26943,0 -5.91982,-2.65039 -5.91982,-5.91982z" fill="#ff8800" stroke="#ff8800" stroke-width="1.5" stroke-linecap="butt"/><path d="M263.7055,189.0085c0,-6.13018 4.96948,-11.09967 11.09967,-11.09967c6.13018,0 11.09967,4.96948 11.09967,11.09967c0,6.13017 -4.96948,11.09967 -11.09967,11.09967c-6.13018,0 -11.09967,-4.96949 -11.09967,-11.09967z" fill="#ff8800" stroke="#ff8800" stroke-width="0.5" stroke-linecap="butt"/><path d="M186.32698,195.74027l-44.5874,2.97878l-85.19715,23.51245l-25.10603,23.15074l10.83273,11.39589l8.78429,31.31025l-43.18707,16.90952l18.90455,-24.19757l-7.1661,-19.78146l-2.44169,18.91l-28.46985,17.51789l13.7074,-25.63764l0.99888,-27.03251l-26.46115,16.73139l-16.02166,27.12293l3.09254,-39.43548l36.28678,-18.2619l16.15182,-31.22803l42.35537,-26.42961l56.46423,-11.10401l80.40147,16.01072z" data-paper-data="{&quot;index&quot;:null}" fill="#ff8800" stroke="#ff8800" stroke-width="0.5" stroke-linecap="round"/><path d="M195.77296,155.37768l-5.17984,-27.37917l22.93931,18.49944z" fill="#ff8800" stroke="#ff8800" stroke-width="0.5" stroke-linecap="round"/><path d="M270.60211,144.74746l25.73925,-14.35034l-9.73878,26.10759z" data-paper-data="{&quot;index&quot;:null}" fill="#ff8800" stroke="#ff8800" stroke-width="0.5" stroke-linecap="round"/><path d="M517.25542,96.73193l-45.22609,102.56135l-89.43248,109.89323l-105.06889,47.52236l97.56104,-74.59163l82.7135,-94.78067l38.78976,-97.29438z" fill="#ff8800" stroke="#ff8800" stroke-width="0.5" stroke-linecap="round"/><path d="M549.47604,121.98809l-45.22609,102.56135l-89.43248,109.89323l-105.06889,47.52236l97.56104,-74.59163l82.7135,-94.78067l38.78976,-97.29438z" fill="#ff8800" stroke="#ff8800" stroke-width="0.5" stroke-linecap="round"/><path d="M481.62236,83.40334l-45.22609,102.56135l-89.43248,109.89323l-105.06889,47.52236l97.56104,-74.59163l82.7135,-94.78067l38.78976,-97.29438z" fill="#ff8800" stroke="#ff8800" stroke-width="0.5" stroke-linecap="round"/></g></g></svg>