<svg version="1.1" xmlns="http://www.w3.org/2000/svg" xmlns:xlink="http://www.w3.org/1999/xlink" width="1222.44741" height="540.49651" viewBox="0,0,1222.44741,540.49651"><g transform="translate(704.08308,264.03921)"><g data-paper-data="{&quot;isPaintingLayer&quot;:true}" fill-rule="nonzero" stroke-linejoin="miter" stroke-miterlimit="10" stroke-dasharray="" stroke-dashoffset="0" style="mix-blend-mode: normal"><path d="M183.36496,162.75082l-43.10272,4.68545l-81.64166,26.22815l-23.40419,23.45454l10.9607,10.61033l9.77793,29.99781l-41.18353,18.13338l17.35029,-24.21928l-7.7444,-18.8871l-1.60448,18.42973l-26.89219,18.12971l12.25414,-25.40572l-0.12169,-26.24546l-24.97668,17.28629l-14.43768,26.93886l1.40779,-38.35327l34.43989,-19.16614l14.39834,-30.92357l39.99341,-27.32858l54.28843,-13.0409l78.58639,12.2788z" fill="#ff8800" stroke="#ff8800" stroke-width="0.5" stroke-linecap="round"/><path d="M182.08337,156.52662c0,-33.10295 26.83525,-59.93819 59.93819,-59.93819c33.10295,0 59.93819,26.83525 59.93819,59.93819c0,33.10295 -26.83525,59.93819 -59.93819,59.93819c-33.10295,0 -59.93819,-26.83525 -59.93819,-59.93819z" fill="#ff8800" stroke="none" stroke-width="0" stroke-linecap="butt"/><path d="M290.20475,146.04468l77.99936,-15.57849l54.78961,10.74233l41.10917,25.61952l15.68827,30.28957l35.21673,17.69828l3.02224,38.25992l-15.55971,-26.30673l-25.68272,-16.21876l0.98406,26.22729l13.31352,24.86694l-27.63206,-16.98074l-2.37944,-18.34577l-6.94188,19.19658l18.35517,23.46687l-41.91087,-16.38235l8.50554,-30.3831l10.50399,-11.06265l-24.37148,-22.44777l-82.67409,-22.76557l-43.26184,-2.86552z" data-paper-data="{&quot;index&quot;:null}" fill="#ff8800" stroke="#ff8800" stroke-width="0.5" stroke-linecap="round"/><path d="M197.99289,148.01688c0,-11.03432 8.94508,-19.9794 19.9794,-19.9794c11.03432,0 19.9794,8.94508 19.9794,19.9794c0,11.03432 -8.94508,19.9794 -19.9794,19.9794c-11.03432,0 -19.9794,-8.94508 -19.9794,-19.9794z" fill="#000000" stroke="#000000" stroke-width="2.5" stroke-linecap="butt"/><path d="M246.83141,148.75686c0,-11.03432 8.94508,-19.9794 19.9794,-19.9794c11.03432,0 19.9794,8.94508 19.9794,19.9794c0,11.03432 -8.94508,19.9794 -19.9794,19.9794c-11.03432,0 -19.9794,-8.94508 -19.9794,-19.9794z" fill="#000000" stroke="#000000" stroke-width="2.5" stroke-linecap="butt"/><path d="M212.05246,148.75686c0,-3.26943 2.65039,-5.91982 5.91982,-5.91982c3.26943,0 5.91982,2.65039 5.91982,5.91982c0,3.26943 -2.65039,5.91982 -5.91982,5.91982c-3.26943,0 -5.91982,-2.65039 -5.91982,-5.91982z" fill="#ff8800" stroke="#ff8800" stroke-width="0.5" stroke-linecap="butt"/><path d="M256.45112,149.49683c0,-6.13018 4.96948,-11.09967 11.09967,-11.09967c6.13018,0 11.09967,4.96948 11.09967,11.09967c0,6.13017 -4.96948,11.09967 -11.09967,11.09967c-6.13018,0 -11.09967,-4.96949 -11.09967,-11.09967z" fill="#e37900" stroke="none" stroke-width="0" stroke-linecap="butt"/><path d="M195.77296,121.37768l-5.17984,-27.37917l22.93931,18.49944z" fill="#ff8800" stroke="#ff8800" stroke-width="0.5" stroke-linecap="round"/><path d="M270.60211,109.74746l25.73925,-14.35034l-9.73878,26.10759z" data-paper-data="{&quot;index&quot;:null}" fill="#ff8800" stroke="#ff8800" stroke-width="0.5" stroke-linecap="round"/><path d="M259.87963,157.54055l-963.57333,44.75615l202.71899,-465.99039l768.75249,400.17253z" fill="#ff8800" stroke="#ff8800" stroke-width="0.5" stroke-linecap="round"/></g></g></svg>