<svg version="1.1" xmlns="http://www.w3.org/2000/svg" xmlns:xlink="http://www.w3.org/1999/xlink" width="191.4071" height="313.87687" viewBox="0,0,191.4071,313.87687"><g transform="translate(-150.32845,-93.37739)"><g data-paper-data="{&quot;isPaintingLayer&quot;:true}" fill-rule="nonzero" stroke-linejoin="miter" stroke-miterlimit="10" stroke-dasharray="" stroke-dashoffset="0" style="mix-blend-mode: normal"><path d="M206.59738,171.34804l-9.50682,42.30151l-1.58637,85.73657l14.62448,29.73207l13.58502,-6.93998l31.54797,0.44961l3.83905,44.83486l-17.30609,-24.25088l-20.37673,1.21963l16.92028,7.47886l8.45774,31.31043l-20.07699,-19.81235l-24.87423,-8.37327l8.27917,29.22509l20.82152,22.37439l-35.83663,-13.7365l-6.99735,-38.78768l-24.60479,-23.62591l-12.92495,-46.68265l5.21817,-55.5884l37.03559,-70.39144z" fill="#ff0000" stroke="#ff0000" stroke-width="0.5" stroke-linecap="round"/><path d="M182.08336,156.52662c0,-33.10295 26.83525,-59.93819 59.93819,-59.93819c33.10295,0 59.93819,26.83525 59.93819,59.93819c0,33.10295 -26.83525,59.93819 -59.93819,59.93819c-33.10295,0 -59.93819,-26.83525 -59.93819,-59.93819z" fill="#ff0000" stroke="none" stroke-width="0" stroke-linecap="butt"/><path d="M282.77618,153.1899l46.10764,64.81262l12.5978,54.39296l-6.57245,47.9909l-21.22789,26.70124l-1.75273,39.3748l-33.68024,18.401l17.64573,-24.9555l4.30059,-30.06918l-23.53262,11.62131l-17.25015,22.31696l4.19896,-32.15968l15.76945,-9.67231l-20.357,1.51356l-13.91113,26.34552l-2.18514,-44.94583l31.2051,-4.66027l14.3904,5.06286l10.52128,-31.41933l-13.02625,-84.75608l-15.07293,-40.65224z" data-paper-data="{&quot;index&quot;:null}" fill="#ff0000" stroke="#ff0000" stroke-width="0.5" stroke-linecap="round"/><path d="M197.99288,152.52139c0,-8.54655 8.94508,-15.4749 19.9794,-15.4749c11.03432,0 19.9794,6.92835 19.9794,15.4749c0,8.54655 -8.94508,15.4749 -19.9794,15.4749c-11.03432,0 -19.9794,-6.92835 -19.9794,-15.4749z" fill="#000000" stroke="#000000" stroke-width="2.5" stroke-linecap="butt"/><path d="M246.8314,155.51362c0,-7.30267 8.94508,-13.22264 19.9794,-13.22264c11.03432,0 19.9794,5.91998 19.9794,13.22264c0,7.30267 -8.94508,13.22264 -19.9794,13.22264c-11.03432,0 -19.9794,-5.91998 -19.9794,-13.22264z" fill="#000000" stroke="#000000" stroke-width="2.5" stroke-linecap="butt"/><path d="M212.05245,160.76888c0,-3.26943 2.65039,-5.91982 5.91982,-5.91982c3.26943,0 5.91982,2.65039 5.91982,5.91982c0,3.26943 -2.65039,5.91982 -5.91982,5.91982c-3.26943,0 -5.91982,-2.65039 -5.91982,-5.91982z" fill="#ff0000" stroke="#ff0000" stroke-width="0.5" stroke-linecap="butt"/><path d="M256.45111,161.50885c0,-6.13018 4.96948,-11.09967 11.09967,-11.09967c6.13018,0 11.09967,4.96948 11.09967,11.09967c0,6.13017 -4.96948,11.09967 -11.09967,11.09967c-6.13018,0 -11.09967,-4.96949 -11.09967,-11.09967z" fill="#ff0000" stroke="#ff0000" stroke-width="0.5" stroke-linecap="butt"/><path d="M195.77295,121.37768l-5.17984,-27.37917l22.93931,18.49944z" fill="#ff0000" stroke="#ff0000" stroke-width="0.5" stroke-linecap="round"/><path d="M270.6021,109.74746l25.73925,-14.35034l-9.73878,26.10759z" data-paper-data="{&quot;index&quot;:null}" fill="#ff0000" stroke="#ff0000" stroke-width="0.5" stroke-linecap="round"/></g></g></svg>