<svg version="1.1" xmlns="http://www.w3.org/2000/svg" xmlns:xlink="http://www.w3.org/1999/xlink" width="424.41159" height="218.28938" viewBox="0,0,424.41159,218.28938"><g transform="translate(-29.29571,1.82457)"><g data-paper-data="{&quot;isPaintingLayer&quot;:true}" fill-rule="nonzero" stroke-linejoin="miter" stroke-miterlimit="10" stroke-dasharray="" stroke-dashoffset="0" style="mix-blend-mode: normal"><path d="M207.91269,188.71119l-77.69766,-17.01949l-45.87862,-31.81904l-27.37917,-39.95879l-2.21993,-34.03897l-25.15924,-30.33908l12.57962,-36.25891l3.69989,30.33908l17.01949,25.15924l9.61971,-24.41926l-2.21993,-28.11915l18.49944,26.6392l-5.17984,17.75946l14.05958,-14.79955l-7.39978,-28.85913l31.81904,31.81904l-19.9794,24.41926l-14.05958,5.91982l13.3196,30.33908l66.59799,54.01837l38.47884,19.9794z" data-paper-data="{&quot;index&quot;:null}" fill="#ff0000" stroke="#ff0000" stroke-width="0.5" stroke-linecap="round"/><path d="M182.08336,156.52663c0,-33.10295 26.83525,-59.93819 59.93819,-59.93819c33.10295,0 59.93819,26.83525 59.93819,59.93819c0,33.10295 -26.83525,59.93819 -59.93819,59.93819c-33.10295,0 -59.93819,-26.83525 -59.93819,-59.93819z" fill="#ff0000" stroke="none" stroke-width="0" stroke-linecap="butt"/><path d="M276.57026,174.6917l38.47884,-19.9794l66.59799,-54.01837l13.3196,-30.33908l-14.05958,-5.91982l-19.9794,-24.41926l31.81904,-31.81904l-7.39978,28.85913l14.05958,14.79955l-5.17984,-17.75946l18.49944,-26.6392l-2.21993,28.11915l9.61971,24.41926l17.01949,-25.15924l3.69989,-30.33908l12.57962,36.25891l-25.15924,30.33908l-2.21993,34.03897l-27.37917,39.95879l-45.87862,31.81904l-77.69766,17.01949z" data-paper-data="{&quot;index&quot;:null}" fill="#ff0000" stroke="#ff0000" stroke-width="0.5" stroke-linecap="round"/><path d="M197.99288,148.01689c0,-11.03432 8.94508,-19.9794 19.9794,-19.9794c11.03432,0 19.9794,8.94508 19.9794,19.9794c0,11.03432 -8.94508,19.9794 -19.9794,19.9794c-11.03432,0 -19.9794,-8.94508 -19.9794,-19.9794z" fill="#000000" stroke="#000000" stroke-width="2.5" stroke-linecap="butt"/><path d="M246.8314,148.75687c0,-11.03432 8.94508,-19.9794 19.9794,-19.9794c11.03432,0 19.9794,8.94508 19.9794,19.9794c0,11.03432 -8.94508,19.9794 -19.9794,19.9794c-11.03432,0 -19.9794,-8.94508 -19.9794,-19.9794z" fill="#000000" stroke="#000000" stroke-width="2.5" stroke-linecap="butt"/><path d="M264.6021,106.91633l45.07258,-25.12921l-17.0538,45.7176z" data-paper-data="{&quot;index&quot;:null}" fill="#ff0000" stroke="#ff0000" stroke-width="0.5" stroke-linecap="round"/><path d="M240,125l-1,22l-32,-27z" fill="#ff0000" stroke="#ff0000" stroke-width="5" stroke-linecap="round"/><path d="M275.5,123l-32,27l-1,-22z" data-paper-data="{&quot;index&quot;:null}" fill="#ff0000" stroke="#ff0000" stroke-width="5" stroke-linecap="round"/><path d="M191.23251,125.83805l-16.29708,-43.68897l43.07259,24.01415z" data-paper-data="{&quot;index&quot;:null}" fill="#ff0000" stroke="#ff0000" stroke-width="0.5" stroke-linecap="round"/><path d="M208.5,145c0,-5.79899 4.70101,-10.5 10.5,-10.5c5.79899,0 10.5,4.70101 10.5,10.5c0,5.79899 -4.70101,10.5 -10.5,10.5c-5.79899,0 -10.5,-4.70101 -10.5,-10.5z" fill="none" stroke="#ff0000" stroke-width="5" stroke-linecap="butt"/><path d="M256.5,145c0,-5.79899 4.70101,-10.5 10.5,-10.5c5.79899,0 10.5,4.70101 10.5,10.5c0,5.79899 -4.70101,10.5 -10.5,10.5c-5.79899,0 -10.5,-4.70101 -10.5,-10.5z" fill="none" stroke="#ff0000" stroke-width="5" stroke-linecap="butt"/></g></g></svg>