<svg version="1.1" xmlns="http://www.w3.org/2000/svg" xmlns:xlink="http://www.w3.org/1999/xlink" width="428.41159" height="223.28938" viewBox="0,0,428.41159,223.28938"><g transform="translate(-27.2957,-2.18443)"><g data-paper-data="{&quot;isPaintingLayer&quot;:true}" fill-rule="nonzero" stroke-linejoin="miter" stroke-miterlimit="10" stroke-dasharray="" stroke-dashoffset="0" style="mix-blend-mode: normal"><path d="M205.91269,192.72018l-77.69766,-17.01949l-45.87862,-31.81904l-27.37917,-39.95879l-2.21993,-34.03897l-25.15924,-30.33908l12.57962,-36.25891l3.69989,30.33908l17.01949,25.15924l9.61971,-24.41926l-2.21993,-28.11915l18.49944,26.6392l-5.17984,17.75946l14.05958,-14.79955l-7.39978,-28.85913l31.81904,31.81904l-19.9794,24.41926l-14.05958,5.91982l13.3196,30.33908l66.59799,54.01837l38.47884,19.9794z" data-paper-data="{&quot;index&quot;:null}" fill="#ff0000" stroke="#ff0000" stroke-width="0.5" stroke-linecap="round"/><path d="M182.08336,165.53562c0,-33.10295 26.83525,-59.93819 59.93819,-59.93819c33.10295,0 59.93819,26.83525 59.93819,59.93819c0,33.10295 -26.83525,59.93819 -59.93819,59.93819c-33.10295,0 -59.93819,-26.83525 -59.93819,-59.93819z" fill="#ff0000" stroke="none" stroke-width="0" stroke-linecap="butt"/><path d="M278.57026,175.70069l38.47884,-19.9794l66.59799,-54.01837l13.3196,-30.33908l-14.05958,-5.91982l-19.9794,-24.41926l31.81904,-31.81904l-7.39978,28.85913l14.05958,14.79955l-5.17984,-17.75946l18.49944,-26.6392l-2.21993,28.11915l9.61971,24.41926l17.01949,-25.15924l3.69989,-30.33908l12.57962,36.25891l-25.15924,30.33908l-2.21993,34.03897l-27.37917,39.95879l-45.87862,31.81904l-77.69766,17.01949z" data-paper-data="{&quot;index&quot;:null}" fill="#ff0000" stroke="#ff0000" stroke-width="0.5" stroke-linecap="round"/><path d="M197.99288,157.02588c0,-11.03432 8.94508,-19.9794 19.9794,-19.9794c11.03432,0 19.9794,8.94508 19.9794,19.9794c0,11.03432 -8.94508,19.9794 -19.9794,19.9794c-11.03432,0 -19.9794,-8.94508 -19.9794,-19.9794z" fill="#000000" stroke="#000000" stroke-width="2.5" stroke-linecap="butt"/><path d="M246.8314,157.76586c0,-11.03432 8.94508,-19.9794 19.9794,-19.9794c11.03432,0 19.9794,8.94508 19.9794,19.9794c0,11.03432 -8.94508,19.9794 -19.9794,19.9794c-11.03432,0 -19.9794,-8.94508 -19.9794,-19.9794z" fill="#000000" stroke="#000000" stroke-width="2.5" stroke-linecap="butt"/><path d="M205.55245,157.39086c0,-6.92832 5.6165,-12.54482 12.54482,-12.54482c6.92832,0 12.54482,5.6165 12.54482,12.54482c0,6.92832 -5.6165,12.54482 -12.54482,12.54482c-6.92832,0 -12.54482,-5.6165 -12.54482,-12.54482z" fill="#ff0000" stroke="#ff0000" stroke-width="0.5" stroke-linecap="butt"/><path d="M252.20111,158.4225c0,-8.20125 6.64841,-14.84967 14.84967,-14.84967c8.20125,0 14.84967,6.64841 14.84967,14.84967c0,8.20123 -6.64841,14.84967 -14.84967,14.84967c-8.20125,0 -14.84967,-6.64842 -14.84967,-14.84967z" fill="#ff0000" stroke="#ff0000" stroke-width="0.5" stroke-linecap="butt"/><path d="M195.77295,130.38668l-5.17984,-27.37917l22.93931,18.49944z" fill="#ff0000" stroke="#ff0000" stroke-width="0.5" stroke-linecap="round"/><path d="M270.6021,118.75646l25.73925,-14.35034l-9.73878,26.10759z" data-paper-data="{&quot;index&quot;:null}" fill="#ff0000" stroke="#ff0000" stroke-width="0.5" stroke-linecap="round"/></g></g></svg>