<svg version="1.1" xmlns="http://www.w3.org/2000/svg" xmlns:xlink="http://www.w3.org/1999/xlink" width="560.56006" height="324.8014" viewBox="0,0,560.56006,324.8014"><g transform="translate(30.77252,-100.8849)"><g data-paper-data="{&quot;isPaintingLayer&quot;:true}" fill-rule="nonzero" stroke-linejoin="miter" stroke-miterlimit="10" stroke-dasharray="" stroke-dashoffset="0" style="mix-blend-mode: normal"><path d="M202.86376,188.11823l-30.73476,30.58058l-47.37658,71.47542l-3.62816,32.9349l15.18689,1.44025l26.3724,17.31973l-20.83654,39.8841l-1.5773,-29.75093l-17.8447,-9.9129l10.25797,15.39491l-9.67795,30.95502l-6.29821,-27.4945l-16.48764,-20.42049l-8.70882,29.09995l5.55054,30.05562l-22.8556,-30.83144l14.92503,-36.47863l-8.07007,-33.14292l14.1639,-46.32179l34.25157,-44.09229l69.04156,-39.49498z" data-paper-data="{&quot;index&quot;:null}" fill="#ff0000" stroke="#ff0000" stroke-width="0.5" stroke-linecap="round"/><path d="M182.08336,164.03413c0,-33.10295 26.83525,-59.93819 59.93819,-59.93819c33.10295,0 59.93819,26.83525 59.93819,59.93819c0,33.10295 -26.83525,59.93819 -59.93819,59.93819c-33.10295,0 -59.93819,-26.83525 -59.93819,-59.93819z" fill="#ff0000" stroke="none" stroke-width="0" stroke-linecap="butt"/><path d="M285.62363,164.95753l68.95282,39.6497l34.15261,44.16897l14.06,46.35343l-8.14436,33.12475l14.84319,36.512l-22.92468,30.7801l5.61792,-30.0431l-8.64354,-29.1194l-16.5334,20.38347l-6.35984,27.4803l-9.60851,-30.97665l10.29246,-15.37187l-17.86687,9.87285l-1.64402,29.74732l-20.74705,-39.93072l26.41117,-17.26054l15.19009,-1.40618l-3.55431,-32.94296l-47.21618,-71.58148l-30.66611,-30.64943z" data-paper-data="{&quot;index&quot;:null}" fill="#ff0000" stroke="#ff0000" stroke-width="0.5" stroke-linecap="round"/><path d="M197.99288,154.77364c0,-13.10746 8.94508,-23.73316 19.9794,-23.73316c11.03432,0 19.9794,10.6257 19.9794,23.73316c0,13.10746 -8.94508,23.73316 -19.9794,23.73316c-11.03432,0 -19.9794,-10.6257 -19.9794,-23.73316z" fill="#000000" stroke="#000000" stroke-width="2.5" stroke-linecap="butt"/><path d="M246.8314,153.26137c0,-12.69284 8.94508,-22.9824 19.9794,-22.9824c11.03432,0 19.9794,10.28958 19.9794,22.9824c0,12.69284 -8.94508,22.9824 -19.9794,22.9824c-11.03432,0 -19.9794,-10.28958 -19.9794,-22.9824z" fill="#000000" stroke="#000000" stroke-width="2.5" stroke-linecap="butt"/><path d="M212.05245,171.27939c0,-3.26943 2.65039,-5.91982 5.91982,-5.91982c3.26943,0 5.91982,2.65039 5.91982,5.91982c0,3.26943 -2.65039,5.91982 -5.91982,5.91982c-3.26943,0 -5.91982,-2.65039 -5.91982,-5.91982z" fill="#ff0000" stroke="#ff0000" stroke-width="0.5" stroke-linecap="butt"/><path d="M256.45111,164.51185c0,-6.13018 4.96948,-11.09967 11.09967,-11.09967c6.13018,0 11.09967,4.96948 11.09967,11.09967c0,6.13017 -4.96948,11.09967 -11.09967,11.09967c-6.13018,0 -11.09967,-4.96949 -11.09967,-11.09967z" fill="#ff0000" stroke="#ff0000" stroke-width="0.5" stroke-linecap="butt"/><path d="M195.77295,128.88519l-5.17984,-27.37917l22.93931,18.49944z" fill="#ff0000" stroke="#ff0000" stroke-width="0.5" stroke-linecap="round"/><path d="M270.6021,117.25497l25.73925,-14.35034l-9.73878,26.10759z" data-paper-data="{&quot;index&quot;:null}" fill="#ff0000" stroke="#ff0000" stroke-width="0.5" stroke-linecap="round"/><path d="M53.56157,352.61347c0,-40.21893 32.60389,-72.82282 72.82282,-72.82282c40.21893,0 72.82282,32.60389 72.82282,72.82282c0,40.21893 -32.60389,72.82282 -72.82282,72.82282c-40.21893,0 -72.82282,-32.60389 -72.82282,-72.82282z" data-paper-data="{&quot;index&quot;:null}" fill="#ff0000" stroke="#ff0000" stroke-width="0.5" stroke-linecap="butt"/><path d="M122.63064,340.60146c0,-46.85299 37.98185,-84.83483 84.83483,-84.83483c46.85299,0 84.83483,37.98185 84.83483,84.83483c0,46.85299 -37.98185,84.83483 -84.83483,84.83483c-46.85299,0 -84.83483,-37.98185 -84.83483,-84.83483z" data-paper-data="{&quot;index&quot;:null}" fill="#ff0000" stroke="#ff0000" stroke-width="0.5" stroke-linecap="butt"/><path d="M230.73874,352.61347c0,-22.80455 18.48674,-41.29129 41.29129,-41.29129c22.80455,0 41.29129,18.48674 41.29129,41.29129c0,22.80455 -18.48674,41.29129 -41.29129,41.29129c-22.80455,0 -41.29129,-18.48674 -41.29129,-41.29129z" data-paper-data="{&quot;index&quot;:null}" fill="#ff0000" stroke="#ff0000" stroke-width="0.5" stroke-linecap="butt"/><path d="M241.24926,338.3492c0,-42.29208 34.2845,-76.57658 76.57658,-76.57658c42.29208,0 76.57658,34.2845 76.57658,76.57658c0,42.29208 -34.2845,76.57658 -76.57658,76.57658c-42.29208,0 -76.57658,-34.2845 -76.57658,-76.57658z" data-paper-data="{&quot;index&quot;:null}" fill="#ff0000" stroke="#ff0000" stroke-width="0.5" stroke-linecap="butt"/><path d="M358.36637,351.86272c0,-29.85323 24.20082,-54.05405 54.05405,-54.05405c29.85323,0 54.05405,24.20082 54.05405,54.05405c0,29.85323 -24.20082,54.05405 -54.05405,54.05405c-29.85323,0 -54.05405,-24.20082 -54.05405,-54.05405z" data-paper-data="{&quot;index&quot;:null}" fill="#ff0000" stroke="#ff0000" stroke-width="0.5" stroke-linecap="butt"/><path d="M200.70871,321.08194c0,-31.92637 25.88144,-57.80781 57.80781,-57.80781c31.92637,0 57.80781,25.88144 57.80781,57.80781c0,31.92637 -25.88144,57.80781 -57.80781,57.80781c-31.92637,0 -57.80781,-25.88144 -57.80781,-57.80781z" data-paper-data="{&quot;index&quot;:null}" fill="#ff0000" stroke="#ff0000" stroke-width="0.5" stroke-linecap="butt"/><path d="M-30.52252,363.87473c0,-33.99951 27.56205,-61.56156 61.56156,-61.56156c33.99951,0 61.56156,27.56205 61.56156,61.56156c0,33.99951 -27.56205,61.56156 -61.56156,61.56156c-33.99951,0 -61.56156,-27.56205 -61.56156,-61.56156z" data-paper-data="{&quot;index&quot;:null}" fill="#ff0000" stroke="#ff0000" stroke-width="0.5" stroke-linecap="butt"/><path d="M401.90992,334.59545c0,-35.2434 28.57042,-63.81381 63.81381,-63.81381c35.2434,0 63.81381,28.57042 63.81381,63.81381c0,35.2434 -28.57042,63.81381 -63.81381,63.81381c-35.2434,0 -63.81381,-28.57042 -63.81381,-63.81381z" data-paper-data="{&quot;index&quot;:null}" fill="#ff0000" stroke="#ff0000" stroke-width="0.5" stroke-linecap="butt"/></g></g></svg>