<svg version="1.1" xmlns="http://www.w3.org/2000/svg" xmlns:xlink="http://www.w3.org/1999/xlink" width="443.03899" height="373.10651" viewBox="0,0,443.03899,373.10651"><g transform="translate(-18.6683,33.07393)"><g data-paper-data="{&quot;isPaintingLayer&quot;:true}" fill-rule="nonzero" stroke-linejoin="miter" stroke-miterlimit="10" stroke-dasharray="" stroke-dashoffset="0" style="mix-blend-mode: normal"><g><path d="M206.27635,129.00294l-23.91473,-36.16467l-60.72176,-60.54869l-31.57146,-10.05557l-4.40862,14.60412l-22.18303,22.43635l-34.98845,-28.29684l29.47724,4.32419l13.23913,-15.53782l-17.11634,7.01855l-28.43675,-15.59574l28.19669,-0.74913l23.27236,-12.13409l-26.80938,-14.27961l-30.55994,-0.48919l34.73514,-16.32255l32.81641,21.82958l34.0837,-1.37161l42.61622,23.02568l36.46683,42.27848l25.09514,75.4773z" fill="#ff0000" stroke="#ff0000" stroke-width="0.5" stroke-linecap="round"/><path d="M182.08336,156.52662c0,-33.10295 26.83525,-59.93819 59.93819,-59.93819c33.10295,0 59.93819,26.83525 59.93819,59.93819c0,33.10295 -26.83525,59.93819 -59.93819,59.93819c-33.10295,0 -59.93819,-26.83525 -59.93819,-59.93819z" fill="#ff0000" stroke="none" stroke-width="0" stroke-linecap="butt"/><path d="M283.09031,149.49683l77.69766,17.01949l45.87862,31.81904l27.37917,39.95879l2.21993,34.03897l25.15924,30.33908l-12.57962,36.25891l-3.69989,-30.33908l-17.01949,-25.15924l-9.61971,24.41926l2.21993,28.11915l-18.49944,-26.6392l5.17984,-17.75946l-14.05958,14.79955l7.39978,28.85913l-31.81904,-31.81904l19.9794,-24.41926l14.05958,-5.91982l-13.3196,-30.33908l-66.59799,-54.01837l-38.47884,-19.9794z" data-paper-data="{&quot;index&quot;:null}" fill="#ff0000" stroke="#ff0000" stroke-width="0.5" stroke-linecap="round"/><path d="M197.99288,148.01688c0,-11.03432 8.94508,-19.9794 19.9794,-19.9794c11.03432,0 19.9794,8.94508 19.9794,19.9794c0,11.03432 -8.94508,19.9794 -19.9794,19.9794c-11.03432,0 -19.9794,-8.94508 -19.9794,-19.9794z" fill="#000000" stroke="#000000" stroke-width="2.5" stroke-linecap="butt"/><path d="M246.8314,148.75686c0,-11.03432 8.94508,-19.9794 19.9794,-19.9794c11.03432,0 19.9794,8.94508 19.9794,19.9794c0,11.03432 -8.94508,19.9794 -19.9794,19.9794c-11.03432,0 -19.9794,-8.94508 -19.9794,-19.9794z" fill="#000000" stroke="#000000" stroke-width="2.5" stroke-linecap="butt"/><path d="M201.54194,148.75686c0,-3.26943 2.65039,-5.91982 5.91982,-5.91982c3.26943,0 5.91982,2.65039 5.91982,5.91982c0,3.26943 -2.65039,5.91982 -5.91982,5.91982c-3.26943,0 -5.91982,-2.65039 -5.91982,-5.91982z" fill="#ff0000" stroke="#ff0000" stroke-width="0.5" stroke-linecap="butt"/><path d="M245.9406,149.49683c0,-6.13018 4.96948,-11.09967 11.09967,-11.09967c6.13018,0 11.09967,4.96948 11.09967,11.09967c0,6.13017 -4.96948,11.09967 -11.09967,11.09967c-6.13018,0 -11.09967,-4.96949 -11.09967,-11.09967z" fill="#ff0000" stroke="#ff0000" stroke-width="0.5" stroke-linecap="butt"/><path d="M195.77295,121.37768l-5.17984,-27.37917l22.93931,18.49944z" fill="#ff0000" stroke="#ff0000" stroke-width="0.5" stroke-linecap="round"/><path d="M270.6021,109.74746l25.73925,-14.35034l-9.73878,26.10759z" data-paper-data="{&quot;index&quot;:null}" fill="#ff0000" stroke="#ff0000" stroke-width="0.5" stroke-linecap="round"/></g></g></g></svg>