<svg version="1.1" xmlns="http://www.w3.org/2000/svg" xmlns:xlink="http://www.w3.org/1999/xlink" width="540.96271" height="197.10216" viewBox="0,0,540.96271,197.10216"><g transform="translate(26.60606,-92.14994)"><g data-paper-data="{&quot;isPaintingLayer&quot;:true}" fill-rule="nonzero" stroke-linejoin="miter" stroke-miterlimit="10" stroke-dasharray="" stroke-dashoffset="0" style="mix-blend-mode: normal"><path d="M218.95482,196.27734l-51.04669,60.99856l-49.43947,25.94297l-48.09316,5.77684l-31.20142,-13.7859l-38.5383,8.26113l-26.31983,-27.93245l28.60658,10.76161l30.17941,-3.44292l-17.19441,-19.82905l-25.95377,-11.04611l32.17627,-4.06988l13.34564,12.81105l-6.61214,-19.31264l-29.00704,-6.79689l42.93248,-13.47979l12.39979,29.01244l-1.25934,15.20296l33.05874,2.23418l78.70742,-34.03555l35.51944,-24.86297z" data-paper-data="{&quot;index&quot;:null}" fill="#ff0000" stroke="#ff0000" stroke-width="0.5" stroke-linecap="round"/><path d="M177.57885,176.04615c0,-33.10295 26.83525,-59.93819 59.93819,-59.93819c33.10295,0 59.93819,26.83525 59.93819,59.93819c0,33.10295 -26.83525,59.93819 -59.93819,59.93819c-33.10295,0 -59.93819,-26.83525 -59.93819,-59.93819z" fill="#ff0000" stroke="none" stroke-width="0" stroke-linecap="butt"/><path d="M261.98535,156.84928l62.48807,-49.21209l53.71423,-15.23419l48.25423,4.22534l27.70424,19.90112l39.41343,-0.16866l20.02086,32.74325l-25.78597,-16.40831l-30.24306,-2.82977l12.75459,22.93817l23.13129,16.14182l-32.32613,-2.62636l-10.42949,-15.27923l2.50405,20.25903l26.9923,12.61039l-44.78589,4.37341l-6.17581,-30.94085l4.35538,-14.62008l-31.89483,-8.97725l-84.02037,17.14217l-39.86919,17.03659z" data-paper-data="{&quot;index&quot;:null}" fill="#ff0000" stroke="#ff0000" stroke-width="0.5" stroke-linecap="round"/><path d="M193.48837,167.53641c0,-11.03432 8.94508,-19.9794 19.9794,-19.9794c11.03432,0 19.9794,8.94508 19.9794,19.9794c0,11.03432 -8.94508,19.9794 -19.9794,19.9794c-11.03432,0 -19.9794,-8.94508 -19.9794,-19.9794z" fill="#000000" stroke="#000000" stroke-width="2.5" stroke-linecap="butt"/><path d="M242.32689,168.27639c0,-11.03432 8.94508,-19.9794 19.9794,-19.9794c11.03432,0 19.9794,8.94508 19.9794,19.9794c0,11.03432 -8.94508,19.9794 -19.9794,19.9794c-11.03432,0 -19.9794,-8.94508 -19.9794,-19.9794z" fill="#000000" stroke="#000000" stroke-width="2.5" stroke-linecap="butt"/><path d="M207.54794,168.27639c0,-3.26943 2.65039,-5.91982 5.91982,-5.91982c3.26943,0 5.91982,2.65039 5.91982,5.91982c0,3.26943 -2.65039,5.91982 -5.91982,5.91982c-3.26943,0 -5.91982,-2.65039 -5.91982,-5.91982z" fill="#ff0000" stroke="#ff0000" stroke-width="0.5" stroke-linecap="butt"/><path d="M251.9466,169.01636c0,-6.13018 4.96948,-11.09967 11.09967,-11.09967c6.13018,0 11.09967,4.96948 11.09967,11.09967c0,6.13017 -4.96948,11.09967 -11.09967,11.09967c-6.13018,0 -11.09967,-4.96949 -11.09967,-11.09967z" fill="#ff0000" stroke="#ff0000" stroke-width="0.5" stroke-linecap="butt"/><path d="M191.26844,140.89721l-5.17984,-27.37917l22.93931,18.49944z" fill="#ff0000" stroke="#ff0000" stroke-width="0.5" stroke-linecap="round"/><path d="M266.09759,129.26699l25.73925,-14.35034l-9.73878,26.10759z" data-paper-data="{&quot;index&quot;:null}" fill="#ff0000" stroke="#ff0000" stroke-width="0.5" stroke-linecap="round"/></g></g></svg>