<svg version="1.1" xmlns="http://www.w3.org/2000/svg" xmlns:xlink="http://www.w3.org/1999/xlink" width="463.92642" height="320.56228" viewBox="0,0,463.92642,320.56228"><g transform="translate(110.6006,109.0315)"><g data-paper-data="{&quot;isPaintingLayer&quot;:true}" fill-rule="nonzero" stroke-linejoin="miter" stroke-miterlimit="10" stroke-dasharray="" stroke-dashoffset="0" style="mix-blend-mode: normal"><path d="M21.53153,209.27928l153.15315,-61.56156" fill="none" stroke="#d40000" stroke-width="1.5" stroke-linecap="round"/><path d="M257.26727,153.72372l-118.61862,57.05706" fill="none" stroke="#d40000" stroke-width="1.5" stroke-linecap="round"/><path d="M242.25225,210.78078l103.6036,-57.05706" fill="none" stroke="#d40000" stroke-width="1.5" stroke-linecap="round"/><text transform="translate(28.25649,194.2177) scale(1.09267,1.09267)" font-size="40" xml:space="preserve" fill="#ffffff" fill-rule="nonzero" stroke="#ffffff" stroke-width="3" stroke-linecap="butt" stroke-linejoin="miter" stroke-miterlimit="10" stroke-dasharray="" stroke-dashoffset="0" font-family="Pixel" font-weight="normal" text-anchor="start" style="mix-blend-mode: normal"><tspan x="0" dy="0">Spin Eternally</tspan></text><path d="M165.22603,123.28195l-33.54908,15.12071" fill="none" stroke="#d40000" stroke-width="1.5" stroke-linecap="round"/><path d="M200.66521,140.76527l32.13152,-16.06576" fill="none" stroke="#d40000" stroke-width="1.5" stroke-linecap="round"/><path d="M294.22462,126.11708l-29.7689,13.70315" fill="none" stroke="#d40000" stroke-width="1.5" stroke-linecap="round"/><path d="M328.99447,140.29275l22.68107,-13.70315" fill="none" stroke="#d40000" stroke-width="1.5" stroke-linecap="round"/><text transform="translate(119.04446,136.44639) scale(0.31165,0.31165)" font-size="40" xml:space="preserve" fill="#ffffff" fill-rule="nonzero" stroke="none" stroke-width="1" stroke-linecap="butt" stroke-linejoin="miter" stroke-miterlimit="10" stroke-dasharray="" stroke-dashoffset="0" font-family="Pixel" font-weight="normal" text-anchor="start" style="mix-blend-mode: normal"><tspan x="0" dy="0">Comment if you want another boss!</tspan></text><path d="M257.14853,86.42521l-37.32926,20.79098" fill="none" stroke="#d40000" stroke-width="1.5" stroke-linecap="round"/><path d="M329.44444,85.48016l-46.30718,22.20855" fill="none" stroke="#d40000" stroke-width="1.5" stroke-linecap="round"/><text transform="translate(204.92673,104.85339) scale(0.45159,0.45159)" font-size="40" xml:space="preserve" fill="#ffffff" fill-rule="nonzero" stroke="none" stroke-width="1" stroke-linecap="butt" stroke-linejoin="miter" stroke-miterlimit="10" stroke-dasharray="" stroke-dashoffset="0" font-family="Pixel" font-weight="normal" text-anchor="start" style="mix-blend-mode: normal"><tspan x="0" dy="0">Space to DASH</tspan></text><path d="M347.40028,1.2337l-35.91169,31.18647" fill="none" stroke="#d40000" stroke-width="1.5" stroke-linecap="round"/><text transform="translate(310.14294,26.49003) scale(0.72186,0.72186)" font-size="40" xml:space="preserve" fill="#ffffff" fill-rule="nonzero" stroke="none" stroke-width="1" stroke-linecap="butt" stroke-linejoin="miter" stroke-miterlimit="10" stroke-dasharray="" stroke-dashoffset="0" font-family="Pixel" font-weight="normal" text-anchor="start" style="mix-blend-mode: normal"><tspan x="0" dy="0">#1</tspan></text><text transform="translate(-107.88465,-42.84436) scale(0.61886,0.61886)" font-size="40" xml:space="preserve" fill="#ffffff" fill-rule="nonzero" stroke="#ffffff" stroke-width="1" stroke-linecap="butt" stroke-linejoin="miter" stroke-miterlimit="10" stroke-dasharray="" stroke-dashoffset="0" font-family="Pixel" font-weight="normal" text-anchor="start" style="mix-blend-mode: normal"><tspan x="0" dy="0">Kinda hard</tspan></text><path d="M-110.6006,-93.26573c0,-8.70719 7.05857,-15.76577 15.76577,-15.76577c8.70719,0 15.76577,7.05857 15.76577,15.76577c0,8.70719 -7.05857,15.76577 -15.76577,15.76577c-8.70719,0 -15.76577,-7.05857 -15.76577,-15.76577z" fill="#ff0c00" stroke="none" stroke-width="0" stroke-linecap="butt"/><path d="M-72.56757,-92.77023c0,-8.70719 7.05858,-15.76577 15.76576,-15.76577c8.70719,0 15.76576,7.05858 15.76576,15.76577c0,8.70719 -7.05857,15.76577 -15.76576,15.76577c-8.70719,0 -15.76576,-7.05858 -15.76576,-15.76577z" fill="#ff0c00" stroke="none" stroke-width="0" stroke-linecap="butt"/><path d="M-33.03303,-92.27474c0,-8.70719 7.05857,-15.76577 15.76576,-15.76577c8.70719,0 15.76577,7.05858 15.76577,15.76577c0,8.70719 -7.05858,15.76577 -15.76577,15.76577c-8.70719,0 -15.76576,-7.05858 -15.76576,-15.76577z" fill="#800000" stroke="none" stroke-width="0" stroke-linecap="butt"/><path d="M6.00601,-92.27474c0,-8.70719 7.05857,-15.76577 15.76576,-15.76577c8.70719,0 15.76577,7.05858 15.76577,15.76577c0,8.70719 -7.05858,15.76577 -15.76577,15.76577c-8.70719,0 -15.76576,-7.05858 -15.76576,-15.76577z" fill="#800000" stroke="none" stroke-width="0" stroke-linecap="butt"/><path d="M44.03904,-91.77924c0,-8.70719 7.05857,-15.76577 15.76577,-15.76577c8.70719,0 15.76577,7.05858 15.76577,15.76577c0,8.70719 -7.05858,15.76577 -15.76577,15.76577c-8.70719,0 -15.76577,-7.05858 -15.76577,-15.76577z" fill="#800000" stroke="none" stroke-width="0" stroke-linecap="butt"/></g></g></svg>