<svg version="1.1" xmlns="http://www.w3.org/2000/svg" xmlns:xlink="http://www.w3.org/1999/xlink" width="436.41159" height="253.66589" viewBox="0,0,436.41159,253.66589"><g transform="translate(-25.29571,-86.3667)"><g data-paper-data="{&quot;isPaintingLayer&quot;:true}" fill-rule="nonzero" stroke-linejoin="miter" stroke-miterlimit="10" stroke-dasharray="" stroke-dashoffset="0" style="mix-blend-mode: normal"><path d="M202.43274,166.51633l-38.47884,19.9794l-66.59799,54.01837l-13.3196,30.33908l14.05958,5.91982l19.9794,24.41926l-31.81904,31.81904l7.39978,-28.85913l-14.05958,-14.79955l5.17984,17.75946l-18.49944,26.6392l2.21993,-28.11915l-9.61971,-24.41926l-17.01949,25.15924l-3.69989,30.33908l-12.57962,-36.25891l25.15924,-30.33908l2.21993,-34.03897l27.37917,-39.95879l45.87862,-31.81904l77.69766,-17.01949z" fill="#ff0000" stroke="#ff0000" stroke-width="0.5" stroke-linecap="round"/><path d="M182.08336,156.52663c0,-33.10295 26.83525,-59.93819 59.93819,-59.93819c33.10295,0 59.93819,26.83525 59.93819,59.93819c0,33.10295 -26.83525,59.93819 -59.93819,59.93819c-33.10295,0 -59.93819,-26.83525 -59.93819,-59.93819z" fill="#ff0000" stroke="none" stroke-width="0" stroke-linecap="butt"/><path d="M283.09031,149.49684l77.69766,17.01949l45.87862,31.81904l27.37917,39.95879l2.21993,34.03897l25.15924,30.33908l-12.57962,36.25891l-3.69989,-30.33908l-17.01949,-25.15924l-9.61971,24.41926l2.21993,28.11915l-18.49944,-26.6392l5.17984,-17.75946l-14.05958,14.79955l7.39978,28.85913l-31.81904,-31.81904l19.9794,-24.41926l14.05958,-5.91982l-13.3196,-30.33908l-66.59799,-54.01837l-38.47884,-19.9794z" data-paper-data="{&quot;index&quot;:null}" fill="#ff0000" stroke="#ff0000" stroke-width="0.5" stroke-linecap="round"/><path d="M197.99288,148.01689c0,-11.03432 8.94508,-19.9794 19.9794,-19.9794c11.03432,0 19.9794,8.94508 19.9794,19.9794c0,11.03432 -8.94508,19.9794 -19.9794,19.9794c-11.03432,0 -19.9794,-8.94508 -19.9794,-19.9794z" fill="#000000" stroke="#000000" stroke-width="2.5" stroke-linecap="butt"/><path d="M246.8314,148.75687c0,-11.03432 8.94508,-19.9794 19.9794,-19.9794c11.03432,0 19.9794,8.94508 19.9794,19.9794c0,11.03432 -8.94508,19.9794 -19.9794,19.9794c-11.03432,0 -19.9794,-8.94508 -19.9794,-19.9794z" fill="#000000" stroke="#000000" stroke-width="2.5" stroke-linecap="butt"/><path d="M268.6021,107.02737l36.07258,-20.11146l-13.64853,36.5888z" data-paper-data="{&quot;index&quot;:null}" fill="#ff0000" stroke="#ff0000" stroke-width="0.5" stroke-linecap="round"/><path d="M212.41667,137.91667l15.33334,13l-15,10" fill="none" stroke="#ff0000" stroke-width="5" stroke-linecap="round"/><path d="M276.08333,135.75l-16.33333,16l12.33333,10.66666" fill="none" stroke="#ff0000" stroke-width="5" stroke-linecap="round"/><path d="M207,120l32,27l1,-22z" fill="#ff0000" stroke="#ff0000" stroke-width="5" stroke-linecap="round"/><path d="M275.5,123l-32,27l-1,-22z" data-paper-data="{&quot;index&quot;:null}" fill="#ff0000" stroke="#ff0000" stroke-width="5" stroke-linecap="round"/><path d="M192.58397,124.83805l-13.64854,-36.5888l36.07259,20.11146z" data-paper-data="{&quot;index&quot;:null}" fill="#ff0000" stroke="#ff0000" stroke-width="0.5" stroke-linecap="round"/></g></g></svg>