<svg version="1.1" xmlns="http://www.w3.org/2000/svg" xmlns:xlink="http://www.w3.org/1999/xlink" width="462.73776" height="211.46415" viewBox="0,0,462.73776,211.46415"><g transform="translate(-8.86041,-12.50817)"><g data-paper-data="{&quot;isPaintingLayer&quot;:true}" fill-rule="nonzero" stroke-linejoin="miter" stroke-miterlimit="10" stroke-dasharray="" stroke-dashoffset="0" style="mix-blend-mode: normal"><path d="M205.03041,190.39692l-79.2053,-7.28771l-49.45896,-25.90581l-32.10715,-36.2692l-6.40921,-33.50375l-28.7155,-26.99754l8.00258,-37.53551l7.42062,29.64934l19.99805,22.86326l6.52841,-25.42083l-5.67768,-27.62931l21.64954,24.14899l-2.94555,18.26343l12.123,-16.42351l-10.90927,-27.72352l35.50714,27.64319l-16.8087,26.70101l-13.22029,7.61183l16.9666,28.4606l72.76276,45.37463l40.65283,15.07132z" data-paper-data="{&quot;index&quot;:null}" fill="#ff0000" stroke="#ff0000" stroke-width="0.5" stroke-linecap="round"/><path d="M182.08336,164.03413c0,-33.10295 26.83525,-59.93819 59.93819,-59.93819c33.10295,0 59.93819,26.83525 59.93819,59.93819c0,33.10295 -26.83525,59.93819 -59.93819,59.93819c-33.10295,0 -59.93819,-26.83525 -59.93819,-59.93819z" fill="#ff0000" stroke="none" stroke-width="0" stroke-linecap="butt"/><path d="M284.98733,171.11101l39.85919,-17.05998l70.43388,-48.9116l15.54082,-29.26354l-13.57997,-6.94986l-18.10644,-25.8386l34.09909,-29.36247l-9.52725,28.22831l12.91904,15.80496l-3.84362,-18.09574l20.4309,-25.18838l-4.3067,27.87592l7.77549,25.06753l18.8449,-23.82268l5.94779,-29.97954l9.84596,37.09464l-27.34761,28.3823l-4.74732,33.77932l-30.27739,37.8101l-48.11967,28.316l-78.74892,11.18919z" data-paper-data="{&quot;index&quot;:null}" fill="#ff0000" stroke="#ff0000" stroke-width="0.5" stroke-linecap="round"/><path d="M197.99288,151.77064c0,-13.10746 8.94508,-23.73316 19.9794,-23.73316c11.03432,0 19.9794,10.6257 19.9794,23.73316c0,13.10746 -8.94508,23.73316 -19.9794,23.73316c-11.03432,0 -19.9794,-10.6257 -19.9794,-23.73316z" fill="#000000" stroke="#000000" stroke-width="2.5" stroke-linecap="butt"/><path d="M246.8314,153.26137c0,-12.69284 8.94508,-22.9824 19.9794,-22.9824c11.03432,0 19.9794,10.28958 19.9794,22.9824c0,12.69284 -8.94508,22.9824 -19.9794,22.9824c-11.03432,0 -19.9794,-10.28958 -19.9794,-22.9824z" fill="#000000" stroke="#000000" stroke-width="2.5" stroke-linecap="butt"/><path d="M212.05245,142.75086c0,-3.26943 2.65039,-5.91982 5.91982,-5.91982c3.26943,0 5.91982,2.65039 5.91982,5.91982c0,3.26943 -2.65039,5.91982 -5.91982,5.91982c-3.26943,0 -5.91982,-2.65039 -5.91982,-5.91982z" fill="#ff0000" stroke="#ff0000" stroke-width="0.5" stroke-linecap="butt"/><path d="M256.45111,143.49083c0,-6.13018 4.96948,-11.09967 11.09967,-11.09967c6.13018,0 11.09967,4.96948 11.09967,11.09967c0,6.13017 -4.96948,11.09967 -11.09967,11.09967c-6.13018,0 -11.09967,-4.96949 -11.09967,-11.09967z" fill="#ff0000" stroke="#ff0000" stroke-width="0.5" stroke-linecap="butt"/><path d="M195.77295,128.88519l-5.17984,-27.37917l22.93931,18.49944z" fill="#ff0000" stroke="#ff0000" stroke-width="0.5" stroke-linecap="round"/><path d="M270.6021,117.25497l25.73925,-14.35034l-9.73878,26.10759z" data-paper-data="{&quot;index&quot;:null}" fill="#ff0000" stroke="#ff0000" stroke-width="0.5" stroke-linecap="round"/></g></g></svg>